<svg width="101" height="100" viewBox="0 0 101 100" fill="none" xmlns="http://www.w3.org/2000/svg">
<g clip-path="url(#clip0_602_790)">
<path d="M98.9375 0H2.0625C1.6481 0 1.25067 0.16462 0.957646 0.457646C0.66462 0.750671 0.5 1.1481 0.5 1.5625L0.5 64.0625C0.5 64.4769 0.66462 64.8743 0.957646 65.1674C1.25067 65.4604 1.6481 65.625 2.0625 65.625H3.625C4.54423 65.624 5.44296 65.3533 6.20981 64.8464C6.97666 64.3395 7.57791 63.6187 7.93906 62.7734L9.41719 64.2516C9.85122 64.6884 10.3677 65.0347 10.9365 65.2705C11.5054 65.5063 12.1154 65.6267 12.7313 65.625H14.5625C14.9769 65.625 15.3743 65.4604 15.6674 65.1674C15.9604 64.8743 16.125 64.4769 16.125 64.0625V54.6875C16.1229 54.1653 16.0916 53.6437 16.0312 53.125H84.9688C84.9084 53.6437 84.8771 54.1653 84.875 54.6875V64.0625C84.875 64.4769 85.0396 64.8743 85.3326 65.1674C85.6257 65.4604 86.0231 65.625 86.4375 65.625H88.2688C88.8846 65.6267 89.4946 65.5063 90.0635 65.2705C90.6323 65.0347 91.1488 64.6884 91.5828 64.2516L93.0609 62.7734C93.4221 63.6187 94.0233 64.3395 94.7902 64.8464C95.557 65.3533 96.4558 65.624 97.375 65.625H98.9375C99.3519 65.625 99.7493 65.4604 100.042 65.1674C100.335 64.8743 100.5 64.4769 100.5 64.0625V1.5625C100.5 1.1481 100.335 0.750671 100.042 0.457646C99.7493 0.16462 99.3519 0 98.9375 0V0ZM91.125 3.125V7.8125C91.125 8.2269 91.2896 8.62433 91.5826 8.91735C91.8757 9.21038 92.2731 9.375 92.6875 9.375C93.1019 9.375 93.4993 9.21038 93.7924 8.91735C94.0854 8.62433 94.25 8.2269 94.25 7.8125V3.125H97.375V40.5219C94.6661 40.1518 92.1647 38.8679 90.2849 36.8826C88.405 34.8974 87.2594 32.3297 87.0375 29.6047L85 3.125H91.125ZM3.625 3.125H6.75V7.8125C6.75 8.2269 6.91462 8.62433 7.20765 8.91735C7.50067 9.21038 7.8981 9.375 8.3125 9.375C8.7269 9.375 9.12433 9.21038 9.41735 8.91735C9.71038 8.62433 9.875 8.2269 9.875 7.8125V3.125H16L13.9687 29.6047C13.7466 32.3307 12.6001 34.899 10.7189 36.8844C8.83784 38.8698 6.33504 40.1531 3.625 40.5219V3.125ZM13 62.5H12.7313C12.3172 62.4984 11.9204 62.3339 11.6266 62.0422L7.85469 58.2703C7.63617 58.0519 7.35779 57.9031 7.05474 57.8428C6.75169 57.7826 6.43757 57.8135 6.1521 57.9317C5.86663 58.05 5.62263 58.2502 5.45094 58.5071C5.27924 58.764 5.18757 59.066 5.1875 59.375V60.9375C5.1875 61.3519 5.02288 61.7493 4.72985 62.0424C4.43683 62.3354 4.0394 62.5 3.625 62.5V43.8609C6.23009 44.2327 8.61326 45.5328 10.3359 47.5221C12.0584 49.5115 13.0045 52.056 13 54.6875V62.5ZM15.3094 50C14.6128 48.0217 13.4851 46.2231 12.0078 44.7344C11.0009 43.7354 9.8501 42.8928 8.59375 42.2344C10.9648 41.0871 12.9949 39.3403 14.4831 37.1669C15.9713 34.9936 16.8658 32.4692 17.0781 29.8437L19.1344 3.125H81.8656L83.9219 29.8437C84.1344 32.4689 85.0293 34.993 86.5177 37.1658C88.0062 39.3387 90.0366 41.0848 92.4078 42.2312C91.1481 42.8933 89.9943 43.7396 88.9844 44.7422C87.51 46.2287 86.3849 48.0247 85.6906 50H15.3094ZM97.375 62.5C96.9606 62.5 96.5632 62.3354 96.2701 62.0424C95.9771 61.7493 95.8125 61.3519 95.8125 60.9375V59.375C95.8124 59.066 95.7208 58.764 95.5491 58.5071C95.3774 58.2502 95.1334 58.05 94.8479 57.9317C94.5624 57.8135 94.2483 57.7826 93.9453 57.8428C93.6422 57.9031 93.3638 58.0519 93.1453 58.2703L89.3734 62.0422C89.0796 62.3339 88.6828 62.4984 88.2688 62.5H88V54.6875C87.9955 52.056 88.9416 49.5115 90.6641 47.5221C92.3867 45.5328 94.7699 44.2327 97.375 43.8609V62.5Z" fill="#0D3B66"/>
<path d="M8.3125 18.75C7.8981 18.75 7.50067 18.9146 7.20765 19.2076C6.91462 19.5007 6.75 19.8981 6.75 20.3125V25.0313C6.7499 26.9861 6.55678 28.9362 6.17344 30.8531L5.21875 35.625C5.17767 35.8261 5.17661 36.0333 5.21563 36.2348C5.25465 36.4363 5.33299 36.6281 5.44617 36.7994C5.55934 36.9706 5.70515 37.1178 5.87524 37.2327C6.04534 37.3475 6.2364 37.4277 6.4375 37.4687C6.54028 37.4901 6.64503 37.5006 6.75 37.5C7.10994 37.4997 7.45874 37.3752 7.73745 37.1474C8.01617 36.9197 8.2077 36.6027 8.27969 36.25L9.23594 31.4719C9.66005 29.3512 9.8741 27.1939 9.875 25.0313V20.3125C9.875 19.8981 9.71038 19.5007 9.41736 19.2076C9.12433 18.9146 8.7269 18.75 8.3125 18.75Z" fill="#0D3B66"/>
<path d="M6.75 48.4375C6.3356 48.4375 5.93817 48.6021 5.64515 48.8951C5.35212 49.1882 5.1875 49.5856 5.1875 50V53.125C5.1875 53.5394 5.35212 53.9368 5.64515 54.2299C5.93817 54.5229 6.3356 54.6875 6.75 54.6875C7.1644 54.6875 7.56183 54.5229 7.85485 54.2299C8.14788 53.9368 8.3125 53.5394 8.3125 53.125V50C8.3125 49.5856 8.14788 49.1882 7.85485 48.8951C7.56183 48.6021 7.1644 48.4375 6.75 48.4375Z" fill="#0D3B66"/>
<path d="M94.25 56.25C94.6644 56.25 95.0618 56.0854 95.3549 55.7924C95.6479 55.4993 95.8125 55.1019 95.8125 54.6875V51.5625C95.8125 51.1481 95.6479 50.7507 95.3549 50.4576C95.0618 50.1646 94.6644 50 94.25 50C93.8356 50 93.4382 50.1646 93.1451 50.4576C92.8521 50.7507 92.6875 51.1481 92.6875 51.5625V54.6875C92.6875 55.1019 92.8521 55.4993 93.1451 55.7924C93.4382 56.0854 93.8356 56.25 94.25 56.25Z" fill="#0D3B66"/>
<path d="M88 75H84.875V73.4375C84.8725 71.3663 84.0486 69.3806 82.584 67.916C81.1194 66.4514 79.1337 65.6275 77.0625 65.625H67.6875C66.4701 65.6284 65.2706 65.9173 64.1851 66.4684C63.0996 67.0196 62.1586 67.8176 61.4375 68.7984C60.7164 67.8176 59.7754 67.0196 58.6899 66.4684C57.6044 65.9173 56.4049 65.6284 55.1875 65.625H45.8125C44.5951 65.6284 43.3956 65.9173 42.3101 66.4684C41.2246 67.0196 40.2836 67.8176 39.5625 68.7984C38.8414 67.8176 37.9004 67.0196 36.8149 66.4684C35.7294 65.9173 34.5299 65.6284 33.3125 65.625H23.9375C21.8663 65.6275 19.8806 66.4514 18.416 67.916C16.9514 69.3806 16.1275 71.3663 16.125 73.4375V75H13C10.9288 75.0025 8.94306 75.8264 7.47847 77.291C6.01388 78.7556 5.18998 80.7413 5.1875 82.8125V98.4375C5.1875 98.8519 5.35212 99.2493 5.64515 99.5424C5.93817 99.8354 6.3356 100 6.75 100H94.25C94.6644 100 95.0618 99.8354 95.3549 99.5424C95.6479 99.2493 95.8125 98.8519 95.8125 98.4375V82.8125C95.81 80.7413 94.9861 78.7556 93.5215 77.291C92.0569 75.8264 90.0712 75.0025 88 75V75ZM67.6875 68.75H77.0625C78.3057 68.75 79.498 69.2439 80.3771 70.1229C81.2561 71.002 81.75 72.1943 81.75 73.4375V75H78.625C77.4076 75.0034 76.2081 75.2923 75.1226 75.8434C74.0371 76.3946 73.0961 77.1926 72.375 78.1734C71.6539 77.1926 70.7129 76.3946 69.6274 75.8434C68.5419 75.2923 67.3424 75.0034 66.125 75H63V73.4375C63 72.1943 63.4939 71.002 64.3729 70.1229C65.252 69.2439 66.4443 68.75 67.6875 68.75ZM45.8125 68.75H55.1875C56.4307 68.75 57.623 69.2439 58.5021 70.1229C59.3811 71.002 59.875 72.1943 59.875 73.4375V75H56.75C55.5326 75.0034 54.3331 75.2923 53.2476 75.8434C52.1621 76.3946 51.2211 77.1926 50.5 78.1734C49.7789 77.1926 48.8379 76.3946 47.7524 75.8434C46.6669 75.2923 45.4674 75.0034 44.25 75H41.125V73.4375C41.125 72.1943 41.6189 71.002 42.4979 70.1229C43.377 69.2439 44.5693 68.75 45.8125 68.75ZM19.25 73.4375C19.25 72.1943 19.7439 71.002 20.6229 70.1229C21.502 69.2439 22.6943 68.75 23.9375 68.75H33.3125C34.5557 68.75 35.748 69.2439 36.6271 70.1229C37.5061 71.002 38 72.1943 38 73.4375V75H34.875C33.6576 75.0034 32.4581 75.2923 31.3726 75.8434C30.2871 76.3946 29.3461 77.1926 28.625 78.1734C27.9039 77.1926 26.9629 76.3946 25.8774 75.8434C24.7919 75.2923 23.5924 75.0034 22.375 75H19.25V73.4375ZM8.3125 82.8125C8.3125 81.5693 8.80636 80.377 9.68544 79.4979C10.5645 78.6189 11.7568 78.125 13 78.125H22.375C23.6182 78.125 24.8105 78.6189 25.6896 79.4979C26.5686 80.377 27.0625 81.5693 27.0625 82.8125V96.875H8.3125V82.8125ZM30.1875 82.8125C30.1875 81.5693 30.6814 80.377 31.5604 79.4979C32.4395 78.6189 33.6318 78.125 34.875 78.125H44.25C45.4932 78.125 46.6855 78.6189 47.5646 79.4979C48.4436 80.377 48.9375 81.5693 48.9375 82.8125V96.875H30.1875V82.8125ZM52.0625 82.8125C52.0625 81.5693 52.5564 80.377 53.4354 79.4979C54.3145 78.6189 55.5068 78.125 56.75 78.125H66.125C67.3682 78.125 68.5605 78.6189 69.4396 79.4979C70.3186 80.377 70.8125 81.5693 70.8125 82.8125V96.875H52.0625V82.8125ZM92.6875 96.875H73.9375V82.8125C73.9375 81.5693 74.4314 80.377 75.3104 79.4979C76.1895 78.6189 77.3818 78.125 78.625 78.125H88C89.2432 78.125 90.4355 78.6189 91.3146 79.4979C92.1936 80.377 92.6875 81.5693 92.6875 82.8125V96.875Z" fill="#0D3B66"/>
<path d="M63.2515 17.3969C62.894 17.6054 62.6338 17.9472 62.5281 18.3474C62.4223 18.7475 62.4796 19.1733 62.6875 19.5312C64.4341 22.5487 64.9984 26.1072 64.2709 29.517C63.5434 32.9268 61.5759 35.9451 58.7499 37.9869C55.9238 40.0288 52.4404 40.9489 48.9746 40.5688C45.5089 40.1887 42.3076 38.5355 39.9913 35.9296C37.675 33.3237 36.4085 29.9508 36.4373 26.4643C36.4662 22.9779 37.7883 19.6264 40.1474 17.0592C42.5065 14.492 45.7347 12.892 49.2063 12.5693C52.6778 12.2466 56.1456 13.2241 58.9375 15.3125C59.269 15.5611 59.6857 15.6679 60.096 15.6093C60.5062 15.5507 60.8763 15.3315 61.125 15C61.3736 14.6685 61.4804 14.2518 61.4218 13.8415C61.3632 13.4313 61.144 13.0611 60.8125 12.8125C57.4062 10.2564 53.1723 9.05596 48.9313 9.44376C44.6904 9.83156 40.7444 11.78 37.8582 14.9115C34.972 18.0429 33.3511 22.1344 33.3098 26.3929C33.2684 30.6513 34.8094 34.7735 37.6342 37.9604C40.459 41.1474 44.3664 43.1722 48.599 43.6423C52.8317 44.1124 57.0881 42.9945 60.5434 40.5051C63.9987 38.0157 66.4068 34.3321 67.3009 30.1684C68.195 26.0046 67.5115 21.6572 65.3828 17.9687C65.1756 17.6107 64.8349 17.3495 64.4354 17.2423C64.0359 17.1351 63.6101 17.1907 63.2515 17.3969V17.3969Z" fill="#0D3B66"/>
<path d="M45.0781 17.425C44.8416 17.2772 44.5698 17.1954 44.291 17.188C44.0122 17.1807 43.7365 17.2482 43.4925 17.3834C43.2486 17.5186 43.0453 17.7166 42.9037 17.9569C42.7622 18.1973 42.6875 18.4711 42.6875 18.75V34.375C42.6875 34.6539 42.7622 34.9277 42.9037 35.1681C43.0453 35.4084 43.2486 35.6064 43.4925 35.7416C43.7365 35.8768 44.0122 35.9443 44.291 35.937C44.5698 35.9296 44.8416 35.8478 45.0781 35.7L57.5781 27.8875C57.8042 27.7474 57.9908 27.5518 58.1202 27.3194C58.2496 27.087 58.3175 26.8254 58.3175 26.5594C58.3175 26.2934 58.2496 26.0318 58.1202 25.7993C57.9908 25.5669 57.8042 25.3714 57.5781 25.2313L45.0781 17.425ZM45.8125 31.5625V21.5625L53.8016 26.5625L45.8125 31.5625Z" fill="#0D3B66"/>
<path d="M92.7188 36.25C92.7908 36.6029 92.9826 36.9201 93.2616 37.1479C93.5406 37.3757 93.8898 37.5001 94.25 37.5C94.355 37.5006 94.4597 37.4901 94.5625 37.4687C94.7636 37.4277 94.9547 37.3475 95.1248 37.2327C95.2949 37.1178 95.4407 36.9706 95.5538 36.7994C95.667 36.6281 95.7454 36.4363 95.7844 36.2348C95.8234 36.0333 95.8223 35.8261 95.7812 35.625L94.8266 30.8469C94.4436 28.932 94.2505 26.984 94.25 25.0313V20.3125C94.25 19.8981 94.0854 19.5007 93.7924 19.2076C93.4993 18.9146 93.1019 18.75 92.6875 18.75C92.2731 18.75 91.8757 18.9146 91.5826 19.2076C91.2896 19.5007 91.125 19.8981 91.125 20.3125V25.0313C91.1258 27.1918 91.3393 29.347 91.7625 31.4656L92.7188 36.25Z" fill="#0D3B66"/>
</g>
<defs>
<clipPath id="clip0_602_790">
<rect width="100" height="100" fill="white" transform="translate(0.5)"/>
</clipPath>
</defs>
</svg>
