<svg width="101" height="101" viewBox="0 0 101 101" fill="none" xmlns="http://www.w3.org/2000/svg">
<path d="M92.6875 14.5625H89.5625V9.875C89.5625 8.6318 89.0686 7.43951 88.1896 6.56044C87.3105 5.68136 86.1182 5.1875 84.875 5.1875C83.6318 5.1875 82.4395 5.68136 81.5604 6.56044C80.6814 7.43951 80.1875 8.6318 80.1875 9.875V14.5625H75.5V9.875C75.5 8.6318 75.0061 7.43951 74.1271 6.56044C73.248 5.68136 72.0557 5.1875 70.8125 5.1875C69.5693 5.1875 68.377 5.68136 67.4979 6.56044C66.6189 7.43951 66.125 8.6318 66.125 9.875V14.5625H34.875V9.875C34.875 8.6318 34.3811 7.43951 33.5021 6.56044C32.623 5.68136 31.4307 5.1875 30.1875 5.1875C28.9443 5.1875 27.752 5.68136 26.8729 6.56044C25.9939 7.43951 25.5 8.6318 25.5 9.875V14.5625H20.8125V9.875C20.8125 8.6318 20.3186 7.43951 19.4396 6.56044C18.5605 5.68136 17.3682 5.1875 16.125 5.1875C14.8818 5.1875 13.6895 5.68136 12.8104 6.56044C11.9314 7.43951 11.4375 8.6318 11.4375 9.875V14.5625H8.3125C7.0693 14.5625 5.87701 15.0564 4.99794 15.9354C4.11886 16.8145 3.625 18.0068 3.625 19.25V81.75C3.625 82.9932 4.11886 84.1855 4.99794 85.0646C5.87701 85.9436 7.0693 86.4375 8.3125 86.4375H31.75V83.3125H8.3125C7.8981 83.3125 7.50067 83.1479 7.20765 82.8549C6.91462 82.5618 6.75 82.1644 6.75 81.75V33.3125H94.25V53.625H97.375V19.25C97.375 18.0068 96.8811 16.8145 96.0021 15.9354C95.123 15.0564 93.9307 14.5625 92.6875 14.5625V14.5625ZM88 23.9375C88 24.7663 87.6708 25.5612 87.0847 26.1472C86.4987 26.7333 85.7038 27.0625 84.875 27.0625C84.0462 27.0625 83.2513 26.7333 82.6653 26.1472C82.0792 25.5612 81.75 24.7663 81.75 23.9375C81.7526 23.579 81.8214 23.2241 81.9531 22.8906C82.7758 23.5688 83.8088 23.9396 84.875 23.9396C85.9412 23.9396 86.9742 23.5688 87.7969 22.8906C87.9286 23.2241 87.9974 23.579 88 23.9375ZM83.3125 9.875C83.3125 9.4606 83.4771 9.06317 83.7701 8.77015C84.0632 8.47712 84.4606 8.3125 84.875 8.3125C85.2894 8.3125 85.6868 8.47712 85.9799 8.77015C86.2729 9.06317 86.4375 9.4606 86.4375 9.875V19.25C86.4375 19.6644 86.2729 20.0618 85.9799 20.3549C85.6868 20.6479 85.2894 20.8125 84.875 20.8125C84.4606 20.8125 84.0632 20.6479 83.7701 20.3549C83.4771 20.0618 83.3125 19.6644 83.3125 19.25V9.875ZM73.9375 23.9375C73.9375 24.7663 73.6083 25.5612 73.0222 26.1472C72.4362 26.7333 71.6413 27.0625 70.8125 27.0625C69.9837 27.0625 69.1888 26.7333 68.6028 26.1472C68.0167 25.5612 67.6875 24.7663 67.6875 23.9375C67.6901 23.579 67.7589 23.2241 67.8906 22.8906C68.7133 23.5688 69.7463 23.9396 70.8125 23.9396C71.8787 23.9396 72.9117 23.5688 73.7344 22.8906C73.8661 23.2241 73.9349 23.579 73.9375 23.9375ZM69.25 9.875C69.25 9.4606 69.4146 9.06317 69.7076 8.77015C70.0007 8.47712 70.3981 8.3125 70.8125 8.3125C71.2269 8.3125 71.6243 8.47712 71.9174 8.77015C72.2104 9.06317 72.375 9.4606 72.375 9.875V19.25C72.375 19.6644 72.2104 20.0618 71.9174 20.3549C71.6243 20.6479 71.2269 20.8125 70.8125 20.8125C70.3981 20.8125 70.0007 20.6479 69.7076 20.3549C69.4146 20.0618 69.25 19.6644 69.25 19.25V9.875ZM33.3125 23.9375C33.3125 24.7663 32.9833 25.5612 32.3972 26.1472C31.8112 26.7333 31.0163 27.0625 30.1875 27.0625C29.3587 27.0625 28.5638 26.7333 27.9778 26.1472C27.3917 25.5612 27.0625 24.7663 27.0625 23.9375C27.0651 23.579 27.1339 23.2241 27.2656 22.8906C28.0883 23.5688 29.1213 23.9396 30.1875 23.9396C31.2537 23.9396 32.2867 23.5688 33.1094 22.8906C33.2411 23.2241 33.3099 23.579 33.3125 23.9375V23.9375ZM28.625 9.875C28.625 9.4606 28.7896 9.06317 29.0826 8.77015C29.3757 8.47712 29.7731 8.3125 30.1875 8.3125C30.6019 8.3125 30.9993 8.47712 31.2924 8.77015C31.5854 9.06317 31.75 9.4606 31.75 9.875V19.25C31.75 19.6644 31.5854 20.0618 31.2924 20.3549C30.9993 20.6479 30.6019 20.8125 30.1875 20.8125C29.7731 20.8125 29.3757 20.6479 29.0826 20.3549C28.7896 20.0618 28.625 19.6644 28.625 19.25V9.875ZM19.25 23.9375C19.25 24.7663 18.9208 25.5612 18.3347 26.1472C17.7487 26.7333 16.9538 27.0625 16.125 27.0625C15.2962 27.0625 14.5013 26.7333 13.9153 26.1472C13.3292 25.5612 13 24.7663 13 23.9375C13.0026 23.579 13.0714 23.2241 13.2031 22.8906C14.0258 23.5688 15.0588 23.9396 16.125 23.9396C17.1912 23.9396 18.2242 23.5688 19.0469 22.8906C19.1786 23.2241 19.2474 23.579 19.25 23.9375V23.9375ZM14.5625 9.875C14.5625 9.4606 14.7271 9.06317 15.0201 8.77015C15.3132 8.47712 15.7106 8.3125 16.125 8.3125C16.5394 8.3125 16.9368 8.47712 17.2299 8.77015C17.5229 9.06317 17.6875 9.4606 17.6875 9.875V19.25C17.6875 19.6644 17.5229 20.0618 17.2299 20.3549C16.9368 20.6479 16.5394 20.8125 16.125 20.8125C15.7106 20.8125 15.3132 20.6479 15.0201 20.3549C14.7271 20.0618 14.5625 19.6644 14.5625 19.25V9.875ZM84.875 30.1875H6.75V19.25C6.75 18.8356 6.91462 18.4382 7.20765 18.1451C7.50067 17.8521 7.8981 17.6875 8.3125 17.6875H11.4375V19.25C11.4222 19.432 11.4222 19.6149 11.4375 19.7969C10.4162 20.9325 9.85853 22.4103 9.875 23.9375C9.875 25.5951 10.5335 27.1848 11.7056 28.3569C12.8777 29.529 14.4674 30.1875 16.125 30.1875C17.7826 30.1875 19.3723 29.529 20.5444 28.3569C21.7165 27.1848 22.375 25.5951 22.375 23.9375C22.3915 22.4103 21.8338 20.9325 20.8125 19.7969C20.8278 19.6149 20.8278 19.432 20.8125 19.25V17.6875H25.5V19.25C25.4847 19.432 25.4847 19.6149 25.5 19.7969C24.4787 20.9325 23.921 22.4103 23.9375 23.9375C23.9375 25.5951 24.596 27.1848 25.7681 28.3569C26.9402 29.529 28.5299 30.1875 30.1875 30.1875C31.8451 30.1875 33.4348 29.529 34.6069 28.3569C35.779 27.1848 36.4375 25.5951 36.4375 23.9375C36.454 22.4103 35.8963 20.9325 34.875 19.7969C34.8903 19.6149 34.8903 19.432 34.875 19.25V17.6875H66.125V19.25C66.1097 19.432 66.1097 19.6149 66.125 19.7969C65.1037 20.9325 64.546 22.4103 64.5625 23.9375C64.5625 25.5951 65.221 27.1848 66.3931 28.3569C67.5652 29.529 69.1549 30.1875 70.8125 30.1875C72.4701 30.1875 74.0598 29.529 75.2319 28.3569C76.404 27.1848 77.0625 25.5951 77.0625 23.9375C77.079 22.4103 76.5213 20.9325 75.5 19.7969C75.5153 19.6149 75.5153 19.432 75.5 19.25V17.6875H80.1875V19.25C80.1722 19.432 80.1722 19.6149 80.1875 19.7969C79.1662 20.9325 78.6085 22.4103 78.625 23.9375C78.625 25.5951 79.2835 27.1848 80.4556 28.3569C81.6277 29.529 83.2174 30.1875 84.875 30.1875C86.5326 30.1875 88.1223 29.529 89.2944 28.3569C90.4665 27.1848 91.125 25.5951 91.125 23.9375C91.1415 22.4103 90.5838 20.9325 89.5625 19.7969C89.5778 19.6149 89.5778 19.432 89.5625 19.25V17.6875H92.6875C93.1019 17.6875 93.4993 17.8521 93.7924 18.1451C94.0854 18.4382 94.25 18.8356 94.25 19.25V30.1875H84.875Z" fill="#0D3B66"/>
<path d="M36.4375 36.4375H27.0625C26.6481 36.4375 26.2507 36.6021 25.9576 36.8951C25.6646 37.1882 25.5 37.5856 25.5 38V47.375C25.5 47.7894 25.6646 48.1868 25.9576 48.4799C26.2507 48.7729 26.6481 48.9375 27.0625 48.9375H36.4375C36.8519 48.9375 37.2493 48.7729 37.5424 48.4799C37.8354 48.1868 38 47.7894 38 47.375V38C38 37.5856 37.8354 37.1882 37.5424 36.8951C37.2493 36.6021 36.8519 36.4375 36.4375 36.4375ZM34.875 45.8125H28.625V39.5625H34.875V45.8125Z" fill="#0D3B66"/>
<path d="M42.6875 48.9375H52.0625C52.4769 48.9375 52.8743 48.7729 53.1674 48.4799C53.4604 48.1868 53.625 47.7894 53.625 47.375V38C53.625 37.5856 53.4604 37.1882 53.1674 36.8951C52.8743 36.6021 52.4769 36.4375 52.0625 36.4375H42.6875C42.2731 36.4375 41.8757 36.6021 41.5826 36.8951C41.2896 37.1882 41.125 37.5856 41.125 38V47.375C41.125 47.7894 41.2896 48.1868 41.5826 48.4799C41.8757 48.7729 42.2731 48.9375 42.6875 48.9375ZM44.25 39.5625H50.5V45.8125H44.25V39.5625Z" fill="#0D3B66"/>
<path d="M25.5 63C25.5 63.4144 25.6646 63.8118 25.9576 64.1049C26.2507 64.3979 26.6481 64.5625 27.0625 64.5625H36.4375C36.8519 64.5625 37.2493 64.3979 37.5424 64.1049C37.8354 63.8118 38 63.4144 38 63V53.625C38 53.2106 37.8354 52.8132 37.5424 52.5201C37.2493 52.2271 36.8519 52.0625 36.4375 52.0625H27.0625C26.6481 52.0625 26.2507 52.2271 25.9576 52.5201C25.6646 52.8132 25.5 53.2106 25.5 53.625V63ZM28.625 55.1875H34.875V61.4375H28.625V55.1875Z" fill="#0D3B66"/>
<path d="M22.375 53.625C22.375 53.2106 22.2104 52.8132 21.9174 52.5201C21.6243 52.2271 21.2269 52.0625 20.8125 52.0625H11.4375C11.0231 52.0625 10.6257 52.2271 10.3326 52.5201C10.0396 52.8132 9.875 53.2106 9.875 53.625V63C9.875 63.4144 10.0396 63.8118 10.3326 64.1049C10.6257 64.3979 11.0231 64.5625 11.4375 64.5625H20.8125C21.2269 64.5625 21.6243 64.3979 21.9174 64.1049C22.2104 63.8118 22.375 63.4144 22.375 63V53.625ZM19.25 61.4375H13V55.1875H19.25V61.4375Z" fill="#0D3B66"/>
<path d="M20.8125 67.6875H11.4375C11.0231 67.6875 10.6257 67.8521 10.3326 68.1451C10.0396 68.4382 9.875 68.8356 9.875 69.25V78.625C9.875 79.0394 10.0396 79.4368 10.3326 79.7299C10.6257 80.0229 11.0231 80.1875 11.4375 80.1875H20.8125C21.2269 80.1875 21.6243 80.0229 21.9174 79.7299C22.2104 79.4368 22.375 79.0394 22.375 78.625V69.25C22.375 68.8356 22.2104 68.4382 21.9174 68.1451C21.6243 67.8521 21.2269 67.6875 20.8125 67.6875ZM19.25 77.0625H13V70.8125H19.25V77.0625Z" fill="#0D3B66"/>
<path d="M34.875 83.3125H38V86.4375H34.875V83.3125Z" fill="#0D3B66"/>
<path d="M94.25 56.75H97.375V59.875H94.25V56.75Z" fill="#0D3B66"/>
<path d="M34.9531 69.75C35.0299 69.979 35.1588 70.1871 35.3296 70.3579C35.5004 70.5287 35.7085 70.6575 35.9375 70.7344L41.125 72.4531V88C41.1129 88.3528 41.2206 88.6992 41.4306 88.9829C41.6405 89.2667 41.9404 89.4709 42.2812 89.5625L65.7187 95.8125C65.986 95.8751 66.264 95.8751 66.5312 95.8125L89.9687 89.5625C90.3096 89.4709 90.6095 89.2667 90.8194 88.9829C91.0294 88.6992 91.1371 88.3528 91.125 88V72.375L96.3125 70.8125C96.5415 70.7357 96.7496 70.6068 96.9204 70.436C97.0912 70.2652 97.22 70.0571 97.2969 69.8281C97.3711 69.6022 97.3928 69.3623 97.3603 69.1268C97.3278 68.8912 97.242 68.6661 97.1094 68.4688C97.1094 68.4688 90.6406 58.8125 90.5312 58.7187C90.3836 58.6111 90.2202 58.5267 90.0469 58.4687L75.8281 54.6719C76.2097 52.9724 76.9502 51.3742 78 49.9844L75.5 47.9844C74.1801 49.6983 73.2425 51.6748 72.75 53.7812L70.8125 53.2656V52.7969C70.8075 50.9853 71.3098 49.2084 72.2625 47.6676C73.2152 46.1267 74.5803 44.8833 76.2031 44.0781L74.7969 41.2969C72.7071 42.327 70.9395 43.9101 69.6861 45.8742C68.4327 47.8382 67.7415 50.1082 67.6875 52.4375L66.5312 52.0625C66.264 51.9999 65.986 51.9999 65.7187 52.0625L64.5312 52.3906C64.4802 50.0646 63.7936 47.7969 62.546 45.8331C61.2983 43.8694 59.5371 42.2844 57.4531 41.25L56.0469 44.0313C57.6769 44.8399 59.0467 46.0906 59.9999 47.6406C60.9531 49.1906 61.4513 50.9773 61.4375 52.7969V53.25L59.4687 53.7812C58.9856 51.6774 58.0587 49.701 56.75 47.9844L54.25 49.8906C55.2998 51.2805 56.0403 52.8787 56.4219 54.5781L42.3594 58.3438C41.9924 58.4466 41.6757 58.68 41.4687 59L35.2187 68.375C35.0706 68.5677 34.9694 68.7924 34.9233 69.0311C34.8771 69.2698 34.8874 69.5159 34.9531 69.75V69.75ZM44.25 73.5L59.375 78.625C59.7184 78.7418 60.0917 78.7355 60.4309 78.6073C60.7702 78.479 61.0542 78.2367 61.2344 77.9219L64.5625 72.0156V92.2188L44.25 86.7969V73.5ZM88 86.7969L67.6875 92.2188V72.0156L71.0156 77.8438C71.1958 78.1585 71.4798 78.4008 71.8191 78.5291C72.1583 78.6574 72.5316 78.6637 72.875 78.5469L88 73.5V86.7969ZM93.375 68.4219L73.0625 75.1719L68.375 67.1094L88.7812 61.6719L93.375 68.4219ZM56.75 57.75V59.875H59.875V57.25C59.875 57.1406 59.875 57.0312 59.875 56.9062L61.4375 56.5V59.875H64.5625V55.6562L66.125 55.1875L67.6875 55.5937V59.875H70.8125V56.5L72.375 56.9062V57.25V59.875H75.5V57.75L83.5 59.875L66.125 64.5625L48.75 59.875L56.75 57.75ZM43.3594 61.6719L63.7656 67.1094L59.0781 75.1719L38.7656 68.4219L43.3594 61.6719Z" fill="#0D3B66"/>
<path d="M64.5625 36.4375H67.6875V39.5625H64.5625V36.4375Z" fill="#0D3B66"/>
<path d="M64.5625 42.6875H67.6875V45.8125H64.5625V42.6875Z" fill="#0D3B66"/>
<path d="M67.6875 39.5625H70.8125V42.6875H67.6875V39.5625Z" fill="#0D3B66"/>
<path d="M61.4375 39.5625H64.5625V42.6875H61.4375V39.5625Z" fill="#0D3B66"/>
</svg>
