<svg width="101" height="100" viewBox="0 0 101 100" fill="none" xmlns="http://www.w3.org/2000/svg">
<g clip-path="url(#clip0_602_753)">
<path d="M22.91 97.7947C22.6826 97.7947 22.452 97.7416 22.2363 97.6293C19.4248 96.1701 10.1471 91.1676 8.80352 88.0654C7.42383 84.8793 6.54629 69.3236 7.51758 65.2643C7.81855 64.0061 8.18281 62.9232 8.63125 61.9541C8.97109 61.2201 9.8416 60.9002 10.576 61.2398C11.3102 61.5795 11.6299 62.4502 11.2902 63.1844C10.9242 63.9756 10.6223 64.8789 10.367 65.9461C9.47617 69.6693 10.4502 84.4961 11.4922 86.9016C12.1309 88.376 18.2672 92.2685 23.5863 95.0295C24.3043 95.4019 24.5844 96.2863 24.2117 97.0041C23.9506 97.5064 23.4395 97.7945 22.91 97.7947V97.7947ZM89.8488 97.7941C89.4123 97.7941 88.9799 97.5998 88.6912 97.2283C88.1947 96.5894 88.3104 95.6695 88.9488 95.173C92.5287 92.3893 97.5703 87.3935 97.5703 85.0012C97.5703 64.5713 95.1043 54.4621 94.1926 53.0644C93.3834 52.5807 89.7414 51.7414 87.3107 51.1805C85.7355 50.8176 84.1072 50.442 82.7693 50.0826C83.4652 52.5182 84.3373 56.0191 84.3373 58.2613C84.3373 61.0631 81.807 64.906 76.6021 70.0109C72.9391 73.6039 69.3375 76.4437 69.1859 76.5625C68.55 77.0631 67.6291 76.9523 67.1291 76.3164C66.6291 75.6805 66.7391 74.7596 67.3752 74.2596C67.4113 74.2311 71.0184 71.3859 74.568 67.9025C80.7412 61.8441 81.408 59.142 81.408 58.2613C81.408 55.8424 80.0379 51.0393 79.3254 48.8008C78.3406 48.3203 77.5014 47.8021 76.8039 47.306V47.731C76.8039 62.0012 69.6061 69.7834 69.2998 70.1076C69.023 70.4006 68.6379 70.5666 68.235 70.5666C67.832 70.5666 67.4469 70.4006 67.1701 70.1076C66.8639 69.7834 59.666 62.0008 59.666 47.731V47.306C58.2711 48.2982 56.309 49.3787 53.7527 50.0689C52.4047 50.4324 50.7533 50.8135 49.1562 51.1812C48.4984 51.333 47.84 51.485 47.201 51.6355C46.4127 51.823 45.6246 51.334 45.4387 50.5467C45.2527 49.7596 45.7402 48.9705 46.5277 48.7848C47.1717 48.6326 47.8352 48.4795 48.498 48.3268C50.0689 47.9646 51.6936 47.59 52.9895 47.2402C56.7289 46.2312 58.9047 44.2752 59.6662 43.4822V42.575C59.2061 42.1629 58.7607 41.7164 58.3332 41.2365C55.9414 38.5543 54.2793 35.0627 53.5953 31.316C51.4914 30.4656 49.9506 27.6711 49.9506 25.2904C49.9506 22.8928 50.8842 21.2451 52.576 20.5369C48.9178 12.9947 47.0133 10.9912 38.082 11.3353C37.5352 11.3553 37.0246 11.0723 36.7539 10.5986C36.6877 10.4873 34.9582 7.64296 31.034 7.64296C27.11 7.64296 25.3805 10.4873 25.3088 10.6084C25.0379 11.0822 24.5299 11.3602 23.9863 11.3357C20.601 11.2064 17.9404 12.191 15.6068 14.4365C7.52656 22.2111 3.42969 45.3758 3.42969 83.2863C3.42969 84.0955 2.77383 84.7512 1.96484 84.7512C1.15586 84.7512 0.5 84.0955 0.5 83.2863C0.5 44.0029 4.77676 20.7914 13.5748 12.3254C16.292 9.71054 19.4779 8.4207 23.2932 8.39511C24.2943 7.12831 26.7631 4.71328 31.0334 4.71328C35.2908 4.71328 37.7574 7.11328 38.7645 8.3832C46.8094 8.19648 50.0477 10.1281 53.2477 15.5574V13.7168C53.2477 10.8568 54.8975 7.93535 57.7744 5.70195C60.6781 3.44726 64.3926 2.20566 68.234 2.20566C72.0754 2.20566 75.7902 3.44726 78.6936 5.70195C81.5709 7.93554 83.2209 10.857 83.2209 13.7168V20.3152C85.3361 20.8434 86.5189 22.592 86.5189 25.2908C86.5189 27.8018 85.0719 30.5555 82.8684 31.3492C82.1807 35.0834 80.5215 38.5625 78.1367 41.2369C77.709 41.7166 77.2641 42.1629 76.8035 42.5754V43.4766C77.5775 44.273 79.7836 46.2432 83.4805 47.2404C84.7756 47.5898 86.3988 47.9643 87.9691 48.3264C93.3723 49.5723 95.493 50.1297 96.332 51.0502C98.3807 53.2986 100.5 66.6129 100.5 85.0012C100.5 87.1707 98.8578 89.8756 95.4797 93.2703C93.1437 95.618 90.843 97.4109 90.7465 97.4861C90.4791 97.6935 90.1627 97.7941 89.8488 97.7941V97.7941ZM65.9293 62.8207C66.7637 64.5414 67.5998 65.8531 68.2305 66.7387C68.8611 65.8484 69.6994 64.5281 70.5361 62.7994L69.0385 46.0371C68.5033 46.075 67.9643 46.075 67.4289 46.0371L65.9293 62.8207ZM62.5951 44.6281V47.7314C62.5951 50.9139 62.9857 53.7459 63.5783 56.2123L64.5389 45.4598C63.8781 45.24 63.2287 44.9623 62.5951 44.6281V44.6281ZM71.9283 45.46L72.8873 56.1934C73.4816 53.7277 73.8736 50.9006 73.8736 47.7312V44.6279C73.2396 44.9625 72.5898 45.2404 71.9283 45.46V45.46ZM94.25 53.1014H94.252H94.25ZM54.6859 23.0762C53.632 23.0822 53.3576 23.4398 53.267 23.5582C53.0137 23.8889 52.8797 24.4881 52.8797 25.2908C52.8797 26.8135 54.1125 28.6449 54.8865 28.6449C55.6205 28.6449 56.2412 29.1881 56.3385 29.9154C57.3307 37.3287 62.5559 43.1357 68.2344 43.1357C73.9129 43.1357 79.1383 37.3287 80.1305 29.9154C80.2277 29.1879 80.8484 28.6449 81.5824 28.6449C82.5203 28.6449 83.5893 26.8584 83.5893 25.2908C83.5893 23.4074 82.9982 23.0762 81.7561 23.0762C80.9469 23.0762 80.2912 22.4205 80.2912 21.6113V13.7168C80.2912 9.74843 75.0246 5.13515 68.2346 5.13515C65.7684 5.13515 63.5025 5.74394 61.6176 6.70956C61.6191 11.5779 64.0672 12.6467 65.9086 13.0279C67.8887 13.4373 70.1713 13.2607 72.3789 13.0896C73.5834 12.9963 74.8289 12.8998 76.0178 12.8998C76.8268 12.8998 77.4826 13.5555 77.4826 14.3646C77.4826 15.174 76.8268 15.8295 76.0178 15.8295C74.942 15.8295 73.807 15.9174 72.6049 16.0107C70.1939 16.1975 67.7014 16.3898 65.315 15.8969C61.6174 15.132 59.357 12.5853 58.8152 8.6457C57.1572 10.175 56.1779 12.0059 56.1779 13.717V21.5789C56.1777 22.5707 55.5049 23.0762 54.6859 23.0762V23.0762ZM39.1559 97.7941C38.8918 97.7941 38.6281 97.723 38.3951 97.581C37.9578 97.3156 37.691 96.8408 37.691 96.3293C37.691 95.6193 37.4781 95.1027 37.0207 94.7033C35.6094 93.4701 32.3016 93.5941 31.2406 93.7367C30.8656 93.7898 30.4742 93.6978 30.1559 93.4594L19.3885 85.401C19.1934 85.2709 19.0061 85.1303 18.827 84.9805C18.784 84.9475 18.7432 84.9121 18.7049 84.8756C17.3799 83.7078 16.5428 81.9986 16.5428 80.0977C16.5428 76.5861 19.3996 73.7291 22.9113 73.7291C23.6193 73.7291 24.3158 73.8471 24.9748 74.0728C25.8045 71.5195 28.207 69.668 31.0336 69.668C33.8602 69.668 36.2627 71.5193 37.0924 74.0728C37.7514 73.8473 38.4477 73.7291 39.1559 73.7291C40.7961 73.7291 42.2934 74.3521 43.4236 75.3746C43.9074 72.6639 44.3514 70.1158 44.4043 69.6322C44.3795 66.3164 41.885 63.6275 38.8223 63.6275C37.6707 63.6275 35.5385 64.2051 31.9201 66.9564C31.3961 67.3553 30.6709 67.3553 30.1469 66.9564C26.5287 64.2051 24.3963 63.6275 23.2447 63.6275C20.1668 63.6275 17.6625 66.3434 17.6625 69.682C17.6625 70.4912 17.0066 71.1469 16.1977 71.1469C15.3887 71.1469 14.7328 70.4912 14.7328 69.682C14.7328 64.7281 18.5512 60.6978 23.2447 60.6978C25.4037 60.6978 27.9588 61.7699 31.0336 63.9699C34.1086 61.7697 36.6637 60.6978 38.8225 60.6978C43.516 60.6978 47.3344 64.7281 47.3344 69.682C47.3344 69.8375 47.3342 70.3098 45.523 80.2391C45.4826 82.0834 44.6547 83.7369 43.3625 84.876C43.324 84.9127 43.2832 84.9478 43.2402 84.981C43.0611 85.131 42.8738 85.2713 42.6789 85.401L35.3084 90.917C36.5998 91.1473 37.9293 91.6096 38.9424 92.492C39.4754 92.9562 39.8865 93.5078 40.1684 94.1307C45.0232 91.4807 50.0037 88.2209 50.5752 86.9016C51.617 84.4961 52.591 69.6693 51.7006 65.9463C50.5314 61.059 48.434 59.1264 41.9432 56.9555C41.5096 56.8105 41.1117 56.6836 40.7469 56.5674C37.7168 55.6008 36.3262 54.9764 35.9359 51.8566C34.3781 52.4539 32.7229 52.7654 31.0338 52.7654C29.3447 52.7654 27.6895 52.4535 26.1316 51.8566C25.7412 54.9768 24.3506 55.601 21.3205 56.5674C20.9555 56.684 20.5576 56.8105 20.124 56.9557C17.9084 57.6965 16.2996 58.3834 15.0609 59.1164C14.365 59.5283 13.4664 59.2986 13.0543 58.6019C12.6422 57.906 12.8725 57.0074 13.5688 56.5955C14.99 55.7539 16.7779 54.9857 19.1949 54.1773C19.6426 54.0273 20.0535 53.8965 20.4303 53.776C21.7266 53.3625 22.583 53.0893 22.8826 52.7098C23.135 52.39 23.2711 51.6617 23.3098 50.3883C22.5643 49.8873 21.8572 49.3107 21.1982 48.6631C19.3457 46.8424 17.9277 44.5057 17.0547 41.8824C16.9236 41.9857 16.7963 42.0816 16.677 42.1713C15.8373 42.8019 15.5471 43.0619 15.5471 43.8773C15.5471 44.6928 15.8373 44.9529 16.677 45.5834C17.5928 46.2711 18.977 47.3111 18.977 49.632C18.977 50.4412 18.3211 51.0969 17.5121 51.0969C16.7031 51.0969 16.0473 50.4412 16.0473 49.632C16.0473 48.8162 15.7568 48.5564 14.9174 47.926C14.0016 47.2383 12.6174 46.1982 12.6174 43.8773C12.6174 41.5564 14.0016 40.5168 14.9174 39.8287C15.3439 39.5082 15.6285 39.2838 15.8055 39.0336C14.0086 37.9471 12.7492 35.4566 12.7492 33.3041C12.7492 30.6057 13.9318 28.8566 16.0471 28.3283V27.8492C16.0471 19.5855 22.7699 12.8631 31.0334 12.8631C39.2969 12.8631 46.0197 19.5859 46.0197 27.8492V28.3283C48.135 28.8566 49.3178 30.6053 49.3178 33.3041C49.3178 35.816 47.8695 38.5707 45.6646 39.3631C44.9775 43.0049 43.2965 46.2769 40.8688 48.6629C40.2098 49.3105 39.5029 49.8869 38.7572 50.3881C38.7959 51.6613 38.932 52.3898 39.1844 52.7096C39.4838 53.0891 40.3402 53.3623 41.6367 53.7758C42.0135 53.8959 42.4242 54.0271 42.8719 54.1769C49.3783 56.3531 52.9709 58.665 54.5494 65.2646C55.5207 69.3242 54.643 84.8805 53.2635 88.0658C51.9199 91.168 42.6422 96.1705 39.8307 97.6297C39.6188 97.7394 39.3871 97.7941 39.1559 97.7941V97.7941ZM25.7014 86.466L31.0336 90.4568L36.3658 86.466H25.7014ZM21.0779 83.0059C21.6088 83.342 22.2377 83.5363 22.9111 83.5363H39.1559C39.8293 83.5363 40.458 83.342 40.9891 83.0059L41.423 82.681C42.1355 82.0553 42.5879 81.1402 42.5949 80.1217C42.5947 80.1064 42.5947 80.0912 42.5949 80.076C42.5832 78.1898 41.0449 76.6588 39.1561 76.6588C38.3215 76.6588 37.5162 76.9625 36.8885 77.5139C36.441 77.9072 35.8004 77.99 35.2676 77.7242C34.7348 77.4584 34.416 76.8965 34.4609 76.3027C34.4689 76.198 34.4727 76.1135 34.4727 76.0369C34.4727 74.1406 32.9301 72.598 31.0338 72.598C29.1375 72.598 27.5949 74.1406 27.5949 76.0369C27.5949 76.1139 27.5986 76.198 27.6066 76.3027C27.6516 76.8965 27.3328 77.4584 26.8 77.7242C26.267 77.9898 25.6264 77.907 25.1791 77.5139C24.5514 76.9625 23.7461 76.6588 22.9115 76.6588C21.0152 76.6588 19.4727 78.2014 19.4727 80.0977C19.4727 81.1264 19.9266 82.0508 20.6445 82.6814L21.0779 83.0059ZM44.4047 69.6728V69.6768C44.4047 69.6754 44.4047 69.6742 44.4047 69.6728ZM25.8227 48.5115C27.3924 49.3664 29.1568 49.8352 31.0336 49.8352C32.9104 49.8352 34.675 49.3664 36.2447 48.5113C36.4189 48.3367 36.6371 48.206 36.8811 48.1369C40.0309 46.1412 42.2893 42.5236 42.9164 38.0254C42.8906 33.9703 41.2301 32.6932 36.3178 30.9467C36.0531 30.8527 35.7842 30.758 35.5119 30.6621C30.568 28.9223 24.4152 26.7568 24.4152 21.1228C24.4152 20.3135 25.0711 19.658 25.8801 19.658C26.6891 19.658 27.3449 20.3135 27.3449 21.1228C27.3449 24.682 32.2006 26.391 36.4846 27.8984C36.7596 27.9951 37.0316 28.0908 37.299 28.1863C41.3312 29.6199 44.7646 31.2264 45.634 35.731C46.0727 35.0717 46.3883 34.1555 46.3883 33.3037C46.3883 31.4201 45.7973 31.0889 44.5551 31.0889C43.7461 31.0889 43.0902 30.4334 43.0902 29.624V27.8488C43.0902 21.2008 37.6816 15.7924 31.0336 15.7924C24.3855 15.7924 18.977 21.2008 18.977 27.8488V29.624C18.977 30.4334 18.3211 31.0889 17.5121 31.0889C16.2701 31.0889 15.6791 31.4201 15.6791 33.3037C15.6791 34.8264 16.9117 36.6578 17.6859 36.6578C18.4199 36.6578 19.0406 37.201 19.1379 37.9283C19.7459 42.4715 22.0145 46.1268 25.1863 48.1371C25.4303 48.206 25.6482 48.3369 25.8227 48.5115V48.5115ZM68.2344 91.4457C67.3189 91.4457 66.5742 90.701 66.5742 89.7855C66.5742 88.8701 67.3189 88.1254 68.2344 88.1254C69.15 88.1254 69.8945 88.8701 69.8945 89.7855C69.8945 90.701 69.1498 91.4457 68.2344 91.4457ZM68.2344 83.6332C67.3189 83.6332 66.5742 82.8885 66.5742 81.973C66.5742 81.0576 67.3189 80.3129 68.2344 80.3129C69.15 80.3129 69.8945 81.0576 69.8945 81.973C69.8945 82.8885 69.1498 83.6332 68.2344 83.6332ZM31.0336 47.3855C31.0334 47.3855 31.0336 47.3855 31.0336 47.3855C29.2646 47.3855 27.6117 46.6223 26.3789 45.2361C25.8414 44.6314 25.8955 43.7057 26.5002 43.168C27.1047 42.6305 28.0307 42.6846 28.5682 43.2891C29.2373 44.0416 30.1127 44.4559 31.0336 44.4559C31.9545 44.4559 32.8299 44.0416 33.499 43.2891C34.0367 42.6846 34.9627 42.6305 35.5672 43.168C36.1717 43.7057 36.226 44.6314 35.6883 45.2361C34.4555 46.6223 32.8023 47.3855 31.0336 47.3855ZM68.2344 39.5803C68.2342 39.5803 68.2344 39.5803 68.2344 39.5803C66.1191 39.5803 64.1404 38.665 62.6631 37.0041C62.1252 36.3996 62.1793 35.4736 62.784 34.9359C63.3889 34.3982 64.3145 34.4527 64.8521 35.057C65.7662 36.0848 66.9672 36.6506 68.2344 36.6506C69.5016 36.6506 70.7031 36.0848 71.617 35.057C72.1549 34.4527 73.0807 34.3982 73.685 34.9361C74.2895 35.4738 74.3437 36.3996 73.8061 37.0041C72.3283 38.6652 70.3494 39.5803 68.2344 39.5803V39.5803ZM36.6764 38.1457C35.5262 38.1457 34.376 37.7078 33.5004 36.832C32.9283 36.2598 32.9283 35.3324 33.5004 34.7605C34.0725 34.1885 35 34.1885 35.5719 34.7605C36.1809 35.3699 37.1717 35.3699 37.7807 34.7605C38.3527 34.1885 39.2803 34.1885 39.8521 34.7605C40.4242 35.3328 40.4242 36.2602 39.8521 36.832C38.9768 37.7078 37.8266 38.1457 36.6764 38.1457ZM25.3906 38.1457C24.2402 38.1457 23.0902 37.708 22.2146 36.832C21.6426 36.2598 21.6426 35.3324 22.2146 34.7605C22.7867 34.1885 23.7143 34.1885 24.2861 34.7605C24.8953 35.3701 25.8863 35.3695 26.4951 34.7605C27.0672 34.1885 27.9945 34.1883 28.5668 34.7607C29.1389 35.3328 29.1387 36.2603 28.5668 36.832C27.691 37.7078 26.5406 38.1457 25.3906 38.1457V38.1457ZM73.8773 28.81C72.6773 28.81 71.5496 28.3426 70.701 27.4943C70.1289 26.9221 70.1291 25.9945 70.7012 25.4228C71.2734 24.851 72.201 24.8508 72.7727 25.423C73.0676 25.7182 73.46 25.8807 73.877 25.8807C74.2939 25.8807 74.6863 25.7182 74.9811 25.423C75.5533 24.8508 76.4809 24.8506 77.0525 25.4228C77.6246 25.9949 77.6248 26.9225 77.0527 27.4943C76.2051 28.3428 75.077 28.81 73.8773 28.81ZM62.5914 28.81C61.3914 28.81 60.2637 28.3426 59.415 27.4943C58.843 26.9221 58.8432 25.9945 59.4154 25.4228C59.9875 24.851 60.915 24.8508 61.4867 25.423C61.7816 25.7182 62.1742 25.8807 62.591 25.8807C63.0078 25.8807 63.4004 25.7182 63.6951 25.423C64.2674 24.8508 65.1947 24.851 65.7668 25.4228C66.3389 25.9949 66.3389 26.9225 65.7668 27.4943C64.9191 28.3428 63.7912 28.81 62.5914 28.81V28.81Z" fill="#0D3B66"/>
</g>
<defs>
<clipPath id="clip0_602_753">
<rect width="100" height="100" fill="white" transform="translate(0.5)"/>
</clipPath>
</defs>
</svg>
