<svg width="4767" height="685" viewBox="0 0 4767 685" fill="none" xmlns="http://www.w3.org/2000/svg">
<path d="M670.579 0H461.474H245.159L0 670.579H216.316H425.422H645.342L890.5 0H670.579Z" fill="#29C782"/>
<path d="M1023.9 0L778.74 670.579H998.662L1027.5 576.842H1261.85L1290.69 670.579H1517.82L1272.66 0H1023.9ZM1070.77 425.421L1142.87 187.473H1146.48L1214.98 425.421H1070.77Z" fill="white"/>
<path d="M1899.97 144.211C1867.53 144.211 1838.68 151.421 1813.45 165.842C1788.21 180.263 1770.18 205.5 1759.37 234.342L1744.95 155.026H1586.32V670.579H1781V439.841C1781 400.184 1788.21 367.737 1806.24 346.106C1824.26 324.474 1853.11 313.657 1892.76 313.657H1954.05V151.42C1954.05 151.42 1946.84 147.816 1936.03 144.211C1925.21 144.211 1914.4 144.211 1899.97 144.211Z" fill="white"/>
<path d="M2635.44 155.026H2408.31L2246.08 353.315V0H2051.39V670.579H2246.08V558.816L2310.97 493.92L2419.13 670.579H2642.66L2444.37 364.132L2635.44 155.026Z" fill="white"/>
<path d="M2934.68 144.211C2844.55 144.211 2772.44 165.842 2721.97 212.71C2671.5 259.579 2646.26 324.474 2646.26 414.605C2646.26 504.737 2671.5 573.237 2725.58 616.5C2779.65 659.763 2851.76 685 2949.1 685C3039.23 685 3107.73 666.974 3158.21 630.921C3205.08 594.868 3230.31 548 3230.31 483.105H3042.84C3042.84 504.737 3035.63 522.763 3021.21 537.184C3006.79 551.605 2981.55 558.816 2949.1 558.816C2913.05 558.816 2887.81 547.999 2869.79 529.973C2851.76 511.947 2844.55 483.105 2844.55 447.052H3230.31V414.605C3230.31 324.474 3205.08 255.974 3154.6 212.71C3100.52 165.842 3028.42 144.211 2934.68 144.211ZM2840.94 353.315C2848.16 295.631 2880.6 266.789 2941.89 266.789C2970.73 266.789 2988.76 274 3006.79 288.421C3021.21 302.842 3028.42 324.473 3028.42 353.315H2840.94V353.315Z" fill="white"/>
<path d="M3709.82 360.53C3680.98 353.319 3641.32 342.503 3594.45 338.898C3558.4 331.687 3529.56 328.082 3515.14 320.872C3500.72 313.661 3489.9 306.45 3489.9 295.634C3489.9 274.003 3511.53 263.187 3558.4 263.187C3576.43 263.187 3590.85 266.793 3601.66 274.004C3619.69 281.214 3626.9 295.634 3626.9 313.661H3807.16C3807.16 255.976 3781.93 216.318 3735.06 187.476C3688.19 162.24 3630.51 147.819 3558.4 147.819C3482.69 147.819 3417.8 162.24 3370.93 187.476C3324.06 212.713 3298.82 259.582 3298.82 320.872C3298.82 360.529 3309.64 389.372 3331.27 411.003C3352.9 432.635 3378.14 447.055 3410.59 457.871C3439.43 468.687 3479.09 475.898 3525.95 483.108C3565.61 490.319 3590.85 497.529 3608.88 501.135C3626.9 508.345 3634.11 515.555 3634.11 529.976C3634.11 555.213 3608.88 569.634 3554.8 569.634C3533.16 569.634 3515.14 566.029 3497.11 555.214C3479.09 548.003 3468.27 529.977 3468.27 508.346V504.74H3288.01C3288.01 544.398 3302.43 580.45 3327.66 605.687C3352.9 630.924 3385.35 652.556 3425.01 663.372C3464.66 677.793 3507.93 681.398 3554.8 681.398C3634.11 681.398 3699.01 666.976 3745.87 638.134C3796.35 609.292 3817.98 562.424 3817.98 497.529C3817.98 457.871 3807.16 425.424 3785.53 403.792C3767.51 382.161 3738.66 367.74 3709.82 360.53Z" fill="white"/>
<path d="M4182.11 144.211C4091.97 144.211 4019.87 165.842 3969.4 212.71C3918.92 259.579 3893.68 324.474 3893.68 414.605C3893.68 504.737 3918.92 573.237 3973 616.5C4027.08 659.763 4099.18 685 4196.53 685C4286.66 685 4355.16 666.974 4405.63 630.921C4452.5 594.868 4477.74 548 4477.74 483.105H4290.26C4290.26 504.737 4283.05 522.763 4268.63 537.184C4254.21 551.605 4228.97 558.816 4196.53 558.816C4160.47 558.816 4135.24 547.999 4117.21 529.973C4099.19 511.947 4091.97 483.105 4091.97 447.052H4477.74V414.605C4477.74 324.474 4452.5 255.974 4402.03 212.71C4347.95 165.842 4275.84 144.211 4182.11 144.211ZM4084.76 353.315C4091.97 295.631 4124.42 266.789 4185.71 266.789C4214.55 266.789 4232.58 274 4250.61 288.421C4265.03 302.842 4272.24 324.473 4272.24 353.315H4084.76V353.315Z" fill="white"/>
<path d="M4766.15 0H4571.47V670.579H4766.15V0Z" fill="white"/>
</svg>
