<svg width="30" height="30" viewBox="0 0 30 30" fill="none" xmlns="http://www.w3.org/2000/svg">
<g clip-path="url(#clip0_661_543)">
<path d="M25.5488 26.3856L25.5488 26.3856C25.1401 26.7754 24.7377 27.1723 24.3627 27.6138L24.355 27.6229L24.3468 27.6316C23.6087 28.4209 22.7211 28.7969 21.6009 28.7969H21.5942C21.5037 28.7969 21.3886 28.7969 21.2771 28.7895M25.5488 26.3856L21.2771 28.7895M25.5488 26.3856L25.553 26.3815M25.5488 26.3856L25.553 26.3815M21.2771 28.7895C21.2768 28.7894 21.2766 28.7894 21.2764 28.7894L21.3096 28.2909L21.2777 28.7895C21.2775 28.7895 21.2773 28.7895 21.2771 28.7895ZM25.553 26.3815C25.5998 26.3357 25.6467 26.2902 25.6935 26.2447C25.9112 26.0331 26.1282 25.8221 26.3395 25.5947M25.553 26.3815L26.3395 25.5947M25.9761 25.2513L26.3349 25.5966C26.3327 25.5989 26.3305 25.6012 26.3283 25.6034L25.9761 25.2513ZM25.9761 25.2513L26.3409 25.5901C26.3506 25.5795 26.3601 25.5681 26.3694 25.556C26.4035 25.5113 26.4714 25.4061 26.4714 25.2537C26.4714 25.1698 26.4496 25.0636 26.3789 24.9642C26.3494 24.9226 26.3155 24.8883 26.2797 24.8603C26.203 24.9903 26.1018 25.1207 25.9761 25.2513ZM26.3395 25.5947C26.7137 25.2048 26.9609 24.7538 26.9597 24.2497C26.9585 23.7421 26.7059 23.295 26.3224 22.915C26.3222 22.9147 26.3219 22.9145 26.3216 22.9142L22.8346 19.4272L22.8345 19.4271L22.8345 19.4271L22.8345 19.427L22.8344 19.427L22.8344 19.427L22.8343 19.4269L22.8343 19.4269L22.8343 19.4269L22.8342 19.4268L22.8342 19.4268L22.8342 19.4268L22.8341 19.4267L22.8341 19.4267L22.8341 19.4267L22.834 19.4266L22.834 19.4266L22.834 19.4265L22.8339 19.4265L22.8339 19.4265L22.8339 19.4264L22.8338 19.4264L22.8338 19.4264L22.8338 19.4263L22.8337 19.4263L22.8337 19.4263L22.8337 19.4262L22.8336 19.4262L22.8336 19.4262L22.8336 19.4261L22.8335 19.4261L22.8335 19.4261L22.8335 19.426L22.8334 19.426L22.8334 19.426L22.8334 19.4259L22.8333 19.4259L22.8333 19.4259L22.8333 19.4258L22.8332 19.4258L22.8332 19.4258L22.8332 19.4258L22.8331 19.4257L22.8331 19.4257L22.8331 19.4257L22.833 19.4256L22.833 19.4256L22.833 19.4256L22.8329 19.4255L22.8329 19.4255L22.8329 19.4255L22.8329 19.4254L22.8328 19.4254L22.8328 19.4254L22.8328 19.4254L22.8327 19.4253L22.8327 19.4253L22.8327 19.4253L22.8326 19.4252L22.8326 19.4252L22.8326 19.4252L22.8326 19.4251L22.8325 19.4251L22.8325 19.4251L22.8325 19.4251L22.8324 19.425L22.8324 19.425L22.8324 19.425L22.8323 19.4249L22.8323 19.4249L22.8323 19.4249L22.8323 19.4249L22.8322 19.4248L22.8322 19.4248L22.8322 19.4248L22.8322 19.4247L22.8321 19.4247L22.8321 19.4247L22.8321 19.4247L22.832 19.4246L22.832 19.4246L22.832 19.4246L22.832 19.4246L22.8319 19.4245L22.8319 19.4245L22.8319 19.4245L22.8319 19.4244L22.8318 19.4244L22.8318 19.4244L22.8318 19.4244L22.8317 19.4243L22.8317 19.4243L22.8317 19.4243L22.8317 19.4243L22.8316 19.4242L22.8316 19.4242L22.8316 19.4242L22.8316 19.4242L22.8315 19.4241L22.8315 19.4241L22.8315 19.4241L22.8315 19.4241L22.8314 19.424L22.8314 19.424L22.8314 19.424L22.8314 19.424L22.8313 19.4239L22.8313 19.4239L22.8313 19.4239L22.8313 19.4239L22.8312 19.4238L22.8312 19.4238L22.8312 19.4238L22.8312 19.4238L22.8311 19.4237L22.8311 19.4237L22.8311 19.4237L22.8311 19.4237L22.831 19.4236L22.831 19.4236L22.831 19.4236L22.831 19.4236L22.8309 19.4235L22.8309 19.4235L22.8309 19.4235L22.8309 19.4235L22.8309 19.4234L22.8308 19.4234L22.8308 19.4234L22.8308 19.4234L22.8308 19.4234L22.8307 19.4233L22.8307 19.4233L22.8307 19.4233L22.8307 19.4233L22.8306 19.4232L22.8306 19.4232L22.8306 19.4232L22.8306 19.4232L22.8306 19.4231L22.8305 19.4231L22.8305 19.4231L22.8305 19.4231L22.8305 19.4231L22.8304 19.423L22.8304 19.423L22.8304 19.423L22.8304 19.423L22.8304 19.4229L22.8303 19.4229L22.8303 19.4229L22.8303 19.4229L22.8303 19.4229L22.8302 19.4228L22.8302 19.4228L22.8302 19.4228L22.8302 19.4228L22.8302 19.4228L22.8301 19.4227L22.8301 19.4227L22.8301 19.4227L22.8301 19.4227L22.8301 19.4226L22.83 19.4226L22.83 19.4226L22.83 19.4226L22.83 19.4226L22.83 19.4225L22.8299 19.4225L22.8299 19.4225L22.8299 19.4225L22.8299 19.4225L22.8298 19.4224L22.8298 19.4224L22.8298 19.4224L22.8298 19.4224L22.8298 19.4224L22.8297 19.4223L22.8297 19.4223L22.8297 19.4223L22.8297 19.4223L22.8297 19.4223L22.8296 19.4222L22.8296 19.4222L22.8296 19.4222L22.8296 19.4222L22.8296 19.4222L22.8295 19.4221L26.3395 25.5947ZM1.25901 7.89324L1.25916 7.89151C1.33249 7.0336 1.66841 6.30917 2.27757 5.70002L4.43668 3.54091L4.44226 3.53533L4.44801 3.52993C4.81548 3.18496 5.26108 2.94491 5.75265 2.94491C6.3522 2.94491 6.79692 3.30087 7.03063 3.53458L7.04014 3.54408L7.04368 3.54762C7.43723 3.91569 7.80978 4.29486 8.1949 4.6926C8.29141 4.79223 8.38973 4.89211 8.49047 4.99443L8.49337 4.99739C8.59186 5.09742 8.6926 5.19975 8.79355 5.30383L10.5194 7.02968C10.9025 7.41277 11.1692 7.85557 11.1692 8.36465C11.1692 8.87373 10.9025 9.31652 10.5194 9.69962C10.4624 9.75664 10.4039 9.8158 10.3445 9.87591C10.2234 9.99839 10.0984 10.1248 9.97393 10.2452C9.44516 10.7864 8.93381 11.2979 8.37603 11.7987L8.35396 11.8207C8.15696 12.0177 8.10035 12.1841 8.08553 12.3122C8.06927 12.4527 8.09786 12.5945 8.14681 12.7503L8.15499 12.7749L8.15891 12.7866C8.58273 13.8084 9.18161 14.7843 10.1099 15.9658L10.1135 15.9694L10.1298 15.9895C11.8484 18.1066 13.6514 19.7459 15.6314 20.998L15.6319 20.9984C15.8668 21.1473 16.1103 21.2695 16.3666 21.3976L16.3785 21.4036C16.5923 21.5105 16.819 21.6238 17.0187 21.7465C17.0285 21.7519 17.0371 21.7568 17.0441 21.761C17.0561 21.7682 17.0673 21.7752 17.0728 21.7786L17.0778 21.7817C17.2293 21.8562 17.3534 21.883 17.4726 21.883C17.7807 21.883 17.9826 21.6915 18.0815 21.5926L20.2469 19.4272C20.4846 19.1895 20.9501 18.8058 21.5566 18.8058C22.1503 18.8058 22.5942 19.1669 22.8295 19.4221L1.25901 7.89324ZM1.25901 7.89324C1.15609 9.1489 1.39342 10.4535 1.99784 12.072L1.25901 7.89324ZM23.3487 18.9304L23.3487 18.9304L23.3552 18.9369L26.8313 22.4257L26.8337 22.4281C27.3921 22.981 27.6606 23.6111 27.6606 24.2446C27.6606 24.8747 27.3958 25.5148 26.844 26.0888L26.843 26.0899C26.5782 26.367 26.3058 26.6333 26.0363 26.8903L26.0363 26.8902L26.0335 26.8929C26.003 26.9225 25.9724 26.9521 25.9417 26.9817C25.5794 27.332 25.2113 27.6878 24.8877 28.0799L24.881 28.088C24.8781 28.0912 24.8751 28.0947 24.872 28.0983C24.8685 28.1025 24.8648 28.107 24.8608 28.112C23.9999 29.0359 22.9132 29.5001 21.5946 29.5001C21.4828 29.5001 21.3566 29.4945 21.2236 29.4882C19.1532 29.3545 17.2828 28.574 15.8396 27.8901C12.0941 26.0793 8.81415 23.5094 6.08578 20.2517C3.82966 17.5392 2.3296 15.0235 1.32706 12.3191L1.32705 12.3191C0.915028 11.2079 0.403788 9.57192 0.545975 7.8373C0.637208 6.80893 1.04817 5.93125 1.77532 5.2041L1.77532 5.20411L1.77687 5.20255L3.92888 3.03155L3.93443 3.02599L3.93704 3.02339C4.48989 2.49412 5.11571 2.23535 5.73999 2.23535C6.36423 2.23535 6.9764 2.494 7.50939 3.02149L7.51557 3.02761L7.52197 3.03351C7.9217 3.4025 8.31159 3.79829 8.68944 4.18871C8.8841 4.39621 9.09041 4.60252 9.28392 4.79603L9.28676 4.79888L11.0153 6.52743C11.6024 7.11451 11.8661 7.75534 11.8661 8.36465C11.8661 8.97396 11.6024 9.61478 11.0153 10.2019C10.9251 10.2921 10.8352 10.3836 10.747 10.4733L10.7463 10.4741C10.6574 10.5646 10.5703 10.6532 10.4835 10.7401L10.4811 10.7424C10.4359 10.7882 10.3907 10.8341 10.3456 10.8799C9.91852 11.3132 9.48957 11.7485 9.0306 12.1683L8.76318 12.4129L8.91241 12.7431C9.32001 13.6452 9.87656 14.5223 10.6855 15.5448L10.6855 15.5448L10.6898 15.5502C12.3519 17.5924 14.0943 19.182 16.0205 20.4054L16.0205 20.4054L16.0249 20.4081C16.2282 20.5343 16.4608 20.6506 16.68 20.7602L16.6883 20.7644C16.746 20.7943 16.8017 20.8229 16.8565 20.851C16.9604 20.9043 17.0612 20.956 17.1659 21.0124L17.4929 21.1885L17.756 20.9263L19.7568 18.9318L19.7574 18.9312C20.319 18.3696 20.944 18.1026 21.5693 18.1026C22.1988 18.1026 22.8144 18.374 23.3487 18.9304Z" fill="#0D3B66" stroke="#0D3B66"/>
<path d="M16.2954 6.64301L16.2954 6.643L16.2927 6.64255C16.1107 6.61305 15.9794 6.43451 16.0147 6.23602C16.0488 6.04479 16.2287 5.9136 16.4286 5.94517C18.3317 6.26986 20.0668 7.17021 21.4436 8.54706C22.8205 9.9239 23.7208 11.659 24.0455 13.5621C24.0773 13.7629 23.9468 13.9399 23.7629 13.9735C23.7599 13.9739 23.757 13.9742 23.7544 13.9746C23.7362 13.9768 23.7253 13.9782 23.7134 13.9794C23.7009 13.9807 23.6945 13.9809 23.6904 13.9809C23.5152 13.9809 23.3696 13.8585 23.3415 13.6895L23.341 13.6871C23.0386 11.926 22.2109 10.3252 20.9351 9.0493C19.6601 7.77431 18.0591 6.9392 16.2954 6.64301Z" fill="#0D3B66" stroke="#0D3B66"/>
<path d="M29.4723 13.3177L29.4723 13.3177L29.4729 13.3213C29.506 13.507 29.3783 13.6838 29.1989 13.7136C29.1946 13.7141 29.1907 13.7146 29.1871 13.715C29.1689 13.7173 29.158 13.7187 29.1461 13.7199C29.1336 13.7212 29.1271 13.7214 29.123 13.7214C28.9479 13.7214 28.8023 13.599 28.7741 13.43L28.7739 13.4287C28.2562 10.3748 26.814 7.58979 24.6012 5.37701L24.6007 5.37648C22.389 3.17135 19.605 1.72267 16.5513 1.2046C16.3541 1.16934 16.2262 0.989921 16.2561 0.793377C16.2935 0.59493 16.4779 0.473415 16.6569 0.505287L16.6605 0.505919C19.8628 1.0519 22.7764 2.5604 25.0971 4.88109C27.4178 7.20178 28.9263 10.1154 29.4723 13.3177Z" fill="#0D3B66" stroke="#0D3B66"/>
</g>
<defs>
<clipPath id="clip0_661_543">
<rect width="30" height="30" fill="white"/>
</clipPath>
</defs>
</svg>
