<svg width="101" height="101" viewBox="0 0 101 101" fill="none" xmlns="http://www.w3.org/2000/svg">
<g clip-path="url(#clip0_602_919)">
<path d="M54.836 92.8457C54.6463 92.8454 54.4596 92.7991 54.2918 92.7108C54.1239 92.6224 53.9801 92.4947 53.8725 92.3385C53.7649 92.1823 53.6969 92.0023 53.6742 91.814C53.6515 91.6257 53.6749 91.4347 53.7423 91.2574L75.463 34.0613C75.5176 33.9174 75.6 33.7857 75.7056 33.6737C75.8111 33.5617 75.9377 33.4715 76.078 33.4084C76.2184 33.3453 76.3699 33.3104 76.5237 33.3058C76.6775 33.3013 76.8308 33.327 76.9747 33.3816C77.1186 33.4363 77.2503 33.5187 77.3623 33.6242C77.4743 33.7298 77.5645 33.8564 77.6276 33.9967C77.6907 34.1371 77.7256 34.2885 77.7302 34.4424C77.7347 34.5962 77.709 34.7495 77.6544 34.8934L55.9297 92.0898C55.8455 92.3118 55.6958 92.5029 55.5004 92.6379C55.3051 92.7729 55.0734 92.8453 54.836 92.8457V92.8457Z" fill="#0D3B66"/>
<path d="M80.1242 26.2609C79.9345 26.2607 79.7478 26.2144 79.58 26.126C79.4121 26.0377 79.2683 25.9099 79.1607 25.7537C79.0531 25.5975 78.9851 25.4175 78.9624 25.2292C78.9397 25.0409 78.9631 24.8499 79.0305 24.6727L82.4355 15.7066C82.4893 15.5616 82.5713 15.4287 82.6766 15.3155C82.782 15.2023 82.9088 15.1111 83.0496 15.0471C83.1904 14.9831 83.3425 14.9477 83.4971 14.9428C83.6517 14.9379 83.8057 14.9636 83.9503 15.0185C84.0949 15.0734 84.2272 15.1564 84.3396 15.2627C84.452 15.369 84.5422 15.4964 84.605 15.6378C84.6679 15.7791 84.7022 15.9314 84.7058 16.0861C84.7095 16.2407 84.6826 16.3945 84.6266 16.5387L81.2215 25.5047C81.137 25.7273 80.9868 25.9189 80.7908 26.054C80.5948 26.1891 80.3623 26.2613 80.1242 26.2609V26.2609Z" fill="#0D3B66"/>
<path d="M74.289 21.6504C74.0109 21.6501 73.7419 21.5508 73.5303 21.3704C73.3186 21.19 73.178 20.9402 73.1336 20.6656L71.6757 11.6691C71.626 11.3623 71.7002 11.0483 71.882 10.7962C72.0638 10.5441 72.3383 10.3745 72.6451 10.3248C72.9519 10.2751 73.2659 10.3493 73.518 10.5311C73.7701 10.7128 73.9397 10.9873 73.9894 11.2941L75.4472 20.2906C75.4718 20.4425 75.4663 20.5978 75.4309 20.7476C75.3954 20.8974 75.3309 21.0387 75.2408 21.1635C75.1508 21.2883 75.0371 21.3942 74.9061 21.475C74.7752 21.5559 74.6296 21.6102 74.4777 21.6348C74.4153 21.6452 74.3522 21.6504 74.289 21.6504V21.6504Z" fill="#0D3B66"/>
<path d="M70.2114 27.8668C70.0375 27.8671 69.8657 27.8287 69.7084 27.7544C69.5512 27.6801 69.4125 27.5717 69.3024 27.4371L63.2403 20.0035C63.0438 19.7626 62.9511 19.4536 62.9826 19.1444C63.014 18.8352 63.167 18.5511 63.4078 18.3547C63.6487 18.1583 63.9577 18.0656 64.267 18.097C64.5762 18.1284 64.8602 18.2814 65.0567 18.5223L71.1188 25.9543C71.2593 26.126 71.3482 26.3341 71.3751 26.5544C71.402 26.7746 71.3658 26.998 71.2708 27.1985C71.1757 27.399 71.0257 27.5684 70.8382 27.687C70.6506 27.8056 70.4333 27.8685 70.2114 27.8684V27.8668Z" fill="#0D3B66"/>
<path d="M63.3008 30.6145C63.1586 30.6139 63.0176 30.5874 62.8848 30.5363L54.3649 27.3008C54.0743 27.1905 53.8394 26.9693 53.7119 26.6858C53.5844 26.4024 53.5747 26.0799 53.685 25.7893C53.7953 25.4987 54.0165 25.2638 54.3 25.1363C54.5834 25.0088 54.9059 24.9991 55.1965 25.1094L63.7169 28.3453C63.9735 28.4424 64.1879 28.6264 64.3228 28.8653C64.4577 29.1043 64.5044 29.383 64.4549 29.6528C64.4054 29.9227 64.2628 30.1667 64.0519 30.3422C63.841 30.5177 63.5752 30.6136 63.3008 30.6133V30.6145Z" fill="#0D3B66"/>
<path d="M57.1758 38.7895C56.8816 38.7889 56.5983 38.6776 56.3824 38.4778C56.1664 38.2779 56.0335 38.0042 56.0101 37.7109C55.9866 37.4176 56.0744 37.1262 56.2559 36.8946C56.4375 36.663 56.6995 36.5082 56.9899 36.4609L66.4571 34.927C66.609 34.9023 66.7643 34.9079 66.9141 34.9433C67.0638 34.9786 67.2052 35.0432 67.33 35.1332C67.4548 35.2232 67.5607 35.3369 67.6416 35.4679C67.7225 35.5988 67.7768 35.7444 67.8014 35.8963C67.826 36.0482 67.8205 36.2035 67.7851 36.3533C67.7497 36.503 67.6852 36.6444 67.5952 36.7692C67.5052 36.894 67.3914 36.9999 67.2605 37.0808C67.1296 37.1617 66.984 37.216 66.8321 37.2406L57.3649 38.7742C57.3024 38.7845 57.2392 38.7896 57.1758 38.7895Z" fill="#0D3B66"/>
<path d="M58.5078 50.3738C58.2658 50.3742 58.0296 50.2995 57.8317 50.1602C57.6338 50.0209 57.4838 49.8237 57.4025 49.5958C57.3212 49.3678 57.3124 49.1203 57.3774 48.8871C57.4425 48.654 57.5781 48.4467 57.7657 48.2937L64.8278 42.5332C65.0686 42.3368 65.3777 42.2441 65.6869 42.2755C65.9961 42.3069 66.2802 42.4599 66.4766 42.7008C66.673 42.9416 66.7657 43.2507 66.7343 43.5599C66.7029 43.8691 66.5499 44.1532 66.309 44.3496L59.2473 50.1094C59.0388 50.2804 58.7775 50.3739 58.5078 50.3738V50.3738Z" fill="#0D3B66"/>
<path d="M80.2828 58.6453C80.0046 58.645 79.7357 58.5458 79.524 58.3653C79.3123 58.1849 79.1717 57.9351 79.1273 57.6605L77.6699 48.6641C77.6202 48.3573 77.6944 48.0433 77.8761 47.7911C78.0579 47.539 78.3324 47.3695 78.6392 47.3197C78.946 47.27 79.26 47.3442 79.5121 47.526C79.7643 47.7078 79.9338 47.9823 79.9836 48.2891L81.441 57.2859C81.4907 57.5927 81.4165 57.9066 81.2348 58.1587C81.053 58.4108 80.7786 58.5803 80.4718 58.6301C80.4093 58.6401 80.3461 58.6452 80.2828 58.6453V58.6453Z" fill="#0D3B66"/>
<path d="M88.9692 50.8641C88.7953 50.8645 88.6235 50.8261 88.4664 50.7518C88.3092 50.6775 88.1706 50.569 88.0606 50.4344L81.9985 43C81.8986 42.8811 81.8233 42.7435 81.777 42.5952C81.7308 42.4469 81.7145 42.2909 81.729 42.1363C81.7436 41.9817 81.7888 41.8315 81.8619 41.6944C81.935 41.5574 82.0347 41.4363 82.1551 41.3381C82.2754 41.24 82.4141 41.1667 82.563 41.1226C82.7119 41.0785 82.8681 41.0644 83.0226 41.0812C83.177 41.098 83.3265 41.1454 83.4624 41.2205C83.5984 41.2956 83.7181 41.397 83.8145 41.5187L89.875 48.9516C90.0156 49.1233 90.1045 49.3314 90.1314 49.5516C90.1583 49.7719 90.1221 49.9953 90.027 50.1958C89.932 50.3963 89.782 50.5657 89.5944 50.6842C89.4069 50.8028 89.1895 50.8657 88.9676 50.8656L88.9692 50.8641Z" fill="#0D3B66"/>
<path d="M98.3359 43.9211C98.1938 43.9205 98.053 43.894 97.9203 43.843L89.4 40.607C89.1094 40.4966 88.8746 40.2754 88.7472 39.9919C88.6199 39.7084 88.6103 39.3859 88.7207 39.0953C88.8311 38.8048 89.0524 38.57 89.3359 38.4426C89.6194 38.3152 89.9419 38.3056 90.2324 38.416L98.7523 41.652C99.009 41.749 99.2235 41.9331 99.3583 42.1721C99.4932 42.411 99.5399 42.6898 99.4904 42.9597C99.4408 43.2296 99.2981 43.4735 99.0872 43.649C98.8762 43.8245 98.6103 43.9204 98.3359 43.9199V43.9211Z" fill="#0D3B66"/>
<path d="M86.4711 34.0434C86.1764 34.0435 85.8925 33.9325 85.6759 33.7327C85.4594 33.5328 85.3261 33.2587 85.3026 32.9649C85.2791 32.6712 85.3671 32.3794 85.5491 32.1476C85.7312 31.9159 85.9938 31.7612 86.2848 31.7145L95.7524 30.1805C96.0592 30.1307 96.3732 30.2049 96.6253 30.3867C96.8774 30.5685 97.047 30.843 97.0967 31.1498C97.1464 31.4566 97.0722 31.7706 96.8904 32.0227C96.7087 32.2748 96.4342 32.4444 96.1274 32.4941L86.6598 34.0281C86.5974 34.0382 86.5343 34.0433 86.4711 34.0434V34.0434Z" fill="#0D3B66"/>
<path d="M87.5489 26.6855C87.3068 26.6859 87.0706 26.6113 86.8727 26.4719C86.6748 26.3326 86.5249 26.1354 86.4435 25.9075C86.3622 25.6795 86.3534 25.432 86.4184 25.1988C86.4835 24.9657 86.6191 24.7584 86.8067 24.6055L93.8692 18.8449C93.9881 18.745 94.1257 18.6698 94.274 18.6235C94.4222 18.5773 94.5782 18.5609 94.7329 18.5755C94.8875 18.5901 95.0377 18.6352 95.1747 18.7084C95.3117 18.7815 95.4329 18.8812 95.531 19.0015C95.6292 19.1219 95.7025 19.2605 95.7466 19.4095C95.7907 19.5584 95.8047 19.7146 95.7879 19.869C95.7711 20.0234 95.7238 20.1729 95.6487 20.3089C95.5736 20.4449 95.4722 20.5645 95.3504 20.6609L88.2879 26.4215C88.0795 26.5922 87.8183 26.6855 87.5489 26.6855V26.6855Z" fill="#0D3B66"/>
<path d="M43.9535 5.97773C43.6427 5.97773 43.3446 5.85427 43.1249 5.6345C42.9051 5.41473 42.7816 5.11666 42.7816 4.80586V1.67188C42.7816 1.36107 42.9051 1.063 43.1249 0.843234C43.3446 0.623465 43.6427 0.5 43.9535 0.5C44.2643 0.5 44.5624 0.623465 44.7821 0.843234C45.0019 1.063 45.1254 1.36107 45.1254 1.67188V4.80586C45.1254 5.11666 45.0019 5.41473 44.7821 5.6345C44.5624 5.85427 44.2643 5.97773 43.9535 5.97773V5.97773Z" fill="#0D3B66"/>
<path d="M40.659 9.27227H37.525C37.2142 9.27227 36.9162 9.1488 36.6964 8.92903C36.4766 8.70926 36.3531 8.41119 36.3531 8.10039C36.3531 7.78959 36.4766 7.49152 36.6964 7.27175C36.9162 7.05198 37.2142 6.92852 37.525 6.92852H40.659C40.9698 6.92852 41.2679 7.05198 41.4877 7.27175C41.7074 7.49152 41.8309 7.78959 41.8309 8.10039C41.8309 8.41119 41.7074 8.70926 41.4877 8.92903C41.2679 9.1488 40.9698 9.27227 40.659 9.27227V9.27227Z" fill="#0D3B66"/>
<path d="M43.9535 15.7004C43.6427 15.7004 43.3446 15.5769 43.1249 15.3572C42.9051 15.1374 42.7816 14.8393 42.7816 14.5285V11.3945C42.7816 11.0837 42.9051 10.7857 43.1249 10.5659C43.3446 10.3461 43.6427 10.2227 43.9535 10.2227C44.2643 10.2227 44.5624 10.3461 44.7821 10.5659C45.0019 10.7857 45.1254 11.0837 45.1254 11.3945V14.5285C45.1254 14.8393 45.0019 15.1374 44.7821 15.3572C44.5624 15.5769 44.2643 15.7004 43.9535 15.7004V15.7004Z" fill="#0D3B66"/>
<path d="M50.3828 9.27227H47.2488C46.938 9.27227 46.6399 9.1488 46.4201 8.92903C46.2004 8.70926 46.0769 8.41119 46.0769 8.10039C46.0769 7.78959 46.2004 7.49152 46.4201 7.27175C46.6399 7.05198 46.938 6.92852 47.2488 6.92852H50.3828C50.6936 6.92852 50.9916 7.05198 51.2114 7.27175C51.4312 7.49152 51.5546 7.78959 51.5546 8.10039C51.5546 8.41119 51.4312 8.70926 51.2114 8.92903C50.9916 9.1488 50.6936 9.27227 50.3828 9.27227Z" fill="#0D3B66"/>
<path d="M88.1785 66.9492C87.8677 66.9492 87.5696 66.8258 87.3498 66.606C87.1301 66.3862 87.0066 66.0881 87.0066 65.7773V62.6434C87.0066 62.3326 87.1301 62.0345 87.3498 61.8147C87.5696 61.5949 87.8677 61.4715 88.1785 61.4715C88.4893 61.4715 88.7873 61.5949 89.0071 61.8147C89.2269 62.0345 89.3503 62.3326 89.3503 62.6434V65.7773C89.3503 66.0881 89.2269 66.3862 89.0071 66.606C88.7873 66.8258 88.4893 66.9492 88.1785 66.9492V66.9492Z" fill="#0D3B66"/>
<path d="M84.884 70.2434H81.75C81.4392 70.2434 81.1411 70.1199 80.9214 69.9001C80.7016 69.6804 80.5781 69.3823 80.5781 69.0715C80.5781 68.7607 80.7016 68.4626 80.9214 68.2428C81.1411 68.0231 81.4392 67.8996 81.75 67.8996H84.884C85.1948 67.8996 85.4929 68.0231 85.7126 68.2428C85.9324 68.4626 86.0559 68.7607 86.0559 69.0715C86.0559 69.3823 85.9324 69.6804 85.7126 69.9001C85.4929 70.1199 85.1948 70.2434 84.884 70.2434Z" fill="#0D3B66"/>
<path d="M88.1785 76.6719C87.8677 76.6719 87.5696 76.5484 87.3498 76.3286C87.1301 76.1089 87.0066 75.8108 87.0066 75.5V72.366C87.0066 72.0552 87.1301 71.7571 87.3498 71.5374C87.5696 71.3176 87.8677 71.1941 88.1785 71.1941C88.4893 71.1941 88.7873 71.3176 89.0071 71.5374C89.2269 71.7571 89.3503 72.0552 89.3503 72.366V75.5C89.3503 75.8108 89.2269 76.1089 89.0071 76.3286C88.7873 76.5484 88.4893 76.6719 88.1785 76.6719V76.6719Z" fill="#0D3B66"/>
<path d="M94.6066 70.2434H91.4727C91.1619 70.2434 90.8638 70.1199 90.644 69.9001C90.4242 69.6804 90.3008 69.3823 90.3008 69.0715C90.3008 68.7607 90.4242 68.4626 90.644 68.2428C90.8638 68.0231 91.1619 67.8996 91.4727 67.8996H94.6066C94.9174 67.8996 95.2155 68.0231 95.4353 68.2428C95.655 68.4626 95.7785 68.7607 95.7785 69.0715C95.7785 69.3823 95.655 69.6804 95.4353 69.9001C95.2155 70.1199 94.9174 70.2434 94.6066 70.2434Z" fill="#0D3B66"/>
<g clip-path="url(#clip1_602_919)">
<path d="M26.8673 66.0362C26.8656 66.0344 26.8638 66.0327 26.8621 66.0309L23.6622 62.831C23.3089 62.4778 22.736 62.4778 22.3826 62.831L19.8226 65.3911C16.5388 68.6654 12.5881 71.1936 8.23926 72.8035C4.58396 74.1561 1.26315 76.2805 -1.49704 79.0323L-1.93323 79.4684L-0.653635 80.748L-0.217452 80.3119C2.14672 77.9588 4.95272 76.0963 8.03927 74.8315V80.1082C8.03734 80.5779 8.39502 80.9709 8.86277 81.0132L14.8997 81.5625C13.6337 84.686 11.757 87.5254 9.37949 89.9142L8.94331 90.3504L10.2229 91.63L10.6591 91.1938C13.4106 88.4342 15.535 85.1139 16.8878 81.4593C18.4977 77.1105 21.0259 73.1597 24.3002 69.876L26.8603 67.3159C27.2156 66.9645 27.2188 66.3915 26.8673 66.0362ZM15.5992 79.8006L9.84916 79.2775V74.1094C10.6292 73.7935 11.3993 73.4542 12.155 73.0795L16.6136 77.5382C16.2453 78.2812 15.9114 79.0386 15.5992 79.8006ZM17.5032 75.8686L13.8246 72.19C16.2237 70.8348 18.4497 69.1939 20.4542 67.3033L22.3917 69.2408C20.5006 71.2445 18.8591 73.47 17.5032 75.8686ZM23.6622 67.9503L21.7428 66.0309L23.0224 64.7504L24.9427 66.6707L23.6622 67.9503Z" fill="#0D3B66"/>
<path d="M50.9282 43.2896L46.4035 38.7649C46.0501 38.4117 45.4772 38.4117 45.1239 38.7649L43.314 40.5748C42.9607 40.9282 42.9607 41.501 43.314 41.8544L43.5791 42.1196L41.5041 44.1946C41.1508 44.548 41.1508 45.1208 41.5041 45.4742L44.2189 48.189C44.5723 48.5423 45.1451 48.5423 45.4985 48.189L47.5736 46.114L47.8387 46.3791C48.1921 46.7324 48.7649 46.7324 49.1183 46.3791L50.9282 44.5692C51.2815 44.2159 51.2815 43.643 50.9282 43.2896ZM48.4785 44.4597L48.2133 44.1946C47.86 43.8413 47.2871 43.8413 46.9338 44.1946L44.8587 46.2696L43.4235 44.8344L45.4985 42.7594C45.8518 42.406 45.8518 41.8331 45.4985 41.4798L45.2334 41.2146L45.7637 40.6843L49.0088 43.9294L48.4785 44.4597Z" fill="#0D3B66"/>
<path d="M38.7104 58.2212C37.1078 56.6189 34.5097 56.6189 32.9071 58.2212L27.9299 63.1984L29.2095 64.478L34.1867 59.5008C35.0828 58.6045 36.536 58.6043 37.4323 59.5004C38.3287 60.3965 38.3289 61.8496 37.4328 62.746C36.5366 63.6423 35.0835 63.6425 34.1872 62.7464C34.1871 62.7463 34.1869 62.7462 34.1867 62.746L33.7342 62.2935L32.4547 63.5731L32.9071 64.0256C34.5099 65.6281 37.1084 65.6279 38.711 64.0251C40.3135 62.4223 40.3133 59.8238 38.7104 58.2212Z" fill="#0D3B66"/>
<path d="M31.4714 50.9822C29.8687 49.3797 27.2701 49.3799 25.6676 50.9827C24.0652 52.5854 24.0652 55.1835 25.6676 56.786L26.12 57.2385L27.3996 55.9589L26.9472 55.5064C26.0508 54.6103 26.0506 53.1572 26.9467 52.2608C27.8428 51.3645 29.2959 51.3642 30.1923 52.2604C31.0886 53.1565 31.0889 54.6096 30.1927 55.506C30.1926 55.5061 30.1925 55.5062 30.1923 55.5064L25.2151 60.4836L26.4947 61.7632L31.4719 56.786C33.0744 55.1832 33.0742 52.5848 31.4714 50.9822Z" fill="#0D3B66"/>
<path d="M44.5935 51.4342C43.2406 50.0813 41.0471 50.0813 39.6942 51.4342L37.8843 53.244L39.1639 54.5236L40.9738 52.7137C41.6339 52.0814 42.6816 52.1039 43.3139 52.7641C43.9272 53.4042 43.9272 54.4138 43.3139 55.0539L42.409 55.9589L43.6886 57.2385L44.5935 56.3335C45.9464 54.9806 45.9464 52.7872 44.5935 51.4342Z" fill="#0D3B66"/>
<path d="M38.2589 45.0995C36.906 43.7466 34.7124 43.7466 33.3595 45.0995L32.4546 46.0045L33.7342 47.2841L34.6391 46.3791C35.2993 45.7468 36.347 45.7693 36.9793 46.4295C37.5925 47.0696 37.5925 48.0792 36.9793 48.7193L35.1694 50.5292L36.449 51.8088L38.2589 49.9989C39.6118 48.646 39.6118 46.4525 38.2589 45.0995Z" fill="#0D3B66"/>
</g>
</g>
<defs>
<clipPath id="clip0_602_919">
<rect width="100" height="100" fill="white" transform="translate(0.5 0.5)"/>
</clipPath>
<clipPath id="clip1_602_919">
<rect width="53.13" height="53.13" fill="white" transform="translate(-1.93506 38.5)"/>
</clipPath>
</defs>
</svg>
