<svg width="101" height="101" viewBox="0 0 101 101" fill="none" xmlns="http://www.w3.org/2000/svg">
<g clip-path="url(#clip0_602_852)">
<path d="M97.0821 2.86191H94.0882C92.2448 2.86191 90.7505 4.29764 90.6733 6.13551L86.9265 59.8114C86.9252 59.8292 86.9242 59.847 86.9236 59.8646C86.8972 60.6583 86.2541 61.2804 85.4597 61.2804H83.7385V50.983C83.7385 47.4829 80.891 44.6354 77.3909 44.6354H74.7157V39.5732C77.7573 38.9015 80.0399 36.1857 80.0399 32.9452V24.1394C80.0399 22.5779 78.7694 21.3074 77.2079 21.3074H69.2939C67.7324 21.3074 66.4619 22.5779 66.4619 24.1394V32.9452C66.4619 36.1857 68.7445 38.9015 71.7861 39.5732V44.6354H66.5129C65.7037 44.6354 65.0481 45.2911 65.0481 46.1003C65.0481 46.9094 65.7037 47.5651 66.5129 47.5651C69.1709 47.5651 74.8138 47.5657 77.3909 47.5651C79.2754 47.5651 80.8088 49.0985 80.8088 50.983V68.4069C79.4079 68.2502 78.5389 67.8674 77.5684 67.4403C76.195 66.8356 74.6384 66.1504 71.6824 66.1504C68.7265 66.1504 67.1699 66.8358 65.7967 67.4403C64.5274 67.999 63.4313 68.4819 61.0917 68.4819C58.752 68.4819 57.6558 67.999 56.3864 67.4403C55.0132 66.8356 53.4566 66.1504 50.5006 66.1504C47.5444 66.1504 45.9879 66.8358 44.6143 67.4403C43.345 67.999 42.2487 68.4819 39.9089 68.4819C38.7191 68.4819 37.7488 68.3561 36.8556 68.0862C36.0812 67.8535 35.264 68.2902 35.0295 69.0647C34.7955 69.8391 35.2336 70.6566 36.008 70.8908C37.1839 71.2461 38.4236 71.4117 39.9089 71.4117C42.8649 71.4117 44.4214 70.7264 45.795 70.1219C47.0643 69.5631 48.1608 69.0803 50.5006 69.0803C52.8402 69.0803 53.9365 69.5631 55.2058 70.1219C56.579 70.7265 58.1356 71.4117 61.0917 71.4117C64.0475 71.4117 65.6041 70.7264 66.9773 70.1219C68.2467 69.5631 69.3427 69.0803 71.6824 69.0803C74.022 69.0803 75.1185 69.5631 76.3878 70.1219C77.5141 70.6178 78.7651 71.1672 80.8088 71.349V77.7483C79.4069 77.5919 78.5458 77.2126 77.5682 76.7823C76.195 76.1775 74.6384 75.4923 71.6824 75.4923C68.7263 75.4923 67.1699 76.1777 65.7967 76.7823C64.5274 77.3411 63.4311 77.8239 61.0917 77.8239C58.752 77.8239 57.6558 77.3411 56.3864 76.7823C55.0132 76.1775 53.4566 75.4923 50.5006 75.4923C47.5444 75.4923 45.9879 76.1777 44.6143 76.7823C43.345 77.3411 42.2487 77.8239 39.9089 77.8239C37.5691 77.8239 36.4728 77.3411 35.2033 76.7823C33.8299 76.1775 32.2731 75.4923 29.3168 75.4923C26.3606 75.4923 24.8042 76.1777 23.4306 76.7823C22.4529 77.2126 21.5915 77.5921 20.1896 77.7483V71.3488C22.2335 71.167 23.4847 70.6176 24.6112 70.1217C25.8808 69.5629 26.977 69.0801 29.3168 69.0801C29.4958 69.0801 29.668 69.083 29.8342 69.0887C30.6436 69.1227 31.3201 68.4824 31.3473 67.6737C31.3744 66.8651 30.7411 66.1879 29.9323 66.1606C29.7346 66.1541 29.5295 66.1504 29.3168 66.1504C26.3606 66.1504 24.8042 66.8358 23.4308 67.4403C22.4601 67.8676 21.5908 68.2502 20.1896 68.4069V50.983C20.1896 49.0985 21.723 47.5651 23.6075 47.5651H59.637C60.4462 47.5651 61.1018 46.9094 61.1018 46.1003C61.1018 45.2911 60.4462 44.6354 59.637 44.6354H55.1581V33.4278C55.1581 32.0815 54.063 30.9864 52.7168 30.9864H51.9642V27.8239C54.1158 27.1989 55.6911 25.2355 55.6911 22.9148C55.6911 21.4515 54.516 19.1092 52.1986 15.9528C51.8039 15.4149 51.1687 15.094 50.4994 15.094C49.8301 15.094 49.1947 15.4151 48.8002 15.9526C46.4829 19.1092 45.3077 21.4515 45.3077 22.9148C45.3077 25.2355 46.883 27.1989 49.0346 27.8239V30.9866H48.2817C46.9354 30.9866 45.8403 32.0817 45.8403 33.428V44.6356H31.166V39.5734C34.2076 38.9017 36.4902 36.1859 36.4902 32.9453V24.1396C36.4902 22.5781 35.2197 21.3076 33.6582 21.3076H25.7442C24.1827 21.3076 22.9122 22.5781 22.9122 24.1396V32.9453C22.9122 36.1859 25.1948 38.9017 28.2364 39.5734V44.6356H23.6081C20.108 44.6356 17.2605 47.4831 17.2605 50.9832V61.2806H15.5403C14.7459 61.2806 14.103 60.6585 14.0764 59.8648C14.0758 59.847 14.0748 59.8292 14.0735 59.8116L11.7397 26.3798C11.6835 25.5728 10.9831 24.9622 10.1764 25.0206C9.36943 25.0769 8.76084 25.7769 8.81728 26.5839L11.1493 59.9915C11.2432 62.3595 13.1665 64.2102 15.5401 64.2102H17.2603V69.9469V78.4335C17.2603 79.0612 17.5219 79.6688 17.9781 80.1007C18.4351 80.5337 19.056 80.7639 19.6879 80.7278C22.0314 80.5993 23.4021 79.9958 24.6114 79.4632C25.4368 79.0999 26.1913 78.7696 27.2598 78.5823V87.0365H3.42965V6.27984C3.42965 6.01051 3.6486 5.79157 3.91793 5.79157H6.91184C7.17648 5.79157 7.39093 5.99899 7.39972 6.26363C7.40031 6.28141 7.40129 6.29898 7.40265 6.31656L8.34288 19.7889C8.39912 20.5961 9.10146 21.2082 9.90614 21.148C10.7132 21.0918 11.3217 20.392 11.2653 19.5848L10.3266 6.1357C10.2495 4.29744 8.75518 2.86191 6.91184 2.86191H3.91793C2.03338 2.86191 0.5 4.39529 0.5 6.27984V88.5013C0.5 89.3105 1.15566 89.9662 1.96483 89.9662H4.74292V95.6966C4.74292 97.0428 5.83802 98.1379 7.1843 98.1379H11.0905C12.4368 98.1379 13.5319 97.0428 13.5319 95.6966V89.9662H27.2598V95.6966C27.2598 97.0428 28.3549 98.1379 29.7012 98.1379H33.6074C34.9537 98.1379 36.0488 97.0428 36.0488 95.6966V80.2436C37.0396 80.5385 38.255 80.7532 39.9093 80.7532C42.8653 80.7532 44.4217 80.0678 45.7954 79.4632C47.0649 78.9044 48.1612 78.4216 50.501 78.4216C52.8406 78.4216 53.9369 78.9044 55.2062 79.4632C56.5794 80.068 58.136 80.7532 61.0921 80.7532C62.7452 80.7532 63.96 80.5387 64.9504 80.244V95.6966C64.9504 97.0428 66.0455 98.1379 67.3918 98.1379H71.298C72.6443 98.1379 73.7394 97.0428 73.7394 95.6966V89.966H77.1969C78.0061 89.966 78.6618 89.3103 78.6618 88.5011C78.6618 87.692 78.0061 87.0363 77.1969 87.0363H73.7394V78.5821C74.8079 78.7692 75.5624 79.0995 76.388 79.463C77.5973 79.9956 78.968 80.5989 81.3117 80.7278C81.9408 80.7589 82.5639 80.5337 83.0211 80.1005C83.4773 79.6686 83.7389 79.061 83.7389 78.4333V69.9467V64.2102H85.4601C87.8335 64.2102 89.7566 62.3597 89.8509 59.9917L93.5977 6.31676C93.5991 6.29898 93.6001 6.28141 93.6007 6.26383C93.6094 5.99918 93.8239 5.79176 94.0885 5.79176H97.0825C97.3518 5.79176 97.5707 6.01071 97.5707 6.28004V87.0367L84.0164 87.0365C83.2074 87.0365 82.5516 87.6924 82.5516 88.5013C82.5516 89.3103 83.2072 89.9662 84.0164 89.9662H87.4687V95.6968C87.4687 97.043 88.5638 98.1381 89.9101 98.1381H93.8163C95.1626 98.1381 96.2577 97.043 96.2577 95.6968V89.9664H99.0357C99.4242 89.9664 99.7967 89.8121 100.072 89.5375C100.346 89.2627 100.501 88.8902 100.501 88.5015V6.27984C100.5 4.39529 98.9666 2.86191 97.0821 2.86191V2.86191ZM77.11 24.2374V27.3175H69.3914V24.2374H77.11ZM69.3916 32.9455V30.2471H77.1102V32.9455C77.1102 35.0736 75.379 36.8049 73.2509 36.8049C71.1228 36.8049 69.3916 35.0734 69.3916 32.9455ZM48.2373 22.9148C48.2373 22.5285 48.7289 21.1638 50.4994 18.6131C52.2697 21.1638 52.7615 22.5287 52.7615 22.9148C52.7615 24.1214 51.7469 25.1031 50.4994 25.1031C49.252 25.1031 48.2373 24.1214 48.2373 22.9148V22.9148ZM33.5604 24.2374V27.3175H25.8417V24.2374H33.5604ZM25.8419 32.9455V30.2471H33.5605V32.9455C33.5605 35.0736 31.8293 36.8049 29.7012 36.8049C27.5731 36.8049 25.8419 35.0734 25.8419 32.9455V32.9455ZM48.7699 33.9162H52.2291V44.6356H48.7699V33.9162ZM10.6022 95.2085H7.67257V89.9664H10.6022V95.2085ZM30.1895 95.2085V78.4472C31.4635 78.5233 32.3246 78.7675 33.1191 79.08V95.2085H30.1895ZM67.8797 95.2085V79.0806C68.6742 78.7679 69.5355 78.5235 70.8093 78.4472V95.2085H67.8797ZM93.3274 95.2085H90.3978V89.9664H93.3274V95.2085Z" fill="#0D3B66"/>
</g>
<defs>
<clipPath id="clip0_602_852">
<rect width="100" height="100" fill="white" transform="translate(0.5 0.5)"/>
</clipPath>
</defs>
</svg>
