<svg width="101" height="101" viewBox="0 0 101 101" fill="none" xmlns="http://www.w3.org/2000/svg">
<g clip-path="url(#clip0_602_856)">
<mask id="mask0_602_856" style="mask-type:luminance" maskUnits="userSpaceOnUse" x="0" y="0" width="101" height="101">
<path d="M0.5 0.500008H100.5V100.5H0.5V0.500008Z" fill="white"/>
</mask>
<g mask="url(#mask0_602_856)">
<path d="M44.2871 13.8555L35.8516 9.58202L50.5 2.16015L65.1484 9.58202L56.7129 13.8555" stroke="#0D3B66" stroke-width="3.5" stroke-miterlimit="10" stroke-dasharray="213.33 20"/>
<path d="M50.5 26.6719C46.7246 26.6719 43.6641 23.6113 43.6641 19.8359V16.7109C43.6641 12.9355 46.7246 9.875 50.5 9.875C54.2754 9.875 57.3359 12.9355 57.3359 16.7109V19.8359C57.3359 23.6113 54.2754 26.6719 50.5 26.6719Z" stroke="#0D3B66" stroke-width="3.5" stroke-miterlimit="10"/>
<path d="M74.9141 98.9375H26.0859V96.9844C26.0859 93.7484 28.7094 91.125 31.9453 91.125H69.0547C72.2906 91.125 74.9141 93.7484 74.9141 96.9844V98.9375Z" stroke="#0D3B66" stroke-width="3.5" stroke-miterlimit="10" stroke-dasharray="480 20"/>
<path d="M31.9453 52.0625V91.125" stroke="#0D3B66" stroke-width="3.5" stroke-miterlimit="10"/>
<path d="M69.0547 91.125V52.0625" stroke="#0D3B66" stroke-width="3.5" stroke-miterlimit="10" stroke-dasharray="186.67 20"/>
<path d="M39.7578 59.875H61.2422V83.3125H39.7578V59.875Z" stroke="#0D3B66" stroke-width="3.5" stroke-miterlimit="10"/>
<path d="M74.9141 52.0625H26.0859V40.3438H74.9141V52.0625Z" stroke="#0D3B66" stroke-width="3.5" stroke-miterlimit="10" stroke-dasharray="213.33 20 386.67 20"/>
<path d="M66.125 23.3516L71.2031 27.4531V40.3438" stroke="#0D3B66" stroke-width="3.5" stroke-miterlimit="10"/>
<path d="M21.6914 23.1562H18.7617" stroke="#0D3B66" stroke-width="3.5" stroke-miterlimit="10"/>
<path d="M21.6914 32.9219H18.7617" stroke="#0D3B66" stroke-width="3.5" stroke-miterlimit="10"/>
<path d="M25.1094 29.5039V26.5742" stroke="#0D3B66" stroke-width="3.5" stroke-miterlimit="10"/>
<path d="M15.3438 29.5039V26.5742" stroke="#0D3B66" stroke-width="3.5" stroke-miterlimit="10"/>
<path d="M82.2383 10.0703H79.3086" stroke="#0D3B66" stroke-width="3.5" stroke-miterlimit="10"/>
<path d="M82.2383 19.8359H79.3086" stroke="#0D3B66" stroke-width="3.5" stroke-miterlimit="10"/>
<path d="M85.6562 16.418V13.4883" stroke="#0D3B66" stroke-width="3.5" stroke-miterlimit="10"/>
<path d="M75.8906 16.418V13.4883" stroke="#0D3B66" stroke-width="3.5" stroke-miterlimit="10"/>
<path d="M65.1484 40.3438V39.7578C65.1484 32.9463 60.499 27.2217 54.2009 25.5818" stroke="#0D3B66" stroke-width="3.5" stroke-miterlimit="10"/>
<path d="M46.799 25.5819C40.501 27.2218 35.8516 32.9464 35.8516 39.7579V40.3438" stroke="#0D3B66" stroke-width="3.5" stroke-miterlimit="10" stroke-dasharray="66.67 20"/>
<path d="M55.3828 77.4531V65.7344" stroke="#0D3B66" stroke-width="3.5" stroke-miterlimit="10" stroke-dasharray="20 20 800 20"/>
<path d="M43.1758 46.2031H57.8242" stroke="#0D3B66" stroke-width="3.5" stroke-miterlimit="10" stroke-dasharray="20 20"/>
</g>
</g>
<defs>
<clipPath id="clip0_602_856">
<rect width="100" height="100" fill="white" transform="translate(0.5 0.5)"/>
</clipPath>
</defs>
</svg>
