<svg width="359" height="309" viewBox="0 0 359 309" fill="none" xmlns="http://www.w3.org/2000/svg">
<path d="M121.342 24.9432C122.386 24.3178 123.509 23.8348 124.681 23.5072L125.363 20.2116L130.934 20.1111L131.739 23.3852C132.92 23.6764 134.057 24.1231 135.12 24.7135L137.935 22.8682L141.949 26.7454L140.204 29.6174C140.83 30.6586 141.313 31.7791 141.64 32.9489L144.935 33.631L145.036 39.2027L141.762 39.9997C141.472 41.1811 141.025 42.3185 140.434 43.3815L142.279 46.2032L138.402 50.2096L135.53 48.4649C134.489 49.0907 133.368 49.5737 132.198 49.9009L131.48 53.1965L125.908 53.297L125.104 50.023C123.926 49.7317 122.791 49.285 121.73 48.6947L118.908 50.5399L114.88 46.6699L116.625 43.7979C115.999 42.754 115.516 41.6312 115.189 40.4592L111.893 39.7412L111.793 34.1695L115.067 33.3654C115.358 32.1843 115.805 31.0471 116.395 29.9836L114.55 27.1618L118.47 23.1985L121.342 24.9432ZM124.315 32.3673C123.493 33.2179 122.941 34.2931 122.73 35.457C122.519 36.6209 122.658 37.8213 123.129 38.9062C123.601 39.9912 124.383 40.912 125.378 41.5524C126.372 42.1927 127.534 42.5238 128.717 42.5037C129.9 42.4836 131.05 42.1133 132.022 41.4396C132.994 40.7658 133.745 39.8189 134.179 38.7186C134.613 37.6183 134.711 36.414 134.461 35.2579C134.21 34.1018 133.623 33.0459 132.773 32.2237C132.207 31.6743 131.538 31.242 130.805 30.9517C130.071 30.6614 129.288 30.5188 128.499 30.5321C127.711 30.5455 126.933 30.7145 126.21 31.0294C125.486 31.3444 124.833 31.799 124.286 32.3673H124.315Z" fill="#E0E0E0" fill-opacity="0.5"/>
<path d="M122.634 209.857C123.236 209.495 123.883 209.214 124.559 209.024L124.954 207.121L128.17 207.064L128.63 208.952C129.312 209.117 129.969 209.373 130.583 209.713L132.205 208.651L134.517 210.884L133.548 212.528C133.91 213.129 134.191 213.776 134.381 214.452L136.284 214.847L136.341 218.064L134.453 218.523C134.288 219.205 134.032 219.862 133.692 220.476L134.754 222.099L132.521 224.411L130.863 223.406C130.26 223.767 129.613 224.05 128.938 224.246L128.522 226.17L125.305 226.227L124.846 224.339C124.164 224.174 123.507 223.918 122.893 223.578L121.27 224.641L118.958 222.408L119.963 220.749C119.602 220.147 119.319 219.5 119.123 218.825L117.228 218.43L117.17 215.213L119.059 214.754C119.224 214.072 119.48 213.415 119.82 212.801L118.757 211.178L120.99 208.866L122.649 209.871L122.634 209.857ZM124.35 214.165C123.875 214.656 123.556 215.277 123.433 215.95C123.311 216.622 123.391 217.316 123.663 217.943C123.935 218.57 124.388 219.102 124.962 219.472C125.537 219.842 126.209 220.033 126.892 220.021C127.576 220.009 128.24 219.794 128.802 219.404C129.363 219.014 129.796 218.466 130.046 217.83C130.296 217.194 130.351 216.498 130.205 215.83C130.059 215.162 129.718 214.553 129.226 214.079C128.902 213.762 128.519 213.513 128.099 213.344C127.678 213.176 127.229 213.092 126.776 213.097C126.323 213.103 125.876 213.197 125.46 213.375C125.044 213.554 124.667 213.812 124.35 214.136V214.165Z" fill="#E0E0E0" fill-opacity="0.5"/>
<path d="M52.6151 42.6709C53.0259 42.4224 53.4677 42.2293 53.929 42.0965L54.2018 40.7969H56.3917L56.722 42.0462C57.1873 42.1644 57.636 42.3405 58.0575 42.5703L59.1632 41.8523L60.7428 43.3745L60.0248 44.5089C60.2733 44.9197 60.4664 45.3615 60.5992 45.8229L61.8988 46.0957V48.2497L60.6064 48.5656C60.494 49.0317 60.3201 49.4808 60.0895 49.9011L60.8075 51.0068L59.2853 52.5864L58.1508 51.8684C57.74 52.1169 57.2983 52.31 56.8369 52.4428L56.5641 53.7424H54.4101L54.0941 52.45C53.6281 52.3376 53.179 52.1638 52.7587 51.9331L51.653 52.6511L50.0733 51.1217L50.7913 49.9945C50.5429 49.5836 50.3498 49.1419 50.217 48.6805L48.9174 48.4077L48.8815 46.2537L50.1667 45.9378C50.2849 45.4724 50.461 45.0238 50.6908 44.6023L49.9728 43.4966L51.495 41.917L52.6294 42.635L52.6151 42.6709ZM53.7854 45.5931C53.462 45.9282 53.2452 46.3516 53.1624 46.8099C53.0795 47.2682 53.1345 47.7407 53.3202 48.1678C53.5059 48.5948 53.814 48.9572 54.2056 49.2092C54.5973 49.4612 55.0548 49.5914 55.5205 49.5834C55.9861 49.5753 56.4389 49.4294 56.8216 49.1641C57.2043 48.8988 57.4998 48.526 57.6707 48.0927C57.8415 47.6595 57.8801 47.1854 57.7816 46.7302C57.683 46.2751 57.4517 45.8594 57.1169 45.5357C56.8945 45.3206 56.6318 45.1514 56.3439 45.0379C56.0561 44.9243 55.7487 44.8686 55.4393 44.874C55.1299 44.8793 54.8245 44.9456 54.5408 45.069C54.257 45.1924 54.0003 45.3705 53.7854 45.5931Z" fill="#E0E0E0" fill-opacity="0.5"/>
<path d="M159.798 38.0539C160.608 37.5644 161.48 37.1853 162.39 36.9267L162.921 34.3634L167.229 34.2844L167.854 36.8333C168.775 37.0584 169.661 37.4062 170.489 37.8672L172.643 36.4312L175.824 39.4899L174.474 41.7014C174.965 42.513 175.344 43.3873 175.601 44.3005L178.172 44.8318L178.243 49.1398L175.702 49.7645C175.47 50.6899 175.118 51.5807 174.653 52.4139L176.089 54.611L173.081 57.7271L170.841 56.3701C170.03 56.8581 169.159 57.2371 168.249 57.4974L167.71 60.0606L163.402 60.1396L162.778 57.5907C161.847 57.3709 160.951 57.0255 160.114 56.564L157.96 58L154.837 54.9915L156.194 52.7514C155.705 51.9384 155.326 51.0645 155.066 50.1522L152.503 49.6209L152.424 45.3129L154.973 44.6882C155.198 43.7698 155.546 42.8859 156.007 42.0604L154.571 39.8633L157.579 36.7472L159.798 38.0539ZM162.11 43.7979C161.471 44.4605 161.043 45.2976 160.88 46.2033C160.717 47.1091 160.827 48.0429 161.195 48.8865C161.562 49.7301 162.172 50.4457 162.947 50.9428C163.721 51.4399 164.626 51.6961 165.546 51.679C166.466 51.6619 167.36 51.3723 168.116 50.8469C168.872 50.3214 169.454 49.5837 169.791 48.727C170.127 47.8703 170.201 46.9331 170.005 46.034C169.808 45.1349 169.35 44.3143 168.687 43.6759C168.244 43.255 167.722 42.9257 167.151 42.7069C166.58 42.488 165.972 42.384 165.361 42.4007C164.75 42.4173 164.149 42.5544 163.591 42.804C163.033 43.0537 162.53 43.4109 162.11 43.8554V43.7979Z" fill="#EBEBEB" fill-opacity="0.5"/>
<path d="M274.427 145.108C275.465 144.482 276.584 143.999 277.751 143.672L278.469 140.376L284.034 140.276L284.838 143.55C286.02 143.838 287.157 144.285 288.22 144.878L291.027 143.033L295.033 146.903L293.296 149.775C293.918 150.818 294.4 151.938 294.732 153.106L298.027 153.824L298.128 159.389L294.854 160.193C294.566 161.373 294.119 162.508 293.526 163.568L295.371 166.382L291.508 170.345L288.636 168.601C287.594 169.226 286.474 169.709 285.304 170.037L284.586 173.332L279.022 173.426L278.218 170.166C277.039 169.875 275.904 169.428 274.843 168.838L272.029 170.683L268.022 166.813L269.767 163.941C269.141 162.902 268.658 161.784 268.331 160.617L265.035 159.899L264.942 154.37L268.209 153.566C268.5 152.385 268.947 151.248 269.537 150.184L267.692 147.377L271.562 143.37L274.434 145.115L274.427 145.108ZM277.392 152.525C276.572 153.375 276.023 154.45 275.814 155.612C275.604 156.775 275.744 157.973 276.216 159.056C276.688 160.139 277.47 161.058 278.464 161.697C279.458 162.335 280.618 162.665 281.799 162.644C282.981 162.622 284.129 162.252 285.099 161.578C286.07 160.905 286.819 159.958 287.251 158.859C287.684 157.76 287.781 156.557 287.531 155.403C287.28 154.249 286.693 153.195 285.843 152.374C285.279 151.828 284.612 151.398 283.882 151.11C283.152 150.822 282.371 150.681 281.586 150.695C280.801 150.709 280.027 150.878 279.307 151.192C278.587 151.506 277.936 151.959 277.392 152.525Z" fill="#E0E0E0" fill-opacity="0.5"/>
<path d="M313.766 36.776C313.77 34.4568 313.24 32.168 312.215 30.0874C311.19 28.0068 309.7 26.1906 307.859 24.7801C306.018 23.3695 303.877 22.4026 301.601 21.9545C299.326 21.5064 296.978 21.5893 294.739 22.1966C292.501 22.804 290.433 23.9195 288.696 25.4563C286.96 26.9931 285.601 28.9099 284.725 31.0575C283.85 33.2051 283.482 35.5257 283.65 37.8388C283.817 40.1519 284.516 42.3951 285.692 44.394L285.735 44.4514C286.31 45.4279 287.035 46.1244 287.767 47.1439L296.534 58.7468C296.788 59.0761 297.115 59.3428 297.488 59.5262C297.862 59.7097 298.272 59.8051 298.688 59.8051C299.104 59.8051 299.515 59.7097 299.888 59.5262C300.261 59.3428 300.588 59.0761 300.842 58.7468L309.458 47.3378C310.241 46.4219 310.972 45.4631 311.648 44.4658L311.684 44.4227C313.051 42.1067 313.77 39.4655 313.766 36.776ZM298.688 43.3385C297.376 43.3371 296.094 42.9468 295.004 42.2169C293.914 41.4871 293.065 40.4505 292.564 39.2381C292.063 38.0257 291.932 36.692 292.189 35.4055C292.446 34.119 293.079 32.9376 294.007 32.0105C294.935 31.0834 296.117 30.4522 297.404 30.1968C298.69 29.9414 300.024 30.0732 301.236 30.5756C302.448 31.0779 303.483 31.9283 304.212 33.0191C304.941 34.11 305.33 35.3924 305.33 36.7042C305.33 37.576 305.158 38.4393 304.824 39.2447C304.49 40.0501 304.001 40.7818 303.384 41.3979C302.767 42.014 302.035 42.5026 301.229 42.8356C300.423 43.1685 299.56 43.3395 298.688 43.3385Z" fill="#E0E0E0" fill-opacity="0.5"/>
<path d="M48.2999 253.777C49.8278 252.715 51.0104 251.227 51.7009 249.499C52.3914 247.771 52.5594 245.878 52.1842 244.056C51.2006 238.893 46.4402 235.44 41.6368 236.366C36.8334 237.292 33.667 242.217 34.6507 247.387C34.9719 249.236 35.8345 250.948 37.1292 252.307C38.4239 253.666 40.0926 254.61 41.924 255.019C28.8421 259.672 32.31 274.204 32.31 274.204L64.2107 268.144C64.2107 268.144 62.0567 253.196 48.2999 253.777Z" fill="#EBEBEB" fill-opacity="0.5"/>
<path d="M86.9498 315.726L80.416 314.104C80.416 314.104 79.059 319.618 73.3006 318.304C72.1873 318.071 71.1741 317.498 70.402 316.662C69.6299 315.827 69.1373 314.772 68.9926 313.644C68.8568 312.699 68.9467 311.735 69.255 310.832C69.5632 309.928 70.081 309.111 70.7661 308.446C72.3313 306.881 75.189 305.811 79.3821 307.685L83.0367 292.872L76.5388 291.271L74.3848 299.952C74.3848 299.952 64.699 300.06 62.2291 310.097C59.8597 319.704 67.9228 324.055 71.6133 324.96C74.4423 325.656 84.2142 327.344 86.9498 315.726Z" fill="#EBEBEB" fill-opacity="0.5"/>
<path d="M77.2079 288.204L83.796 289.827L85.3126 283.671L78.7245 282.048L77.2079 288.204Z" fill="#EBEBEB" fill-opacity="0.5"/>
<path d="M24.9648 189.395L27.0542 185.431C28.9164 186.621 31.0767 187.261 33.2865 187.276C35.3256 187.276 36.5031 186.637 36.5031 185.618C36.5031 183.098 27.3989 184.491 27.3989 178.603C27.3989 174.561 30.8524 171.911 36.3954 171.911C38.7463 171.833 41.0749 172.389 43.1374 173.52L41.2132 177.454C39.668 176.503 37.8867 176.006 36.0723 176.018C33.8752 176.018 32.6977 176.822 32.6977 177.842C32.6977 180.412 41.8019 178.94 41.8019 184.72C41.8019 188.734 38.2694 191.383 32.7839 191.383C29.5672 191.398 26.6521 190.543 24.9648 189.395Z" fill="#263238"/>
<path d="M51.2436 176.384L50.6333 179.543H58.9549L58.158 183.5H49.8292L49.1542 186.932H58.9837L58.1221 191.024H43.08L46.8566 172.32H61.5254L60.6925 176.42L51.2436 176.384Z" fill="#263238"/>
<path d="M75.1961 185.402L78.384 191.024H72.8411L70.0552 186.048H67.3843L66.3934 191.024H61.0946L64.8354 172.32H72.8411C77.6301 172.32 80.3873 174.546 80.3873 178.294C80.4249 179.885 79.9365 181.444 78.998 182.729C78.0594 184.014 76.7231 184.954 75.1961 185.402ZM72.0944 176.463H69.3085L68.21 181.949H71.3692C73.7027 181.949 75.0669 180.829 75.0669 178.768C75.0382 177.188 73.9109 176.463 72.0944 176.463Z" fill="#263238"/>
<path d="M103.615 172.32L91.904 191.024H86.6841L82.3905 172.32H87.8258L90.5039 184.526L98.1578 172.32H103.615Z" fill="#263238"/>
<path d="M104.735 172.32H110.041L106.264 191.024H100.965L104.735 172.32Z" fill="#263238"/>
<path d="M110.866 183.155C110.866 176.65 115.655 171.911 122.613 171.911C126.066 171.911 128.881 173.175 130.216 175.444L126.368 178.495C125.938 177.799 125.328 177.231 124.603 176.852C123.878 176.473 123.064 176.297 122.247 176.341C118.606 176.341 116.194 179.149 116.194 182.839C116.194 185.359 117.91 187.047 120.775 187.047C121.649 187.051 122.514 186.86 123.305 186.487C124.096 186.114 124.795 185.57 125.348 184.893L128.479 187.966C126.368 190.515 123.611 191.448 120.265 191.448C114.535 191.398 110.866 188.052 110.866 183.155Z" fill="#263238"/>
<path d="M137.949 176.384L137.332 179.543H145.653L144.878 183.5H136.528L135.86 186.932H145.682L144.828 191.024H129.814L133.548 172.32H148.217L147.391 176.42L137.949 176.384Z" fill="#263238"/>
<path d="M29.8831 157.831L41.1664 140.24H46.0668L50.3138 157.831H45.3632L42.2219 142.602H44.182L35.1352 157.831H29.8831ZM34.8086 154.413L36.819 150.744H45.4134L45.9663 154.413H34.8086ZM54.334 157.831L57.0731 144.185H51.6702L52.4744 140.24H68.2309L67.4267 144.185H62.0489L59.3097 157.831H54.334ZM77.825 157.831L79.3077 150.367L79.8606 153.408L74.6084 140.24H79.6093L83.3788 149.789L80.3129 149.814L88.0027 140.24H93.0538L82.5997 153.408L84.2834 150.367L82.8008 157.831H77.825ZM99.2882 158.182C97.4788 158.182 95.9208 157.856 94.614 157.202C93.3073 156.532 92.3021 155.619 91.5984 154.463C90.8948 153.307 90.543 151.967 90.543 150.442C90.543 148.901 90.811 147.494 91.3471 146.221C91.8832 144.93 92.6371 143.816 93.6088 142.878C94.5805 141.923 95.7365 141.186 97.0768 140.667C98.4338 140.147 99.9165 139.888 101.525 139.888C103.334 139.888 104.892 140.223 106.199 140.893C107.506 141.546 108.511 142.451 109.215 143.607C109.918 144.763 110.27 146.103 110.27 147.628C110.27 149.169 110.002 150.585 109.466 151.875C108.93 153.148 108.176 154.262 107.204 155.217C106.232 156.155 105.068 156.884 103.711 157.403C102.371 157.923 100.897 158.182 99.2882 158.182ZM99.7154 154.061C100.587 154.061 101.357 153.902 102.027 153.584C102.714 153.265 103.292 152.821 103.761 152.252C104.247 151.665 104.616 151.004 104.867 150.266C105.118 149.529 105.244 148.75 105.244 147.929C105.244 147.142 105.076 146.455 104.741 145.869C104.423 145.282 103.954 144.83 103.334 144.512C102.731 144.177 101.985 144.009 101.098 144.009C100.243 144.009 99.4725 144.168 98.7856 144.487C98.0987 144.805 97.5124 145.257 97.0265 145.844C96.5574 146.413 96.1972 147.067 95.9459 147.804C95.6946 148.541 95.569 149.32 95.569 150.141C95.569 150.911 95.7281 151.598 96.0464 152.201C96.3815 152.788 96.8506 153.249 97.4537 153.584C98.0736 153.902 98.8275 154.061 99.7154 154.061ZM119.36 158.182C117.601 158.182 116.126 157.847 114.937 157.177C113.764 156.49 112.935 155.535 112.449 154.312C111.963 153.073 111.879 151.632 112.198 149.99L114.158 140.24H119.133L117.198 149.915C117.064 150.618 117.023 151.23 117.073 151.749C117.123 152.268 117.265 152.704 117.5 153.056C117.751 153.408 118.078 153.667 118.48 153.835C118.899 153.986 119.393 154.061 119.963 154.061C120.65 154.061 121.244 153.927 121.747 153.659C122.266 153.374 122.694 152.93 123.029 152.327C123.38 151.707 123.648 150.903 123.833 149.915L125.768 140.24H130.668L128.683 150.216C128.163 152.83 127.125 154.815 125.567 156.172C124.009 157.512 121.94 158.182 119.36 158.182ZM130.295 157.831L133.813 140.24H141.327C143.588 140.24 145.331 140.734 146.554 141.722C147.793 142.711 148.413 144.084 148.413 145.844C148.413 147.318 148.053 148.608 147.333 149.714C146.629 150.803 145.624 151.649 144.317 152.252C143.01 152.855 141.469 153.156 139.693 153.156H133.989L136.627 151.02L135.27 157.831H130.295ZM141.327 157.831L137.733 151.422H142.885L146.528 157.831H141.327ZM136.502 151.598L134.768 149.311H139.919C141.025 149.311 141.879 149.052 142.483 148.532C143.086 148.013 143.387 147.276 143.387 146.321C143.387 145.584 143.144 145.039 142.658 144.688C142.173 144.336 141.494 144.16 140.623 144.16H135.823L138.487 141.798L136.502 151.598Z" fill="#263238"/>
<path d="M45.3418 117.867H34.8805C34.8805 103.306 40.7753 88.4288 51.0499 77.0126C61.8629 65.0148 75.8998 58.4092 90.5399 58.4092C120.459 58.4092 141.36 80.2507 141.36 111.541H130.92C130.92 86.0306 114.701 68.892 90.5614 68.892C66.8961 68.8704 45.3418 92.2198 45.3418 117.867Z" fill="#0D3B66"/>
<path d="M51.0785 114.959C52.7515 114.959 54.1085 115.124 54.1013 115.275C54.0941 115.426 52.7443 115.541 51.0785 115.541C49.4128 115.541 48.0486 115.404 48.0486 115.225C48.0486 115.045 49.4128 114.931 51.0785 114.959Z" fill="#263238"/>
<path d="M58.3016 92.0262C59.7376 92.9452 60.7069 93.8858 60.5489 94.1371C60.391 94.3884 59.1129 93.8786 57.6769 93.0098C56.2409 92.141 55.286 91.1861 55.4368 90.8989C55.5875 90.6117 56.9015 91.1143 58.3016 92.0262Z" fill="#263238"/>
<path d="M76.3952 76.2227C77.0773 77.752 77.4148 79.0947 77.1132 79.2096C76.8116 79.3245 76.0434 78.2116 75.311 76.7109C74.5787 75.2103 74.2412 73.8389 74.593 73.7241C74.9448 73.6092 75.7203 74.6718 76.3952 76.2227Z" fill="#263238"/>
<path d="M100.233 74.3418C99.8164 75.9645 99.2492 77.2138 98.9692 77.1564C98.6891 77.099 98.7466 75.7204 99.1056 74.0762C99.4646 72.432 100.025 71.2042 100.369 71.2688C100.714 71.3334 100.649 72.7263 100.233 74.3418Z" fill="#263238"/>
<path d="M119.705 88.0267C118.312 88.9457 117.056 89.5057 116.891 89.276C116.725 89.0462 117.695 88.0554 119.045 87.0717C120.394 86.0881 121.658 85.5352 121.859 85.8224C122.06 86.1096 121.098 87.1004 119.705 88.0267Z" fill="#263238"/>
<path d="M126.117 110.572C124.451 110.572 123.094 110.443 123.094 110.299C123.094 110.156 124.444 110.012 126.117 109.991C127.79 109.969 129.14 110.091 129.147 110.263C129.154 110.436 127.804 110.572 126.117 110.572Z" fill="#263238"/>
<path d="M87.7037 113.688C87.1825 113.691 86.6758 113.517 86.2677 113.192L68.6839 99.5504C68.1964 99.1695 67.8802 98.6106 67.8048 97.9966C67.7294 97.3826 67.9009 96.7638 68.2818 96.2763C68.6626 95.7888 69.2216 95.4726 69.8356 95.3972C70.4496 95.3218 71.0684 95.4934 71.5559 95.8742L87.596 108.31L109.746 87.969C110.199 87.5492 110.799 87.3261 111.416 87.349C112.032 87.3719 112.615 87.6388 113.035 88.0911C113.455 88.5434 113.678 89.1439 113.655 89.7606C113.632 90.3773 113.365 90.9597 112.913 91.3795L89.312 113.063C88.875 113.469 88.2998 113.692 87.7037 113.688Z" fill="#0D3B66"/>
<path d="M99.6298 43.0298H79.4683C79.1551 43.0298 78.9011 43.2837 78.9011 43.597V50.8991C78.9011 51.2123 79.1551 51.4663 79.4683 51.4663H99.6298C99.943 51.4663 100.197 51.2123 100.197 50.8991V43.597C100.197 43.2837 99.943 43.0298 99.6298 43.0298Z" fill="#0D3B66"/>
<path d="M95.0488 47.2515H84.0419V57.2317H95.0488V47.2515Z" fill="#0D3B66"/>
<path d="M44.1142 68.8487L35.846 79.0882C35.5247 79.4862 35.5868 80.0694 35.9848 80.3907L41.638 84.9556C42.036 85.2769 42.6192 85.2148 42.9405 84.8168L51.2087 74.5773C51.5301 74.1793 51.4679 73.5962 51.07 73.2748L45.4167 68.7099C45.0187 68.3886 44.4356 68.4507 44.1142 68.8487Z" fill="#0D3B66"/>
<path d="M99.6298 51.4661C99.6298 51.5882 95.1135 51.6815 89.5778 51.6815C84.042 51.6815 79.5258 51.5882 79.5258 51.4661C79.5258 51.3441 84.0348 51.2507 89.5778 51.2507C95.1207 51.2507 99.6298 51.3513 99.6298 51.4661Z" fill="#263238"/>
<path d="M43.9273 83.0584C43.8124 83.1877 42.2903 82.0245 40.4091 80.6101C38.5279 79.1956 36.9986 78.0468 37.0919 77.9032C37.1853 77.7596 38.8726 78.693 40.7753 80.1218C42.678 81.5506 44.035 82.9364 43.9273 83.0584Z" fill="#263238"/>
<path d="M45.6792 80.4806C45.5643 80.6098 44.0422 79.4466 42.161 78.0322C40.2799 76.6177 38.7433 75.4689 38.8367 75.3253C38.93 75.1817 40.6245 76.1151 42.5272 77.5511C44.4299 78.9871 45.7869 80.3585 45.6792 80.4806Z" fill="#263238"/>
<path d="M47.826 78.3194C47.7183 78.4487 46.1962 77.2855 44.315 75.8711C42.4338 74.4566 40.926 73.3078 40.9906 73.1642C41.0553 73.0206 42.7785 73.954 44.674 75.39C46.5695 76.826 47.9409 78.1974 47.826 78.3194Z" fill="#263238"/>
<path d="M49.9082 75.742C49.8005 75.8713 48.2711 74.7081 46.39 73.2937C44.5088 71.8792 42.9795 70.7304 43.08 70.5868C43.1805 70.4432 44.8678 71.3766 46.7633 72.8126C48.6589 74.2486 50.0159 75.62 49.9082 75.742Z" fill="#263238"/>
<path d="M140.159 72.0854L131.259 62.3899C130.913 62.013 130.327 61.9879 129.95 62.3339L124.597 67.2475C124.22 67.5934 124.195 68.1793 124.541 68.5562L133.441 78.2517C133.787 78.6285 134.373 78.6536 134.75 78.3077L140.103 73.394C140.48 73.0481 140.505 72.4622 140.159 72.0854Z" fill="#0D3B66"/>
<path d="M126.131 69.8041C126.023 69.6749 127.395 68.3681 129.075 66.688C130.755 65.0079 132.112 63.6939 132.241 63.816C132.37 63.938 131.2 65.4674 129.498 67.1331C127.797 68.7989 126.232 69.9262 126.131 69.8041Z" fill="#263238"/>
<path d="M128.421 71.9149C128.307 71.7857 129.685 70.4789 131.358 68.7988C133.031 67.1187 134.402 65.8048 134.532 65.9268C134.661 66.0489 133.483 67.5782 131.789 69.244C130.094 70.9097 128.522 72.037 128.421 71.9149Z" fill="#263238"/>
<path d="M130.238 74.3632C130.123 74.2339 131.502 72.9272 133.175 71.2471C134.848 69.5669 136.219 68.253 136.348 68.3751C136.477 68.4971 135.3 70.0193 133.598 71.685C131.897 73.3508 130.339 74.4852 130.238 74.3632Z" fill="#263238"/>
<path d="M132.478 76.8258C132.363 76.6966 133.742 75.3898 135.415 73.7097C137.088 72.0296 138.459 70.7156 138.588 70.8377C138.718 70.9598 137.54 72.4891 135.839 74.1549C134.137 75.8206 132.579 76.9263 132.478 76.8258Z" fill="#263238"/>
<path d="M81.73 51.4588C81.5649 51.4588 81.4285 49.592 81.4285 47.3016C81.4285 45.0112 81.5649 43.1372 81.73 43.1372C81.8952 43.1372 82.0388 45.004 82.0388 47.3016C82.0388 49.5992 81.9023 51.4588 81.73 51.4588Z" fill="#263238"/>
<path d="M85.679 51.4588C85.5139 51.4588 85.3774 49.592 85.3774 47.3016C85.3774 45.0112 85.5139 43.1372 85.679 43.1372C85.8441 43.1372 85.9806 45.004 85.9806 47.3016C85.9806 49.5992 85.8441 51.4588 85.679 51.4588Z" fill="#263238"/>
<path d="M89.6208 51.4588C89.4556 51.4588 89.3192 49.592 89.3192 47.3016C89.3192 45.0112 89.4556 43.1372 89.6208 43.1372C89.7859 43.1372 89.9223 45.004 89.9223 47.3016C89.9223 49.5992 89.7931 51.4588 89.6208 51.4588Z" fill="#263238"/>
<path d="M93.5698 51.4588C93.3974 51.4588 93.2682 49.592 93.2682 47.3016C93.2682 45.0112 93.3974 43.1372 93.5698 43.1372C93.7421 43.1372 93.8713 45.004 93.8713 47.3016C93.8713 49.5992 93.7349 51.4588 93.5698 51.4588Z" fill="#263238"/>
<path d="M97.5116 51.4588C97.3465 51.4588 97.2101 49.592 97.2101 47.3016C97.2101 45.0112 97.3465 43.1372 97.5116 43.1372C97.6768 43.1372 97.8132 45.004 97.8132 47.3016C97.8132 49.5992 97.6481 51.4588 97.5116 51.4588Z" fill="#263238"/>
<path d="M91.9715 114.289C94.0296 112.231 94.0296 108.894 91.9715 106.836C89.9134 104.778 86.5765 104.778 84.5184 106.836C82.4603 108.894 82.4603 112.231 84.5184 114.289C86.5765 116.347 89.9134 116.347 91.9715 114.289Z" fill="#0D3B66"/>
<path d="M93.5124 110.572C93.4621 110.572 93.4693 110.105 93.2467 109.308C92.9274 108.196 92.2481 107.222 91.3153 106.537C90.5676 105.982 89.6802 105.645 88.7524 105.565C87.8245 105.485 86.8925 105.664 86.0605 106.082C85.2285 106.501 84.5291 107.142 84.0404 107.935C83.5517 108.728 83.2929 109.641 83.2929 110.572C83.2929 111.503 83.5517 112.417 84.0404 113.209C84.5291 114.002 85.2285 114.644 86.0605 115.062C86.8925 115.481 87.8245 115.66 88.7524 115.579C89.6802 115.499 90.5676 115.163 91.3153 114.607C92.2465 113.921 92.9254 112.947 93.2467 111.836C93.4693 111.039 93.4621 110.572 93.5124 110.572C93.5626 110.572 93.5124 110.687 93.5124 110.91C93.5237 111.238 93.4899 111.567 93.4119 111.886C93.1541 113.085 92.4832 114.155 91.5163 114.909C90.7939 115.476 89.9397 115.851 89.0333 115.999C88.1269 116.147 87.1978 116.064 86.3324 115.756C85.261 115.376 84.3336 114.674 83.6777 113.746C83.0218 112.818 82.6697 111.709 82.6697 110.572C82.6697 109.436 83.0218 108.327 83.6777 107.398C84.3336 106.47 85.261 105.768 86.3324 105.388C87.1975 105.082 88.1259 104.998 89.0319 105.145C89.9379 105.291 90.7924 105.664 91.5163 106.228C92.4827 106.986 93.1534 108.058 93.4119 109.258C93.4899 109.578 93.5237 109.906 93.5124 110.235C93.5483 110.443 93.5339 110.572 93.5124 110.572Z" fill="#263238"/>
<path d="M273.752 128.623L282.756 127.187C288.657 131.948 296.126 134.33 303.694 133.864C311.263 133.397 318.383 130.117 323.655 124.667C328.928 119.218 331.971 111.993 332.186 104.413C332.402 96.8334 329.774 89.4473 324.82 83.7067C319.866 77.9661 312.944 74.2864 305.414 73.3909C297.884 72.4953 290.292 74.4488 284.13 78.8672C277.967 83.2856 273.681 89.8494 272.112 97.2681C270.544 104.687 271.808 112.424 275.655 118.958L273.752 128.623Z" fill="white" fill-opacity="0.5"/>
<path d="M273.752 128.623C273.752 128.623 273.752 128.422 273.852 128.013L274.197 126.174C274.506 124.523 274.965 122.103 275.561 118.944C275.563 118.934 275.567 118.924 275.572 118.915C275.578 118.907 275.586 118.899 275.595 118.894C275.604 118.888 275.613 118.885 275.624 118.884C275.634 118.882 275.645 118.884 275.655 118.887C275.661 118.883 275.669 118.881 275.676 118.881C275.684 118.881 275.691 118.883 275.698 118.887L275.568 118.987C272.999 114.65 271.546 109.743 271.339 104.706C271.276 103.139 271.336 101.569 271.519 100.011C271.732 98.3427 272.073 96.6937 272.538 95.0779C274.234 89.2201 277.65 84.0064 282.343 80.1122C287.036 76.218 292.79 73.8226 298.86 73.2363C303.623 72.7869 308.425 73.4675 312.875 75.2228C317.325 76.9782 321.298 79.7588 324.471 83.3386L325.692 84.7746C326.073 85.2772 326.41 85.8013 326.783 86.3039C327.492 87.3257 328.137 88.3904 328.715 89.4918C329.031 90.0232 329.232 90.6119 329.497 91.1648C329.763 91.7176 330.036 92.2705 330.215 92.8593C330.641 93.9988 330.993 95.1644 331.271 96.3487C332.375 100.951 332.412 105.745 331.379 110.364C329.994 116.37 326.82 121.815 322.275 125.979C317.73 130.143 312.03 132.83 305.925 133.685C304.248 133.912 302.556 134.011 300.864 133.979C299.292 133.905 297.727 133.737 296.175 133.477C291.235 132.557 286.604 130.414 282.705 127.244H282.77L276.035 128.257L274.319 128.508L273.752 128.587L274.348 128.479L276.078 128.192L282.741 127.086H282.806C286.701 130.204 291.31 132.304 296.218 133.196C297.758 133.453 299.311 133.614 300.871 133.678C302.552 133.705 304.232 133.601 305.897 133.369C311.927 132.496 317.554 129.822 322.038 125.696C326.522 121.571 329.656 116.186 331.027 110.249C332.041 105.683 331.999 100.946 330.905 96.399C330.623 95.2313 330.276 94.0807 329.864 92.9526C329.684 92.371 329.383 91.8397 329.146 91.2797C328.909 90.7196 328.679 90.1524 328.37 89.6283C327.802 88.5402 327.164 87.4897 326.46 86.4834C326.101 85.9808 325.742 85.4639 325.383 84.9684L324.177 83.5324C321.042 79.9962 317.119 77.248 312.724 75.5103C308.329 73.7727 303.587 73.0945 298.882 73.5307C294.716 73.9423 290.681 75.2134 287.032 77.2636C283.382 79.3139 280.198 82.0988 277.679 85.4423C275.485 88.3673 273.845 91.6696 272.84 95.1856C272.376 96.7851 272.033 98.4171 271.813 100.068C271.623 101.613 271.556 103.172 271.612 104.728C271.788 109.73 273.196 114.611 275.712 118.937C275.726 118.952 275.733 118.971 275.733 118.991C275.733 119.011 275.726 119.03 275.712 119.045C275.698 119.056 275.68 119.063 275.662 119.063C275.643 119.063 275.626 119.056 275.612 119.045L275.741 119.002C275.109 122.125 274.621 124.523 274.305 126.182C274.14 126.993 274.01 127.618 273.924 128.034C273.838 128.451 273.752 128.623 273.752 128.623Z" fill="#263238"/>
<path d="M311.009 104.455C311.007 103.845 311.187 103.248 311.525 102.741C311.863 102.233 312.344 101.837 312.907 101.603C313.47 101.369 314.09 101.308 314.688 101.426C315.286 101.545 315.836 101.838 316.267 102.27C316.698 102.701 316.992 103.25 317.111 103.848C317.229 104.447 317.168 105.067 316.934 105.63C316.699 106.193 316.304 106.674 315.796 107.012C315.288 107.35 314.692 107.529 314.082 107.528C313.268 107.526 312.487 107.202 311.911 106.626C311.335 106.05 311.011 105.269 311.009 104.455Z" fill="#263238"/>
<path d="M298.688 104.455C298.687 103.845 298.866 103.249 299.204 102.742C299.541 102.234 300.022 101.838 300.584 101.604C301.147 101.37 301.767 101.308 302.365 101.426C302.963 101.544 303.512 101.837 303.944 102.267C304.375 102.698 304.669 103.246 304.789 103.844C304.908 104.442 304.848 105.061 304.615 105.625C304.382 106.188 303.987 106.669 303.48 107.008C302.974 107.347 302.378 107.528 301.768 107.528C300.953 107.528 300.17 107.204 299.593 106.628C299.015 106.052 298.69 105.271 298.688 104.455Z" fill="#263238"/>
<path d="M286.403 105.992C286.098 105.464 285.957 104.858 285.997 104.25C286.037 103.642 286.256 103.06 286.627 102.576C286.997 102.093 287.503 101.73 288.08 101.535C288.657 101.339 289.279 101.318 289.868 101.476C290.456 101.634 290.985 101.962 291.386 102.42C291.788 102.878 292.045 103.445 292.124 104.049C292.204 104.653 292.102 105.267 291.833 105.814C291.564 106.36 291.138 106.814 290.611 107.119C289.903 107.525 289.063 107.635 288.274 107.424C287.486 107.212 286.813 106.698 286.403 105.992Z" fill="#263238"/>
<path d="M71.2902 214.682C69.4018 213.784 66.2211 211.91 64.2538 211.178C62.3091 210.346 60.1395 210.199 58.1005 210.761C56.9445 211.149 55.7886 212.075 55.7814 213.296L63.4999 218.99L71.2902 216.936V214.682Z" fill="#6F4439"/>
<path d="M62.8465 214.603C62.8465 214.603 48.9819 211.594 46.67 210.41C44.358 209.225 32.31 203.194 30.2924 203.194C28.2748 203.194 26.5516 203.74 26.1854 205.75L28.8205 207.796L29.1579 208.845L33.667 211.192L34.464 212.671L45.952 218.803C45.952 218.803 58 224.921 60.0104 225.265C62.0208 225.61 72.0584 226.45 76.3521 230.104L93.5841 223.025C93.5841 223.025 88.6083 215.96 84.7742 214.215C81.3565 212.664 75.6197 212.664 71.6061 214.308L62.8465 214.603Z" fill="#AE7461"/>
<path d="M74.3776 226.17C74.3776 226.17 96.3125 274.003 99.845 283.61C99.845 283.61 124.365 279.575 125.205 265.968L93.6128 222.888L74.3776 226.17Z" fill="#AE7461"/>
<path d="M54.0079 215.687C54.0079 215.687 53.9217 215.687 53.7709 215.687C53.5466 215.665 53.3252 215.619 53.1104 215.551C52.324 215.311 51.56 215.004 50.8271 214.632C49.8937 214.179 48.8095 213.584 47.6177 212.916C47.0217 212.586 46.3971 212.234 45.7437 211.896C45.0903 211.559 44.3795 211.264 43.6543 210.948C42.3116 210.34 40.9242 209.836 39.5043 209.441C38.2047 209.118 36.9554 208.873 36.0148 209.189C35.6499 209.335 35.319 209.555 35.0423 209.834C34.7657 210.113 34.5493 210.446 34.4065 210.812C34.3004 211.092 34.1781 211.365 34.0403 211.631C34.0403 211.631 34.0403 211.544 34.0762 211.401C34.1242 211.181 34.189 210.965 34.27 210.755C34.3969 210.42 34.5684 210.103 34.7798 209.814C35.0592 209.419 35.4487 209.114 35.8999 208.938C36.4565 208.752 37.0479 208.693 37.6303 208.766C38.2816 208.83 38.9272 208.943 39.5617 209.103C41.0119 209.485 42.4286 209.985 43.7979 210.597C44.5159 210.913 45.2339 211.207 45.9016 211.559C46.5694 211.911 47.1869 212.277 47.7828 212.614C48.9675 213.296 50.0301 213.914 50.942 214.388C51.6486 214.774 52.3802 215.112 53.1319 215.4C53.6919 215.608 54.0079 215.651 54.0079 215.687Z" fill="#6F4439"/>
<path d="M40.7823 208.809C40.1063 208.672 39.4518 208.445 38.8365 208.134C37.3557 207.435 35.833 206.828 34.2772 206.317C33.4259 206.076 32.5363 206 31.6565 206.095C31.3055 206.105 30.9603 206.187 30.6418 206.335C30.3234 206.483 30.0384 206.694 29.8041 206.956C29.5233 207.345 29.3387 207.796 29.2656 208.27C29.2591 208.454 29.2227 208.636 29.1579 208.809C29.1243 208.626 29.1243 208.438 29.1579 208.256C29.1847 207.743 29.3484 207.247 29.6318 206.82C29.8515 206.52 30.1363 206.275 30.4646 206.102C30.8402 205.923 31.2431 205.809 31.6565 205.764C32.5826 205.648 33.5226 205.718 34.4208 205.972C35.9987 206.479 37.5272 207.128 38.9873 207.911C39.6013 208.178 40.2005 208.477 40.7823 208.809Z" fill="#6F4439"/>
<path d="M75.39 213.246C75.39 213.246 75.1961 213.361 74.8299 213.49C74.3049 213.68 73.7705 213.843 73.2288 213.978C71.4464 214.442 69.6194 214.714 67.7792 214.79C65.9394 214.869 64.0964 214.758 62.2793 214.459C61.5613 214.337 61.03 214.215 60.6494 214.107C60.4459 214.077 60.2491 214.011 60.0679 213.914C60.0679 213.856 60.9295 214.021 62.3224 214.194C64.1274 214.417 65.9476 214.491 67.7648 214.416C69.5834 214.322 71.3914 214.082 73.1714 213.698C74.4997 213.44 75.3397 213.196 75.39 213.246Z" fill="#6F4439"/>
<path d="M279.618 184.849L247.71 178.244L239.812 172.32L197.665 180.448C196.99 181.683 190.162 191.218 190.162 191.218L173.562 196.854C166.507 198.708 160.209 202.725 155.555 208.342C151.128 213.809 147.502 219.877 144.785 226.364C137.317 243.89 126.54 264.138 126.54 264.138L119.784 253.253L91.308 266.665C91.308 266.665 107.987 300.289 113.509 305.093C119.647 310.427 133.763 311.045 143.521 301.093C149.401 295.091 166.396 271.368 169.936 265.43L175.192 290.259L180.024 318.598L172.212 338.106H286.231L281.513 319.668C281.513 319.668 286.159 271.612 287.444 262.666C290.467 241.564 279.618 184.849 279.618 184.849Z" fill="#0D3B66"/>
<path d="M279.618 184.849C279.618 184.849 302.45 191.253 307.476 213.949C310.521 227.699 320.86 266.895 324.5 299.162C326.654 318.347 326.597 336.074 326.654 338.106H291.616L276.767 191.253L279.618 184.849Z" fill="#0D3B66"/>
<path d="M221.058 204.336C221.058 204.336 221.058 204.422 220.964 204.573L220.641 205.233C220.354 205.815 219.923 206.669 219.457 207.753C218.444 209.907 217.252 213.102 215.328 216.671L215.235 216.85L215.077 216.714C212.707 214.696 210.137 212.269 207.48 209.649C202.778 204.982 198.656 200.638 195.612 197.558L191.986 193.917L190.988 192.934C190.867 192.825 190.756 192.705 190.658 192.575C190.796 192.662 190.924 192.766 191.038 192.883L192.072 193.817C192.962 194.635 194.226 195.849 195.784 197.371C198.879 200.408 203.036 204.723 207.725 209.383C210.381 212.004 212.937 214.409 215.278 216.463L215.019 216.506C216.958 212.987 218.193 209.807 219.256 207.667C219.78 206.583 220.218 205.75 220.534 205.183C220.677 204.931 220.799 204.716 220.9 204.551C220.945 204.474 220.998 204.402 221.058 204.336Z" fill="black"/>
<path d="M248.155 179.054C248.153 179.224 248.131 179.393 248.09 179.557C248.019 179.916 247.932 180.39 247.825 180.993C247.566 182.228 247.107 184.009 246.518 186.177C245.276 190.485 243.265 196.437 240.774 202.863C239.46 206.267 238.168 209.483 236.961 212.334L236.868 212.556L236.689 212.398C233.436 209.526 230.521 207.265 228.546 205.585C227.556 204.744 226.78 204.07 226.256 203.596L225.674 203.05C225.538 202.921 225.473 202.856 225.481 202.849C225.563 202.892 225.64 202.945 225.71 203.007L226.328 203.517L228.676 205.427C230.693 207.064 233.63 209.282 236.918 212.14L236.646 212.204C237.83 209.332 239.115 206.13 240.422 202.734C242.885 196.272 244.931 190.42 246.231 186.105C246.877 183.951 247.351 182.185 247.667 180.957C247.803 180.376 247.918 179.909 248.004 179.521C248.043 179.362 248.093 179.206 248.155 179.054Z" fill="black"/>
<path d="M174.294 287.078C174.264 287.029 174.243 286.976 174.23 286.92L174.079 286.432C173.95 285.953 173.77 285.321 173.54 284.536C173.296 283.718 173.059 282.705 172.772 281.528C172.485 280.35 172.176 279 171.868 277.507C170.279 269.717 169.162 261.838 168.522 253.913C167.71 244.63 167.531 236.193 167.574 230.097C167.574 227.046 167.653 224.576 167.739 222.874C167.782 222.041 167.811 221.388 167.832 220.907C167.832 220.706 167.832 220.534 167.868 220.397C167.861 220.34 167.861 220.282 167.868 220.225C167.874 220.285 167.874 220.345 167.868 220.404V220.914C167.868 221.395 167.868 222.049 167.868 222.874C167.868 224.583 167.811 227.046 167.825 230.097C167.825 236.186 168.069 244.615 168.881 253.878C169.526 261.79 170.605 269.662 172.112 277.457C172.406 278.95 172.679 280.329 172.959 281.477C173.239 282.626 173.447 283.682 173.677 284.5L174.151 286.41L174.258 286.906C174.294 287.02 174.302 287.078 174.294 287.078Z" fill="black"/>
<path d="M281.513 210.022C281.556 210.084 281.59 210.152 281.614 210.223C281.678 210.374 281.765 210.568 281.865 210.812C282.095 211.358 282.404 212.126 282.806 213.095C283.007 213.598 283.244 214.144 283.473 214.754L284.156 216.764C284.4 217.482 284.658 218.265 284.938 219.083C285.218 219.902 285.405 220.799 285.656 221.726C287.81 229.114 288.887 239.805 288.27 251.501C287.652 263.197 286.274 273.759 285.398 281.341C284.96 285.132 284.601 288.212 284.349 290.366C284.227 291.408 284.127 292.233 284.055 292.815L283.969 293.454C283.964 293.527 283.949 293.6 283.926 293.669C283.916 293.598 283.916 293.525 283.926 293.454L283.976 292.808C284.034 292.219 284.112 291.372 284.206 290.352C284.407 288.198 284.723 285.125 285.132 281.312C285.915 273.687 287.236 263.161 287.868 251.487C288.499 239.812 287.437 229.178 285.376 221.79L284.658 219.148L283.94 216.836C283.71 216.118 283.495 215.436 283.294 214.818C283.093 214.201 282.849 213.648 282.655 213.145C282.282 212.162 281.994 211.394 281.779 210.841C281.693 210.589 281.621 210.396 281.564 210.238C281.536 210.169 281.519 210.096 281.513 210.022Z" fill="black"/>
<path d="M126.727 288.586C126.626 288.586 126.504 283.114 126.461 276.38C126.418 269.645 126.461 264.174 126.569 264.174C126.677 264.174 126.791 269.645 126.835 276.38C126.878 283.114 126.835 288.586 126.727 288.586Z" fill="black"/>
<path d="M230.334 321.721V321.42C230.334 321.204 230.392 320.917 230.435 320.544C230.535 319.754 230.672 318.627 230.851 317.176C230.945 316.458 231.045 315.632 231.16 314.749C231.275 313.866 231.361 312.89 231.469 311.877C231.677 309.795 231.964 307.433 232.187 304.805C232.294 303.498 232.402 302.12 232.524 300.691C232.646 299.262 232.704 297.769 232.797 296.225C233.012 293.138 233.106 289.828 233.228 286.352C233.386 279.395 233.364 271.741 233.005 263.721C232.646 255.701 231.914 248.076 231.103 241.161C230.65 237.708 230.255 234.427 229.746 231.375C229.509 229.846 229.3 228.367 229.028 226.952C228.755 225.538 228.532 224.181 228.31 222.881C227.872 220.289 227.369 217.963 226.96 215.909C226.751 214.883 226.565 213.928 226.385 213.037C226.206 212.147 226.012 211.364 225.847 210.646L225.129 207.336C225.057 206.97 224.992 206.683 224.949 206.475C224.906 206.267 224.899 206.173 224.899 206.173C224.935 206.267 224.964 206.363 224.985 206.461L225.208 207.315L226.005 210.618L226.572 213.002C226.759 213.877 226.96 214.825 227.182 215.874C227.606 217.92 228.13 220.246 228.582 222.838C228.822 224.135 229.061 225.492 229.3 226.909C229.559 228.345 229.767 229.781 230.018 231.332C230.535 234.391 230.945 237.672 231.411 241.126C232.237 248.047 232.941 255.679 233.343 263.707C233.745 271.734 233.716 279.402 233.537 286.367C233.4 289.849 233.3 293.159 233.07 296.246C232.969 297.79 232.898 299.284 232.776 300.72C232.653 302.156 232.524 303.527 232.409 304.841C232.208 307.469 231.9 309.867 231.691 311.906C231.569 312.947 231.454 313.916 231.354 314.778C231.253 315.64 231.117 316.473 231.009 317.205C230.801 318.641 230.636 319.775 230.528 320.558L230.392 321.434C230.381 321.531 230.362 321.627 230.334 321.721Z" fill="black"/>
<path d="M245.513 244.221H245.656L246.109 244.171L247.868 243.97L254.596 243.252L278.541 240.767H278.72V240.947C278.9 248.191 279.115 256.391 279.338 265.086V265.165L279.288 265.215L276.416 268.324L265.947 279.511L265.854 279.611L265.732 279.547L248.09 270.787L248.011 270.751V270.686C247.243 262.681 246.575 256.061 246.166 251.415C245.951 249.132 245.786 247.337 245.671 246.095C245.621 245.499 245.577 245.039 245.549 244.702C245.52 244.365 245.549 244.242 245.549 244.242C245.549 244.242 245.549 244.415 245.613 244.731C245.678 245.047 245.707 245.542 245.778 246.167C245.908 247.423 246.102 249.225 246.353 251.523C246.834 256.133 247.516 262.717 248.349 270.679L248.263 270.557L265.926 279.267L265.717 279.302L276.164 268.073L279.036 264.971L278.986 265.1C278.778 256.405 278.577 248.213 278.404 240.961L278.591 241.119L254.718 243.402L247.947 244.034L246.145 244.192L245.678 244.235L245.513 244.221Z" fill="black"/>
<path d="M278.763 249.275C278.357 249.388 277.941 249.467 277.521 249.512C276.717 249.641 275.554 249.806 274.111 249.993C271.239 250.359 267.225 250.783 262.81 251.207L251.494 252.312L248.069 252.671C247.654 252.738 247.233 252.769 246.812 252.765C247.219 252.652 247.635 252.572 248.055 252.528C248.859 252.398 250.022 252.233 251.465 252.047C254.337 251.68 258.351 251.257 262.774 250.833L274.082 249.727L277.507 249.368C277.922 249.302 278.343 249.27 278.763 249.275Z" fill="black"/>
<g opacity="0.3">
<path d="M285.699 277.514L286.906 292.183C289.569 279.618 293.755 266.112 293.102 253.289C292.448 240.465 291.242 228.195 284.019 216.584C287.159 225.326 288.6 234.586 288.263 243.868C287.602 258.875 285.699 277.514 285.699 277.514Z" fill="black"/>
</g>
<path d="M121.974 250.209C121.586 249.325 120.9 248.606 120.035 248.177C119.03 247.832 117.939 248.32 116.984 248.794L90.9347 261.761C89.2186 262.616 87.3446 263.628 86.7128 265.423C85.8871 267.721 87.4308 270.148 88.8668 272.122C91.2649 275.418 94.1369 279.008 98.2008 279.474L120.61 264.109C123.345 263.707 125.047 260.656 124.918 257.891C124.788 255.127 123.367 252.607 121.974 250.209Z" fill="#0D3B66"/>
<path d="M124.803 259.6C124.736 259.693 124.659 259.777 124.573 259.852L123.855 260.519C123.237 261.094 122.326 261.905 121.184 262.882C118.894 264.842 115.641 267.448 111.85 270.105C108.059 272.761 104.591 274.951 101.956 276.43C100.649 277.184 99.5794 277.773 98.8327 278.161L97.9711 278.599C97.77 278.699 97.6623 278.742 97.6552 278.728C97.7381 278.65 97.8326 278.584 97.9352 278.534L98.7609 278.032L101.82 276.201C104.397 274.65 107.908 272.424 111.656 269.775C115.404 267.125 118.678 264.562 120.99 262.659L123.74 260.383L124.458 259.773C124.702 259.658 124.796 259.586 124.803 259.6Z" fill="black"/>
<g opacity="0.3">
<path d="M247.818 180.699C244.752 190.88 240.458 202.397 236.832 212.291C233.745 209.67 229.422 206.202 226.328 203.574C228.991 208.858 232.189 213.855 235.87 218.487C236.301 219.026 236.875 219.614 237.543 219.485C238.211 219.356 238.512 218.667 238.742 218.049L244.393 203.093C247.035 196.1 249.584 187.943 247.818 180.699Z" fill="black"/>
</g>
<path d="M199.353 69.9332C208.687 67.2478 217.418 69.9332 226.026 74.3991C234.635 78.8651 241.578 86.2389 246.073 94.819C250.812 103.859 252.908 114.392 251.192 124.451C249.476 134.51 243.79 143.988 235.274 149.581C223.635 157.249 207.595 156.847 195.612 149.746C183.629 142.645 175.738 129.556 173.648 115.777C172.212 106.286 173.375 96.2766 177.806 87.7755C182.236 79.2743 190.069 72.3815 199.346 69.926" fill="#263238"/>
<path d="M229.997 99.1488C228.195 95.6809 228.274 91.5667 227.29 87.7757C225.136 79.4397 217.525 73.4157 209.254 71.0104C201.564 68.7631 192.668 70.4503 184.124 74.3132C178.279 76.9626 172.959 81.0265 169.469 86.4115C167.187 90.0209 165.801 94.1237 165.426 98.3778C165.052 102.632 165.699 106.914 167.315 110.867L209.957 99.6514C214.395 102.523 218.94 105.489 224.073 106.831C225.567 107.294 227.154 107.365 228.683 107.04C229.442 106.86 230.133 106.466 230.674 105.905C231.215 105.343 231.583 104.638 231.734 103.873C231.914 102.164 230.779 100.664 229.997 99.1488Z" fill="#263238"/>
<path d="M240.171 174.761L229.164 97.3463C228.676 93.6845 227.01 89.9509 223.327 90.1232L184.555 86.3896C172.406 86.9497 166.705 102.904 167.782 114.988C168.981 128.443 170.97 144.82 174.065 154.528C180.29 174.036 196.007 174.237 196.007 174.237C196.007 174.237 196.962 178.114 198.161 185.366L223.291 202.081L240.171 174.761Z" fill="#AE7461"/>
<path d="M177.152 129.714C177.249 130.383 177.603 130.989 178.14 131.401C178.676 131.812 179.352 131.998 180.024 131.918C180.354 131.895 180.677 131.805 180.972 131.655C181.267 131.505 181.529 131.298 181.743 131.045C181.956 130.792 182.117 130.499 182.215 130.182C182.313 129.866 182.347 129.534 182.315 129.204C182.216 128.535 181.862 127.93 181.326 127.517C180.79 127.105 180.115 126.917 179.443 126.993C179.112 127.018 178.791 127.109 178.496 127.26C178.201 127.411 177.939 127.619 177.726 127.872C177.513 128.126 177.352 128.419 177.254 128.735C177.155 129.052 177.121 129.384 177.152 129.714Z" fill="#263238"/>
<path d="M172.629 122.929C172.995 123.216 174.718 121.493 177.482 121.069C180.247 120.646 182.472 121.73 182.724 121.342C182.846 121.17 182.429 120.624 181.453 120.107C180.132 119.466 178.646 119.246 177.195 119.475C175.759 119.689 174.428 120.355 173.397 121.378C172.643 122.154 172.449 122.778 172.629 122.929Z" fill="#263238"/>
<path d="M202.663 125.564C202.757 126.234 203.111 126.842 203.648 127.255C204.185 127.668 204.862 127.855 205.535 127.775C205.865 127.752 206.187 127.662 206.482 127.512C206.777 127.362 207.039 127.155 207.253 126.902C207.467 126.649 207.627 126.355 207.725 126.039C207.824 125.723 207.858 125.391 207.825 125.061C207.73 124.39 207.377 123.783 206.84 123.37C206.303 122.956 205.626 122.77 204.953 122.85C204.623 122.874 204.301 122.964 204.007 123.114C203.712 123.265 203.45 123.472 203.237 123.725C203.024 123.978 202.863 124.271 202.764 124.586C202.666 124.902 202.631 125.234 202.663 125.564Z" fill="#263238"/>
<path d="M198.886 119.274C199.252 119.562 200.983 117.838 203.74 117.415C206.497 116.991 208.73 118.075 208.981 117.688C209.103 117.515 208.687 116.97 207.71 116.453C206.387 115.81 204.898 115.589 203.445 115.821C201.991 116.035 200.644 116.712 199.604 117.752C198.886 118.47 198.692 119.188 198.886 119.274Z" fill="#263238"/>
<path d="M192.941 141.295C192.941 141.137 191.167 141.101 188.339 141.173C187.621 141.173 186.903 141.173 186.737 140.706C186.572 140.24 186.673 139.421 186.888 138.552C187.29 136.748 187.714 134.855 188.159 132.873C189.882 124.788 191.031 118.19 190.694 118.125C190.356 118.061 188.705 124.587 186.974 132.629C186.565 134.618 186.17 136.52 185.804 138.337C185.66 139.177 185.337 140.153 185.861 141.151C185.999 141.386 186.189 141.586 186.418 141.734C186.646 141.882 186.905 141.975 187.175 142.006C187.58 142.061 187.991 142.061 188.396 142.006C191.218 141.704 192.955 141.446 192.941 141.295Z" fill="#263238"/>
<path d="M196.014 174.237C205.454 172.94 214.348 169.044 221.704 162.986C221.704 162.986 215.436 178.674 197.292 180.254L196.014 174.237Z" fill="#6F4439"/>
<path d="M195.124 147.772C195.547 147.031 196.152 146.41 196.882 145.968C197.612 145.526 198.442 145.277 199.295 145.244C199.915 145.208 200.535 145.299 201.119 145.51C201.703 145.721 202.238 146.048 202.691 146.472C203.13 146.876 203.435 147.406 203.563 147.989C203.691 148.572 203.638 149.18 203.409 149.732C202.828 150.888 201.306 151.369 199.934 151.168C198.56 150.906 197.252 150.374 196.086 149.602C195.738 149.424 195.429 149.18 195.174 148.884C195.049 148.748 194.967 148.578 194.939 148.395C194.911 148.212 194.938 148.025 195.016 147.858" fill="#6F4439"/>
<path d="M201.356 141.963C200.896 142.006 201.356 145.007 199.109 147.52C196.861 150.033 193.637 150.199 193.673 150.615C193.673 150.816 194.477 151.089 195.827 150.924C197.587 150.68 199.204 149.823 200.394 148.504C201.535 147.24 202.141 145.582 202.081 143.88C202.002 142.609 201.557 141.92 201.356 141.963Z" fill="#263238"/>
<path d="M198.096 111.032C198.484 111.75 201.184 110.967 204.479 110.859C207.775 110.751 210.532 111.24 210.855 110.5C210.999 110.148 210.439 109.517 209.268 108.949C207.723 108.275 206.045 107.96 204.361 108.03C202.677 108.1 201.03 108.552 199.547 109.351C198.434 110.012 197.924 110.694 198.096 111.032Z" fill="#263238"/>
<path d="M171.602 110.744C172.183 111.297 173.986 110.357 176.269 109.976C178.552 109.596 180.577 109.754 180.893 109.028C181.044 108.677 180.642 108.102 179.708 107.635C178.463 107.099 177.088 106.944 175.755 107.19C174.422 107.435 173.192 108.07 172.219 109.014C171.494 109.782 171.329 110.472 171.602 110.744Z" fill="#263238"/>
<path d="M236.272 92.5214C231.045 81.4355 212.133 67.6714 200.128 70.1342L182.329 84.3218C183.398 87.5412 185.316 90.4122 187.882 92.6315C190.447 94.8507 193.564 96.3358 196.904 96.9299C200.458 97.5187 204.623 97.253 207.05 99.924C209.476 102.595 208.895 107.19 211.243 110.026C214.495 113.961 221.79 112.783 224.418 117.163C225.574 119.073 225.438 121.557 226.615 123.453C228.195 125.973 235.439 128.479 238.103 127.201C240.767 125.923 240.164 121.155 240.745 118.52C241.743 114.033 240.796 111.9 239.963 109.574C238.017 104.06 238.771 97.8059 236.272 92.5214Z" fill="#263238"/>
<path d="M230.155 130.676C229.932 129.183 231.117 125.413 232.553 124.932C236.387 123.726 243.517 122.958 245.104 132.923C247.258 146.565 233.156 145.912 233.063 145.524C232.969 145.137 230.93 135.803 230.155 130.676Z" fill="#AE7461"/>
<path d="M236.402 139.708C236.459 139.651 236.667 139.838 237.12 139.953C237.722 140.108 238.362 140.02 238.9 139.708C240.25 138.955 241.097 136.477 240.774 134.007C240.622 132.835 240.21 131.712 239.568 130.719C239.373 130.313 239.082 129.961 238.721 129.694C238.359 129.426 237.938 129.25 237.493 129.183C237.209 129.153 236.923 129.225 236.687 129.385C236.451 129.545 236.278 129.784 236.2 130.058C236.078 130.468 236.2 130.726 236.136 130.776C236.071 130.827 235.813 130.597 235.827 130.015C235.851 129.668 235.993 129.338 236.229 129.082C236.557 128.737 237.009 128.535 237.486 128.522C238.548 128.429 239.64 129.24 240.3 130.238C241.069 131.327 241.562 132.586 241.736 133.907C242.088 136.664 241.09 139.457 239.209 140.369C238.861 140.534 238.481 140.62 238.096 140.62C237.711 140.62 237.331 140.534 236.983 140.369C236.48 140.01 236.358 139.737 236.402 139.708Z" fill="#6F4439"/>
<path d="M185.833 79.7343C185.208 85.4783 177.547 93.5558 174.345 98.3161C168.191 107.399 167.1 110.307 169.268 128.802C165.19 122.793 161.916 116.819 161.37 109.574C160.825 102.33 162.648 94.8123 167.071 89.0539C171.494 83.2955 178.61 79.5045 185.869 79.7199" fill="#263238"/>
<path d="M218.365 60.2544C221.237 57.088 225.387 55.0274 229.695 53.9504C235.834 52.4138 242.576 52.8303 248.162 55.5013C253.748 58.1722 258.071 63.1838 259.198 68.9278C259.752 71.8785 259.491 74.9244 258.444 77.738C257.396 80.5515 255.602 83.0263 253.253 84.8962C256.447 87.9929 260.341 90.2736 264.604 91.5449C263.441 93.2896 261.294 94.3092 259.126 94.6753C256.946 94.9479 254.74 94.9334 252.564 94.6323C254.049 96.852 256.272 98.4746 258.839 99.2131C255.305 100.029 251.62 99.9075 248.148 98.8613C244.752 97.8319 241.502 96.3721 238.476 94.5174C227.972 88.4216 222.178 83.0796 215.084 73.6954C214.158 69.6458 215.472 63.428 218.365 60.2544Z" fill="#263238"/>
<path d="M241.011 89.0318C233.3 77.7664 223.485 71.7424 214.603 69.8684Z" fill="#263238"/>
<path d="M214.603 69.8684C215.01 70.0313 215.43 70.1587 215.86 70.2489C216.671 70.4787 217.841 70.8305 219.248 71.369C222.912 72.7924 226.357 74.7261 229.48 77.113C232.604 79.4941 235.45 82.218 237.967 85.2336C238.914 86.4039 239.683 87.3876 240.178 88.0338C240.425 88.4001 240.704 88.7437 241.011 89.0606C240.803 88.6678 240.563 88.2932 240.293 87.9405C239.834 87.2225 239.101 86.2532 238.175 85.0685C235.722 81.9623 232.895 79.1699 229.76 76.754C226.599 74.3431 223.088 72.4302 219.349 71.0818C218.221 70.6806 217.07 70.3473 215.903 70.0838C215.476 69.9774 215.041 69.9054 214.603 69.8684Z" fill="#455A64"/>
<path d="M250.201 98.6319L250.029 98.6894L249.527 98.8904C249.096 99.0771 248.45 99.3212 247.602 99.6084C245.208 100.41 242.724 100.916 240.207 101.116C236.475 101.394 232.722 101.152 229.056 100.398C224.567 99.4549 220.177 98.087 215.946 96.3128C211.422 94.4675 207.157 92.572 203.359 90.7124C199.986 89.0801 196.738 87.1985 193.645 85.0833C191.565 83.6507 189.601 82.0566 187.771 80.3157C187.111 79.7054 186.637 79.1957 186.335 78.8797L185.955 78.4992C185.869 78.4202 185.826 78.3771 185.818 78.3843C185.811 78.3915 185.818 78.4346 185.926 78.5279L186.278 78.9372C186.587 79.2962 187.046 79.8203 187.714 80.4522C189.513 82.2438 191.461 83.8795 193.537 85.3417C196.62 87.5075 199.868 89.4281 203.251 91.0857C207.057 92.9741 211.315 94.884 215.845 96.7364C220.103 98.5155 224.522 99.8789 229.042 100.807C232.744 101.546 236.532 101.754 240.293 101.425C242.807 101.195 245.282 100.65 247.66 99.8023C248.5 99.4792 249.139 99.2135 249.562 98.9981L250.044 98.7612C250.151 98.6678 250.209 98.6391 250.201 98.6319Z" fill="#455A64"/>
<path d="M209.52 166.246L208.22 163.704C208.313 163.654 217.331 159.03 220.799 156.115C228.97 149.25 236.48 138.287 236.559 138.165L238.929 139.78C238.613 140.247 231.124 151.182 222.645 158.304C218.911 161.421 209.9 166.052 209.52 166.246Z" fill="#455A64"/>
<path d="M216.233 158.311C216.233 158.311 203.912 163.811 203.912 165.032C203.912 166.252 205.865 168.694 207.33 168.571C208.794 168.449 213.03 166.066 213.792 165.089C214.553 164.113 215.902 161.6 217.382 160.379L216.233 158.311Z" fill="#263238"/>
<path d="M238.828 121.342L235.956 121.206C236.06 112.924 234.634 104.694 231.749 96.9301C225.517 80.8756 213.533 72.2596 196.143 71.3118C194.561 71.2425 192.976 71.3508 191.419 71.6349L192.675 70.443C193.284 69.8683 193.992 69.4085 194.765 69.086C195.824 68.6434 196.975 68.4659 198.118 68.5691C220.074 70.4718 229.997 84.4297 234.456 95.9751C237.493 104.081 238.977 112.687 238.828 121.342Z" fill="#455A64"/>
<path d="M237.392 147.455C242.416 147.455 246.489 141.598 246.489 134.373C246.489 127.148 242.416 121.291 237.392 121.291C232.368 121.291 228.295 127.148 228.295 134.373C228.295 141.598 232.368 147.455 237.392 147.455Z" fill="#455A64"/>
<path d="M246.489 134.374C246.481 134.314 246.481 134.254 246.489 134.194C246.489 134.051 246.489 133.878 246.446 133.663C246.414 132.985 246.345 132.309 246.238 131.638C245.867 129.164 244.904 126.817 243.431 124.795C242.934 124.142 242.361 123.551 241.722 123.036C241.026 122.488 240.242 122.063 239.403 121.78C238.505 121.489 237.554 121.398 236.617 121.514C235.626 121.663 234.677 122.018 233.831 122.555C232.039 123.802 230.655 125.551 229.853 127.581C228.957 129.744 228.495 132.061 228.495 134.402C228.495 136.743 228.957 139.061 229.853 141.223C230.654 143.254 232.038 145.003 233.831 146.249C234.677 146.787 235.626 147.142 236.617 147.29C237.554 147.403 238.504 147.312 239.403 147.025C240.242 146.741 241.026 146.316 241.722 145.768C242.359 145.252 242.933 144.661 243.431 144.009C244.904 141.988 245.867 139.64 246.238 137.167C246.344 136.496 246.414 135.82 246.446 135.142C246.446 134.926 246.446 134.754 246.489 134.611C246.48 134.551 246.48 134.491 246.489 134.431C246.501 134.49 246.501 134.551 246.489 134.611V135.142C246.482 135.826 246.434 136.509 246.346 137.188C246.024 139.706 245.082 142.104 243.603 144.167C243.1 144.843 242.517 145.456 241.865 145.991C241.147 146.571 240.333 147.02 239.46 147.319C238.519 147.628 237.522 147.729 236.538 147.614C235.499 147.465 234.503 147.098 233.616 146.537C231.758 145.273 230.32 143.482 229.487 141.396C228.563 139.19 228.087 136.822 228.087 134.431C228.087 132.04 228.563 129.672 229.487 127.466C230.32 125.38 231.758 123.589 233.616 122.326C234.503 121.765 235.499 121.398 236.538 121.249C237.522 121.134 238.519 121.234 239.46 121.543C240.333 121.842 241.147 122.291 241.865 122.871C242.518 123.404 243.102 124.017 243.603 124.695C245.084 126.757 246.027 129.156 246.346 131.674C246.433 132.35 246.481 133.031 246.489 133.713V134.252C246.494 134.292 246.494 134.333 246.489 134.374Z" fill="#263238"/>
<path d="M238.792 141.97C241.992 141.97 244.587 138.241 244.587 133.642C244.587 129.042 241.992 125.313 238.792 125.313C235.592 125.313 232.998 129.042 232.998 133.642C232.998 138.241 235.592 141.97 238.792 141.97Z" fill="#455A64"/>
<path d="M244.587 133.641C244.544 133.641 244.587 133.009 244.378 131.896C244.138 130.336 243.522 128.858 242.583 127.588C241.945 126.718 241.059 126.06 240.042 125.7C239.477 125.518 238.879 125.462 238.29 125.535C237.669 125.627 237.074 125.85 236.545 126.188C235.418 126.973 234.547 128.072 234.039 129.347C233.471 130.713 233.181 132.177 233.185 133.655C233.178 135.134 233.468 136.599 234.039 137.963C234.547 139.239 235.418 140.338 236.545 141.123C237.074 141.461 237.669 141.684 238.29 141.776C238.879 141.849 239.477 141.793 240.042 141.611C241.059 141.251 241.945 140.593 242.583 139.723C243.522 138.453 244.138 136.975 244.378 135.415C244.558 134.302 244.544 133.67 244.587 133.677C244.596 133.828 244.596 133.979 244.587 134.129C244.586 134.566 244.557 135.003 244.5 135.436C244.31 137.047 243.715 138.583 242.77 139.902C242.112 140.833 241.185 141.539 240.114 141.927C239.509 142.132 238.867 142.201 238.232 142.128C237.56 142.023 236.916 141.779 236.344 141.41C235.15 140.6 234.225 139.453 233.687 138.114C233.095 136.701 232.79 135.184 232.79 133.652C232.79 132.12 233.095 130.603 233.687 129.19C234.225 127.851 235.15 126.704 236.344 125.894C236.914 125.526 237.555 125.282 238.225 125.176C238.862 125.103 239.507 125.172 240.114 125.377C241.185 125.765 242.112 126.471 242.77 127.402C243.715 128.72 244.31 130.257 244.5 131.868C244.557 132.301 244.586 132.737 244.587 133.174C244.596 133.33 244.596 133.486 244.587 133.641Z" fill="#263238"/>
<path d="M239.194 139.63C241.494 139.63 243.359 136.949 243.359 133.641C243.359 130.334 241.494 127.653 239.194 127.653C236.895 127.653 235.03 130.334 235.03 133.641C235.03 136.949 236.895 139.63 239.194 139.63Z" fill="#455A64"/>
<path d="M243.359 133.641C243.323 133.641 243.323 133.189 243.194 132.392C243.009 131.271 242.561 130.211 241.887 129.297C241.433 128.677 240.802 128.209 240.078 127.954C239.665 127.822 239.228 127.785 238.799 127.846C238.37 127.907 237.96 128.064 237.6 128.306C236.042 129.333 235.217 131.487 235.21 133.634C235.202 135.781 236.042 137.942 237.6 138.968C237.96 139.21 238.37 139.367 238.799 139.428C239.228 139.489 239.665 139.452 240.078 139.32C240.802 139.065 241.433 138.597 241.887 137.978C242.561 137.064 243.009 136.003 243.194 134.883C243.323 134.086 243.323 133.634 243.359 133.641C243.376 133.748 243.376 133.857 243.359 133.964C243.362 134.278 243.346 134.593 243.309 134.905C243.179 136.072 242.754 137.186 242.074 138.143C241.589 138.805 240.916 139.305 240.142 139.579C239.701 139.727 239.233 139.778 238.771 139.73C238.281 139.662 237.811 139.491 237.392 139.227C236.523 138.639 235.85 137.803 235.461 136.829C235.029 135.806 234.806 134.708 234.806 133.598C234.806 132.488 235.029 131.389 235.461 130.367C235.85 129.392 236.523 128.557 237.392 127.969C237.811 127.705 238.281 127.534 238.771 127.466C239.233 127.417 239.701 127.469 240.142 127.617C240.916 127.89 241.589 128.391 242.074 129.053C242.754 130.01 243.179 131.124 243.309 132.291C243.346 132.603 243.362 132.917 243.359 133.232C243.385 133.367 243.385 133.506 243.359 133.641Z" fill="#263238"/>
</svg>
