<svg width="101" height="100" viewBox="0 0 101 100" fill="none" xmlns="http://www.w3.org/2000/svg">
<g clip-path="url(#clip0_602_802)">
<mask id="mask0_602_802" style="mask-type:luminance" maskUnits="userSpaceOnUse" x="0" y="0" width="101" height="100">
<path d="M0.5 7.62939e-06H100.5V100H0.5V7.62939e-06Z" fill="white"/>
</mask>
<g mask="url(#mask0_602_802)">
<path d="M31.9737 5.07832H96.521C97.9096 5.07832 99.035 6.20391 99.035 7.59239V79.2225C99.035 80.6111 97.9096 81.7365 96.521 81.7365H4.47898C3.09031 81.7365 1.96472 80.6111 1.96472 79.2225V7.59239C1.96472 6.20391 3.09031 5.07832 4.47898 5.07832H25.0253" stroke="#0D3B66" stroke-width="3.5" stroke-miterlimit="10" stroke-linecap="round" stroke-linejoin="round"/>
<path d="M99.0351 67.0002V79.2228C99.0351 80.6115 97.9101 81.7365 96.5215 81.7365H79.7129H21.2871H4.47851C3.08984 81.7365 1.96484 80.6115 1.96484 79.2228V67.0002" stroke="#0D3B66" stroke-width="3.5" stroke-miterlimit="10" stroke-linecap="round" stroke-linejoin="round"/>
<path d="M76.1699 67.0002H17.7402" stroke="#0D3B66" stroke-width="3.5" stroke-miterlimit="10" stroke-linecap="round" stroke-linejoin="round"/>
<path d="M83.8375 88.3291V81.7367H17.1625V88.3291" stroke="#0D3B66" stroke-width="3.5" stroke-miterlimit="10" stroke-linecap="round" stroke-linejoin="round"/>
<path d="M28.1094 88.3291H10.8249C9.74207 88.3291 8.86414 89.207 8.86414 90.2899V92.9609C8.86414 94.0438 9.74207 94.9217 10.8249 94.9217H90.1749C91.2577 94.9217 92.1356 94.0438 92.1356 92.9609V90.2899C92.1356 89.207 91.2577 88.3291 90.1749 88.3291H35.086" stroke="#0D3B66" stroke-width="3.5" stroke-miterlimit="10" stroke-linecap="round" stroke-linejoin="round"/>
<path d="M1.96484 79.2225V43.0334L8.29609 46.8094C11.7178 48.8498 14.1721 52.1838 15.1047 56.0569L21.2871 81.7365H4.47891C3.09043 81.7365 1.96484 80.611 1.96484 79.2225Z" stroke="#0D3B66" stroke-width="3.5" stroke-miterlimit="10" stroke-linecap="round" stroke-linejoin="round"/>
<path d="M16.1914 31.0804L1.96484 43.0334V7.59234C1.96484 6.20386 3.09023 5.07828 4.47891 5.07828H25.0252L24.124 15.7709C23.6221 21.7261 20.7672 27.2359 16.1914 31.0804Z" stroke="#0D3B66" stroke-width="3.5" stroke-miterlimit="10" stroke-linecap="round" stroke-linejoin="round"/>
<path d="M11.064 23.5325L13.0396 19.4171C13.8224 17.7858 14.229 15.9997 14.229 14.1905V5.07897" stroke="#0D3B66" stroke-width="3.5" stroke-miterlimit="10" stroke-linecap="round" stroke-linejoin="round"/>
<path d="M99.0352 7.59238V43.0334L84.8086 31.0805C80.2326 27.2359 77.3779 21.7262 76.876 15.7709L75.9746 5.07832H96.5211C97.9096 5.07832 99.0352 6.2039 99.0352 7.59238Z" stroke="#0D3B66" stroke-width="3.5" stroke-miterlimit="10" stroke-linecap="round" stroke-linejoin="round"/>
<path d="M92.7039 46.8094L99.0352 43.0334V79.2225C99.0352 80.611 97.9096 81.7365 96.5211 81.7365H79.7129L85.8953 56.0569C86.8279 52.1838 89.2822 48.8498 92.7039 46.8094Z" stroke="#0D3B66" stroke-width="3.5" stroke-miterlimit="10" stroke-linecap="round" stroke-linejoin="round"/>
<path d="M89.936 23.5325L87.9604 19.4171C87.1776 17.7858 86.7711 15.9997 86.7711 14.1905V5.07897" stroke="#0D3B66" stroke-width="3.5" stroke-miterlimit="10" stroke-linecap="round" stroke-linejoin="round"/>
<path d="M42.0078 5.07833C42.0078 9.66036 38.207 13.3734 33.5176 13.3734C28.8281 13.3734 25.0254 9.66036 25.0254 5.07833" stroke="#0D3B66" stroke-width="3.5" stroke-miterlimit="10" stroke-linecap="round" stroke-linejoin="round"/>
<path d="M58.9922 5.07833C58.9922 9.66036 55.1895 13.3734 50.5 13.3734C45.8105 13.3734 42.0078 9.66036 42.0078 5.07833H58.9922Z" stroke="#0D3B66" stroke-width="3.5" stroke-miterlimit="10" stroke-linecap="round" stroke-linejoin="round"/>
<path d="M75.9746 5.07833C75.9746 9.66036 72.1719 13.3734 67.4824 13.3734C62.793 13.3734 58.9922 9.66036 58.9922 5.07833H75.9746Z" stroke="#0D3B66" stroke-width="3.5" stroke-miterlimit="10" stroke-linecap="round" stroke-linejoin="round"/>
<path d="M57.134 55.3064L52.5906 58.3199C51.3235 59.1601 49.6764 59.1601 48.4094 58.3199L43.8658 55.3064C41.0512 53.4396 39.359 50.2869 39.359 46.9094V37.1008C39.359 34.8924 41.1492 33.1021 43.3574 33.1021H57.6424C59.8508 33.1021 61.6408 34.8924 61.6408 37.1008V46.9094C61.6408 50.2869 59.9487 53.4396 57.134 55.3064Z" stroke="#0D3B66" stroke-width="3.5" stroke-miterlimit="10" stroke-linecap="round" stroke-linejoin="round"/>
<path d="M41.3378 52.9045L36.8847 51.6213C33.6386 50.6858 31.0781 48.1858 30.0644 44.9653L27.1191 35.6096C26.457 33.5022 27.6269 31.258 29.7343 30.5942L43.3593 26.3051C45.4648 25.6428 47.7109 26.8127 48.373 28.9182L49.6894 33.1018" stroke="#0D3B66" stroke-width="3.5" stroke-miterlimit="10" stroke-linecap="round" stroke-linejoin="round"/>
<path d="M47.3485 47.2797C47.3485 47.2797 50.9612 49.9698 53.6514 47.2797" stroke="#0D3B66" stroke-width="3.5" stroke-miterlimit="10" stroke-linecap="round" stroke-linejoin="round"/>
<path d="M64.8102 25.8156L69.3762 21.2496" stroke="#0D3B66" stroke-width="3.5" stroke-miterlimit="10" stroke-linecap="round" stroke-linejoin="round"/>
<path d="M64.8102 21.2496L69.3762 25.8156" stroke="#0D3B66" stroke-width="3.5" stroke-miterlimit="10" stroke-linecap="round" stroke-linejoin="round"/>
<path d="M74.4576 38.183C74.4576 37.3451 75.1369 36.6658 75.9746 36.6658C76.8125 36.6658 77.4916 37.3451 77.4916 38.183C77.4916 39.0207 76.8125 39.7 75.9746 39.7C75.1369 39.7 74.4576 39.0207 74.4576 38.183Z" fill="#0D3B66"/>
</g>
</g>
<defs>
<clipPath id="clip0_602_802">
<rect width="100" height="100" fill="white" transform="translate(0.5)"/>
</clipPath>
</defs>
</svg>
