<svg width="101" height="100" viewBox="0 0 101 100" fill="none" xmlns="http://www.w3.org/2000/svg">
<path d="M27.7774 18.6469L24.6829 17.9617C25.7389 16.7495 26.4238 15.259 26.6558 13.6681C26.8877 12.0772 26.657 10.4531 25.9911 8.98983C25.3251 7.52652 24.2522 6.28576 22.9002 5.41567C21.5483 4.54558 19.9746 4.08292 18.3669 4.08292C16.7592 4.08292 15.1854 4.54558 13.8335 5.41567C12.4816 6.28576 11.4086 7.52652 10.7427 8.98983C10.0767 10.4531 9.84599 12.0772 10.078 13.6681C10.3099 15.259 10.9948 16.7495 12.0509 17.9617L8.95632 18.6469C7.71851 18.9143 6.61027 19.5991 5.81741 20.5865C5.02456 21.574 4.59531 22.804 4.60163 24.0703V39.9805C4.60287 41.0368 5.02305 42.0495 5.77 42.7965C6.51694 43.5434 7.52967 43.9636 8.58601 43.9649H9.99226V65.1563C9.99246 65.5188 10.1366 65.8664 10.3929 66.1228C10.6493 66.3791 10.9969 66.5232 11.3594 66.5234H25.3759C25.7384 66.5232 26.086 66.3791 26.3424 66.1228C26.5987 65.8664 26.7428 65.5188 26.743 65.1563V43.9649H28.1493C29.2056 43.9636 30.2184 43.5434 30.9653 42.7965C31.7122 42.0495 32.1324 41.0368 32.1337 39.9805V24.0703C32.1399 22.8038 31.7104 21.5736 30.9173 20.5861C30.1241 19.5986 29.0155 18.914 27.7774 18.6469V18.6469ZM18.3673 6.83595C19.483 6.8361 20.5736 7.1671 21.5012 7.78708C22.4289 8.40705 23.1518 9.28818 23.5787 10.319C24.0055 11.3499 24.1172 12.4841 23.8994 13.5784C23.6816 14.6727 23.1443 15.6778 22.3553 16.4667C21.5663 17.2556 20.5611 17.7928 19.4668 18.0104C18.3725 18.228 17.2382 18.1163 16.2074 17.6893C15.1766 17.2623 14.2956 16.5392 13.6758 15.6115C13.0559 14.6838 12.7251 13.5931 12.7251 12.4774C12.7267 10.9815 13.3217 9.54746 14.3795 8.48983C15.4373 7.4322 16.8714 6.83739 18.3673 6.83595V6.83595ZM29.3977 39.9805C29.3977 40.312 29.266 40.6299 29.0316 40.8644C28.7972 41.0988 28.4792 41.2305 28.1477 41.2305H25.3759C25.0133 41.2305 24.6655 41.3745 24.4091 41.6309C24.1527 41.8873 24.0087 42.2351 24.0087 42.5977V63.7875H19.7344V42.5977C19.7344 42.2351 19.5904 41.8873 19.334 41.6309C19.0776 41.3745 18.7299 41.2305 18.3673 41.2305C18.0047 41.2305 17.6569 41.3745 17.4005 41.6309C17.1441 41.8873 17.0001 42.2351 17.0001 42.5977V63.7875H12.7251V42.5977C12.7251 42.2351 12.581 41.8873 12.3246 41.6309C12.0682 41.3745 11.7205 41.2305 11.3579 41.2305H8.58679C8.25527 41.2305 7.93733 41.0988 7.7029 40.8644C7.46848 40.6299 7.33679 40.312 7.33679 39.9805V24.0703C7.33375 23.4273 7.55184 22.8027 7.95451 22.3013C8.35718 21.8 8.91995 21.4522 9.54851 21.3164L14.9548 20.1188C16.0274 20.6028 17.1908 20.8531 18.3676 20.8531C19.5445 20.8531 20.7079 20.6028 21.7805 20.1188L27.1868 21.3164C27.8153 21.4522 28.3781 21.8 28.7808 22.3013C29.1835 22.8027 29.4015 23.4273 29.3985 24.0703L29.3977 39.9805Z" fill="#0D3B66"/>
<path d="M59.9102 84.3188L56.8165 83.6336C57.8721 82.4214 58.5567 80.931 58.7884 79.3404C59.0201 77.7497 58.7892 76.126 58.1232 74.663C57.4573 73.2 56.3844 71.9595 55.0327 71.0896C53.681 70.2198 52.1075 69.7572 50.5001 69.7572C48.8926 69.7572 47.3191 70.2198 45.9674 71.0896C44.6157 71.9595 43.5428 73.2 42.8769 74.663C42.2109 76.126 41.98 77.7497 42.2118 79.3404C42.4435 80.931 43.128 82.4214 44.1837 83.6336L41.0899 84.3188C39.852 84.5863 38.7436 85.2712 37.9506 86.2588C37.1577 87.2463 36.7283 88.4765 36.7344 89.743V94.5313C36.7344 94.8939 36.8785 95.2416 37.1349 95.498C37.3913 95.7544 37.739 95.8984 38.1016 95.8984C38.4642 95.8984 38.812 95.7544 39.0684 95.498C39.3248 95.2416 39.4688 94.8939 39.4688 94.5313V89.743C39.4656 89.0998 39.6836 88.475 40.0863 87.9735C40.489 87.472 41.0518 87.1241 41.6805 86.9883L47.0876 85.7906C48.1602 86.2747 49.3236 86.525 50.5005 86.525C51.6773 86.525 52.8407 86.2747 53.9133 85.7906L59.3196 86.9883C59.9481 87.1243 60.5108 87.4722 60.9134 87.9737C61.3159 88.4752 61.5338 89.0999 61.5305 89.743V94.5313C61.5305 94.8939 61.6746 95.2416 61.931 95.498C62.1874 95.7544 62.5351 95.8984 62.8977 95.8984C63.2603 95.8984 63.6081 95.7544 63.8645 95.498C64.1209 95.2416 64.2649 94.8939 64.2649 94.5313V89.743C64.2713 88.4765 63.842 87.2464 63.0492 86.2588C62.2564 85.2713 61.1481 84.5863 59.9102 84.3188V84.3188ZM44.8587 78.1469C44.859 77.031 45.1902 75.9403 45.8104 75.0126C46.4305 74.0849 47.3119 73.362 48.3429 72.9352C49.374 72.5084 50.5084 72.397 51.6028 72.6149C52.6972 72.8329 53.7024 73.3704 54.4913 74.1596C55.2802 74.9489 55.8173 75.9543 56.0348 77.0488C56.2523 78.1432 56.1404 79.2776 55.7132 80.3085C55.286 81.3394 54.5627 82.2204 53.6347 82.8402C52.7068 83.46 51.616 83.7908 50.5001 83.7906C49.0044 83.789 47.5704 83.1941 46.5128 82.1365C45.4552 81.0789 44.8603 79.6449 44.8587 78.1492V78.1469Z" fill="#0D3B66"/>
<path d="M27.7774 84.3187L24.6829 83.6336C25.7389 82.4214 26.4238 80.9308 26.6558 79.3399C26.8877 77.749 26.657 76.125 25.9911 74.6617C25.3251 73.1984 24.2522 71.9576 22.9002 71.0875C21.5483 70.2174 19.9746 69.7548 18.3669 69.7548C16.7592 69.7548 15.1854 70.2174 13.8335 71.0875C12.4816 71.9576 11.4086 73.1984 10.7427 74.6617C10.0767 76.125 9.84599 77.749 10.078 79.3399C10.3099 80.9308 10.9948 82.4214 12.0509 83.6336L8.95632 84.3187C7.71845 84.5863 6.61019 85.2713 5.81734 86.2588C5.0245 87.2464 4.59527 88.4765 4.60163 89.743V94.5312C4.60163 94.8938 4.74567 95.2416 5.00207 95.498C5.25847 95.7544 5.60622 95.8984 5.96882 95.8984C6.33142 95.8984 6.67917 95.7544 6.93557 95.498C7.19196 95.2416 7.33601 94.8938 7.33601 94.5312V89.743C7.33279 89.0998 7.5508 88.475 7.95348 87.9735C8.35617 87.472 8.91904 87.1241 9.54773 86.9883L14.954 85.7906C16.0267 86.2747 17.19 86.525 18.3669 86.525C19.5437 86.525 20.7071 86.2747 21.7798 85.7906L27.186 86.9883C27.8147 87.1241 28.3776 87.472 28.7803 87.9735C29.1829 88.475 29.4009 89.0998 29.3977 89.743V94.5312C29.3977 94.8938 29.5418 95.2416 29.7982 95.498C30.0546 95.7544 30.4023 95.8984 30.7649 95.8984C31.1275 95.8984 31.4753 95.7544 31.7317 95.498C31.9881 95.2416 32.1321 94.8938 32.1321 94.5312V89.743C32.1385 88.4765 31.7092 87.2464 30.9164 86.2588C30.1235 85.2713 29.0153 84.5863 27.7774 84.3187V84.3187ZM12.7251 78.1469C12.7249 77.0309 13.0557 75.94 13.6756 75.012C14.2954 74.0841 15.1766 73.3608 16.2075 72.9336C17.2385 72.5064 18.373 72.3946 19.4675 72.6122C20.562 72.8298 21.5675 73.3671 22.3566 74.1562C23.1458 74.9452 23.6832 75.9506 23.901 77.0451C24.1187 78.1396 24.0071 79.2741 23.58 80.3051C23.153 81.3361 22.4298 82.2173 21.502 82.8373C20.5741 83.4574 19.4832 83.7883 18.3673 83.7883C16.8719 83.7866 15.4382 83.1921 14.3806 82.135C13.3229 81.0779 12.7276 79.6446 12.7251 78.1492V78.1469Z" fill="#0D3B66"/>
<path d="M92.0435 84.3187L88.949 83.6336C90.005 82.4214 90.6899 80.9308 90.9219 79.3399C91.1539 77.749 90.9231 76.125 90.2572 74.6617C89.5912 73.1984 88.5183 71.9576 87.1664 71.0875C85.8144 70.2174 84.2407 69.7548 82.633 69.7548C81.0253 69.7548 79.4515 70.2174 78.0996 71.0875C76.7477 71.9576 75.6747 73.1984 75.0088 74.6617C74.3428 76.125 74.1121 77.749 74.3441 79.3399C74.576 80.9308 75.2609 82.4214 76.317 83.6336L73.2232 84.3187C71.9853 84.5863 70.8769 85.2712 70.0839 86.2588C69.291 87.2463 68.8616 88.4765 68.8677 89.743V94.5312C68.8677 94.8938 69.0118 95.2416 69.2682 95.498C69.5246 95.7544 69.8723 95.8984 70.2349 95.8984C70.5975 95.8984 70.9453 95.7544 71.2017 95.498C71.4581 95.2416 71.6021 94.8938 71.6021 94.5312V89.743C71.5989 89.0998 71.8169 88.475 72.2196 87.9735C72.6223 87.472 73.1852 87.1241 73.8138 86.9883L79.2201 85.7906C80.2928 86.2747 81.4561 86.525 82.633 86.525C83.8098 86.525 84.9732 86.2747 86.0459 85.7906L91.4529 86.9883C92.0814 87.1243 92.6441 87.4722 93.0467 87.9737C93.4492 88.4752 93.6671 89.0999 93.6638 89.743V94.5312C93.6638 94.8938 93.8079 95.2416 94.0643 95.498C94.3207 95.7544 94.6684 95.8984 95.031 95.8984C95.3936 95.8984 95.7414 95.7544 95.9978 95.498C96.2542 95.2416 96.3982 94.8938 96.3982 94.5312V89.743C96.4046 88.4765 95.9753 87.2464 95.1825 86.2588C94.3897 85.2713 93.2814 84.5863 92.0435 84.3187V84.3187ZM76.9912 78.1469C76.991 77.0309 77.3218 75.94 77.9417 75.012C78.5616 74.0841 79.4427 73.3608 80.4737 72.9336C81.5046 72.5064 82.6391 72.3946 83.7336 72.6122C84.8282 72.8298 85.8336 73.3671 86.6227 74.1562C87.4119 74.9452 87.9493 75.9506 88.1671 77.0451C88.3849 78.1396 88.2732 79.2741 87.8461 80.3051C87.4191 81.3361 86.6959 82.2173 85.7681 82.8373C84.8402 83.4574 83.7493 83.7883 82.6334 83.7883C81.1379 83.7868 79.7042 83.1924 78.6464 82.1352C77.5887 81.0781 76.9935 79.6446 76.9912 78.1492V78.1469Z" fill="#0D3B66"/>
<path d="M53.2656 35.4851H55.3844C55.5493 35.9694 55.7458 36.4423 55.9727 36.9008L54.4734 38.4008C54.3464 38.5276 54.2456 38.6782 54.1768 38.8441C54.1081 39.0099 54.0727 39.1877 54.0727 39.3672C54.0727 39.5467 54.1081 39.7244 54.1768 39.8903C54.2456 40.0561 54.3464 40.2067 54.4734 40.3336L57.9156 43.7765C58.0425 43.9036 58.1932 44.0044 58.3591 44.0732C58.525 44.142 58.7028 44.1774 58.8824 44.1774C59.062 44.1774 59.2398 44.142 59.4057 44.0732C59.5716 44.0044 59.7223 43.9036 59.8492 43.7765L61.3492 42.2773C61.8075 42.5046 62.2804 42.7011 62.7648 42.8656V44.9844C62.7648 45.347 62.9089 45.6947 63.1653 45.9511C63.4217 46.2075 63.7694 46.3515 64.132 46.3515H69.0008C69.3633 46.3513 69.7109 46.2072 69.9673 45.9509C70.2237 45.6945 70.3678 45.3469 70.368 44.9844V42.8609C70.8514 42.6965 71.3235 42.5005 71.7812 42.2742L73.2836 43.7765C73.5448 44.0238 73.8907 44.1616 74.2504 44.1616C74.61 44.1616 74.956 44.0238 75.2172 43.7765L78.6594 40.3336C78.9156 40.0772 79.0595 39.7296 79.0595 39.3672C79.0595 39.0047 78.9156 38.6571 78.6594 38.4008L77.157 36.8984C77.3833 36.4407 77.5793 35.9686 77.7437 35.4851H79.868C80.2306 35.4851 80.5783 35.3411 80.8347 35.0847C81.0911 34.8283 81.2352 34.4806 81.2352 34.118V29.2492C81.2352 28.8866 81.0911 28.5389 80.8347 28.2825C80.5783 28.0261 80.2306 27.882 79.868 27.882H77.7484C77.5838 27.3977 77.3872 26.9248 77.1602 26.4664L78.6594 24.9664C78.9156 24.7099 79.0595 24.3622 79.0595 23.9996C79.0595 23.637 78.9156 23.2893 78.6594 23.0328L75.2172 19.5906C75.0903 19.4635 74.9396 19.3627 74.7737 19.294C74.6078 19.2252 74.43 19.1898 74.2504 19.1898C74.0708 19.1898 73.893 19.2252 73.7271 19.294C73.5612 19.3627 73.4105 19.4635 73.2836 19.5906L71.7836 21.0937C71.3252 20.8666 70.8523 20.6701 70.368 20.5055V18.3828C70.3678 18.0203 70.2237 17.6726 69.9673 17.4163C69.7109 17.1599 69.3633 17.0158 69.0008 17.0156H64.132C63.7694 17.0156 63.4217 17.1597 63.1653 17.416C62.9089 17.6724 62.7648 18.0202 62.7648 18.3828V20.5062C62.2814 20.6709 61.8093 20.8672 61.3516 21.0937L59.8492 19.5922C59.588 19.3449 59.2421 19.2071 58.8824 19.2071C58.5228 19.2071 58.1768 19.3449 57.9156 19.5922L54.4734 23.0344C54.3464 23.1613 54.2456 23.312 54.1768 23.4779C54.108 23.6438 54.0726 23.8216 54.0726 24.0012C54.0726 24.1807 54.108 24.3586 54.1768 24.5245C54.2456 24.6903 54.3464 24.841 54.4734 24.968L55.9758 26.4695C55.7497 26.9276 55.5537 27.4 55.3891 27.8836H53.2656C52.903 27.8836 52.5553 28.0276 52.2989 28.284C52.0425 28.5404 51.8984 28.8882 51.8984 29.2508V34.1195C51.8989 34.4818 52.0431 34.8292 52.2994 35.0853C52.5558 35.3413 52.9033 35.4851 53.2656 35.4851V35.4851ZM54.6328 30.6164H56.4156C56.7227 30.616 57.0206 30.5123 57.2616 30.322C57.5025 30.1317 57.6723 29.8658 57.7438 29.5672C57.9653 28.6406 58.3327 27.7551 58.832 26.9437C58.993 26.6818 59.061 26.3732 59.0249 26.0679C58.9889 25.7625 58.8511 25.4783 58.6336 25.2609L57.375 24L58.8836 22.4906L60.1445 23.75C60.3616 23.9676 60.6458 24.1057 60.951 24.1417C61.2563 24.1777 61.5648 24.1096 61.8266 23.9484C62.6378 23.4494 63.523 23.0821 64.4492 22.8601C64.748 22.789 65.0142 22.6193 65.2047 22.3783C65.3952 22.1373 65.499 21.8392 65.4992 21.532V19.75H67.6336V21.5289C67.6339 21.8362 67.7378 22.1344 67.9284 22.3754C68.1191 22.6164 68.3854 22.786 68.6844 22.857C69.6106 23.0777 70.4956 23.4454 71.3055 23.9461C71.5673 24.108 71.8762 24.1767 72.1819 24.141C72.4877 24.1052 72.7724 23.9672 72.9898 23.7492L74.25 22.4906L75.7594 24L74.4992 25.2601C74.2812 25.4775 74.1432 25.7623 74.1074 26.068C74.0717 26.3738 74.1404 26.6827 74.3023 26.9445C74.8027 27.7546 75.1703 28.6395 75.3914 29.5656C75.4625 29.8645 75.6322 30.1308 75.8732 30.3214C76.1141 30.512 76.4123 30.616 76.7195 30.6164H78.4992V32.7508H76.7172C76.4102 32.7514 76.1124 32.8552 75.8715 33.0455C75.6306 33.2358 75.4607 33.5015 75.3891 33.8C75.1677 34.7263 74.8007 35.6115 74.3016 36.4226C74.1406 36.6846 74.0726 36.9932 74.1086 37.2985C74.1447 37.6038 74.2825 37.8881 74.5 38.1055L75.7617 39.3672L74.25 40.8765L72.9883 39.6148C72.771 39.3975 72.4869 39.2598 72.1817 39.2238C71.8765 39.1878 71.5681 39.2556 71.3063 39.4164C70.4948 39.9155 69.6093 40.2829 68.6828 40.5047C68.3841 40.576 68.1182 40.7458 67.9278 40.9867C67.7375 41.2277 67.6338 41.5257 67.6336 41.8328V43.6172H65.5V41.839C65.4998 41.5317 65.396 41.2334 65.2053 40.9924C65.0147 40.7514 64.7483 40.5818 64.4492 40.5109C63.5231 40.2888 62.6383 39.9203 61.8281 39.4195C61.5662 39.258 61.2574 39.1895 60.9517 39.2252C60.646 39.261 60.3614 39.3988 60.1438 39.6164L58.8828 40.8765L57.375 39.3672L58.6352 38.107C58.8527 37.8895 58.9905 37.6051 59.0264 37.2995C59.0623 36.994 58.9941 36.6854 58.8328 36.4234C58.3319 35.6132 57.964 34.7281 57.743 33.8015C57.6719 33.5026 57.5021 33.2364 57.2612 33.0458C57.0202 32.8551 56.7221 32.7512 56.4148 32.7508H54.6328V30.6164Z" fill="#0D3B66"/>
<path d="M66.5665 38.0758C67.8308 38.0758 69.0666 37.7009 70.1178 36.9985C71.169 36.2961 71.9883 35.2978 72.4721 34.1298C72.9559 32.9618 73.0825 31.6765 72.8359 30.4365C72.5892 29.1966 71.9804 28.0576 71.0865 27.1636C70.1925 26.2697 69.0535 25.6609 67.8136 25.4142C66.5736 25.1676 65.2883 25.2942 64.1203 25.778C62.9523 26.2618 61.954 27.0811 61.2516 28.1323C60.5492 29.1835 60.1743 30.4193 60.1743 31.6836C60.1762 33.3783 60.8502 35.0031 62.0486 36.2015C63.247 37.3999 64.8718 38.0739 66.5665 38.0758ZM66.5665 28.0258C67.29 28.0258 67.9972 28.2403 68.5987 28.6422C69.2002 29.0442 69.669 29.6154 69.9459 30.2838C70.2227 30.9522 70.2952 31.6877 70.154 32.3972C70.0129 33.1068 69.6645 33.7585 69.153 34.2701C68.6414 34.7816 67.9897 35.13 67.2801 35.2711C66.5706 35.4123 65.8351 35.3398 65.1667 35.063C64.4983 34.7861 63.9271 34.3173 63.5251 33.7158C63.1232 33.1143 62.9087 32.407 62.9087 31.6836C62.9099 30.7139 63.2957 29.7842 63.9814 29.0985C64.6671 28.4128 65.5968 28.027 66.5665 28.0258Z" fill="#0D3B66"/>
<path d="M95.0312 4.10156H38.1016C37.739 4.10177 37.3914 4.24588 37.135 4.50223C36.8787 4.75858 36.7346 5.10621 36.7344 5.46875V11.3742C36.7346 11.7368 36.8787 12.0844 37.135 12.3407C37.3914 12.5971 37.739 12.7412 38.1016 12.7414H39.725V51.993C39.725 52.3556 39.869 52.7033 40.1254 52.9597C40.3818 53.2161 40.7296 53.3602 41.0922 53.3602H65.1992V57.8594C64.193 58.185 63.3361 58.8592 62.7828 59.7604C62.2294 60.6617 62.016 61.7309 62.1808 62.7755C62.3457 63.8202 62.878 64.7717 63.682 65.4587C64.486 66.1458 65.5088 66.5233 66.5664 66.5233C67.624 66.5233 68.6468 66.1458 69.4508 65.4587C70.2548 64.7717 70.7871 63.8202 70.952 62.7755C71.1168 61.7309 70.9034 60.6617 70.35 59.7604C69.7967 58.8592 68.9398 58.185 67.9336 57.8594V53.3594H92.0406C92.2202 53.3595 92.398 53.3242 92.5639 53.2555C92.7299 53.1868 92.8806 53.0861 93.0076 52.9592C93.1346 52.8322 93.2353 52.6814 93.304 52.5155C93.3726 52.3496 93.4079 52.1718 93.4078 51.9922V12.7414H95.0312C95.3938 12.7414 95.7416 12.5974 95.998 12.341C96.2544 12.0846 96.3984 11.7368 96.3984 11.3742V5.46875C96.3984 5.10615 96.2544 4.7584 95.998 4.502C95.7416 4.24561 95.3938 4.10156 95.0312 4.10156V4.10156ZM66.5664 63.7891C66.2291 63.7891 65.8994 63.6891 65.619 63.5017C65.3385 63.3143 65.1199 63.048 64.9908 62.7364C64.8617 62.4248 64.8279 62.082 64.8937 61.7512C64.9594 61.4204 65.1217 61.1165 65.3602 60.8779C65.5986 60.6394 65.9024 60.4769 66.2332 60.411C66.564 60.3451 66.9069 60.3788 67.2185 60.5077C67.5302 60.6367 67.7966 60.8552 67.9841 61.1355C68.1716 61.4159 68.2717 61.7455 68.2719 62.0828C68.271 62.5348 68.0911 62.968 67.7714 63.2876C67.4517 63.6071 67.0184 63.7869 66.5664 63.7875V63.7891ZM90.6734 50.625H42.4594V12.7414H90.6734V50.625ZM93.6641 10.0063H39.4688V6.83594H93.6641V10.0063Z" fill="#0D3B66"/>
</svg>
